<mxfile host="app.diagrams.net" modified="2024-02-16T13:35:52.700Z" agent="Mozilla/5.0 (Windows NT 10.0; Win64; x64) AppleWebKit/537.36 (KHTML, like Gecko) Chrome/121.0.0.0 Safari/537.36" etag="wZXstxYJHPQH9hTJfK4-" version="23.1.5" type="github">
  <diagram name="第 1 页" id="u3VaEMhR2Z1WuRZS3MWQ">
    <mxGraphModel dx="2062" dy="624" grid="1" gridSize="10" guides="1" tooltips="1" connect="1" arrows="1" fold="1" page="1" pageScale="1" pageWidth="827" pageHeight="1169" math="0" shadow="0">
      <root>
        <mxCell id="0" />
        <mxCell id="1" parent="0" />
        <mxCell id="4TmH9_435ArQg_TDs74U-1" value="" style="shape=image;verticalLabelPosition=bottom;labelBackgroundColor=default;verticalAlign=top;aspect=fixed;imageAspect=0;image=data:image/png,iVBORw0KGgoAAAANSUhEUgAAA9IAAAE+CAYAAABhiigOAAAgAElEQVR4Ae29/4sVV57/79+zPyUbCCQEhjDLhBGGFQIugmwkgYQMuFkQItGAASFRiAQiXtkgjPQaeQvJKm06Oxh3TLKfkfSOdmczcSdr3MY0sTvRsXscWzR+e304p+qcOlV16t5T99atW3Xvo6G599Y9Ved1HvWqc1/P8zp1ap3wBwEIQAACEIAABCAAAQhAAAIQgEAwgXW+krdu3xX+YYAP4AP4AD6AD+AD+AA+gA/gA/gAPoAP5H0AIc2gAYMm+AA+gA/gA/gAPoAP4AP4AD6AD+ADJXwAIV0CFiMx+ZEYmMAEH8AH8AF8AB/AB/ABfAAfwAcmzQcQ0ghpRp7wAXwAH8AH8AF8AB/AB/ABfAAfwAdK+ABCugSsSRtlob2MLOID+AA+gA/gA/gAPoAP4AP4AD6Q9wGENEKakSd8AB/AB/ABfAAfwAfwAXwAH8AH8IESPoCQLgGLkZj8SAxMYIIP4AP4AD6AD+AD+AA+gA/gA5PmAwhphDQjT/gAPoAP4AP4AD6AD+AD+AA+gA/gAyV8ACFdAtakjbLQXkYW8QF8AB/AB/ABfAAfwAfwAXwAH8j7AEIaIc3IEz6AD+AD+AA+gA/gA/gAPoAP4AP4QAkfQEiXgMVITH4kBiYwwQfwAXwAH8AH8AF8AB/AB/CBSfMBhDRCmpEnfAAfwAfwAXwAH8AH8AF8AB/AB/CBEj6AkC4Ba9JGWWgvI4v4AD6AD+AD+AA+gA/gA/gAPoAP5H0AIY2QZuQJH8AH8AF8AB/AB/ABfAAfwAfwAXyghA8gpEvAYiQmPxIDE5jgA/gAPoAP4AP4AD6AD+AD+MCk+QBCGiHNyBM+gA/gA/gAPoAP4AP4AD6AD+AD+EAJHxiikF6TCzOHZe9rL8mGp5+TqW97j9L8eOGsfP5Zuf8Ly72PO7ajIysr8uN3F2X2s4/k9Fdrckt9Xu7xfyPDa+FTOfbZsnPRLMuxXz8mjzz6mLz8gbN9bUU+P3RYPr/m7L+21ru+5TXn2NG+l367X955d7+889vLue/G9lyVuChh4PhYjdxm3/b4fan6L8vx1zbJxk3PylOPbpPjk9w3leI2mvPNdTZq7hdl6oVn5ZXdR+X4hRX9W7D4wVb92/PIrz+URe1DazJ7aJ8c+yr6Pn/O1mT++GE59smc2Fjguw/l5Ueja3nvFyFtXJPP9z4rL7/9ocx+F1KeMvnzABOYdPeBfn9fVxfmSusCqyPifiV/btbk9N7nZPf7c3LJxMRryzL7/hvy+ge94tI1mZ/+SObdWPiLfVG/9eg+mXV/+779UDo9j9edW952yjeNSQVCekUuFIjfqV2/iJ3rMfnl7g/9F8O5y7IaO5650JSIC/0P+6FsiON9eyoSkEpElv4/JZduL8vHuzbJhqfzfB5/d05C+KXE8fen5NUn1bGekI27PpJLa4qTR0ivXJSpbT+LzsmGfTK7EvN0Apbi87VPZq/NyZRq7/tz8uPtu4mdb88hpN1Ol/cj9YfP90bXVeoa8Z2TG5dltqDPO/7ms7bv2vzOqZ59XtN+ELCnIb8VPr8bt23fHJWN8W/9qzN+Ib04vU0e12V+Ji90zsqi/o1yztHanOzVv2HOwK/zuxQUHyx/JK/oOp6Q3Z+tyS1n/+Lftcck6Njjds5oz0h/o9rUP1sBHMf4Jj59+YM5Hcdu3KQGnYv+35CPv4+uczu4VkIX2Ou2IMZc/f0++WV8vA3/8rXcur0ip3c9Ef12P7lVji04fUzK59dk/l82ReWefkkOnYsH+DxCevF3+2RjHF+/8kGic9p0DrG1yA/S2ysQ0nOytx8HN/vYkWdHYD35iy4X2CbZuPEX8Y9ry37M7MWWF8L2wjdccq/RSJfpjNzyjz+zSTa++al8HGfUHnn62Ry/n2eDjbhz+PHce7I5/u7xzYdl/kZGSF87K3s3mg7mOemYjkPt//0peX1TIuy1HapjfCYur+04LLMmMInPtW1DQSfHxZu+SOFRIY/CWRRfy9QL0XX5wtTXBTMt4tkVxp9z12jgde30eZzbCs9tKuDhuE33rfnOr+LA9S35PM4K2aDZXCNrl+X4rk32937jby6mhMzqZ2/F3z0nh+bj2VhfHZUX4mtz9yf+GVqrjiCf/5d48MvUGXh9I6S5xpp+jY3Svuy1bOI+JaTNrEc3jk2/3yrH4tkh9jib9snxggFsm4GOvz+0Lf4t9sWYK2dl7/r4+/X75HObGPpIXo5jYTUjJkoseXxc9UmvmwHzn8mrv12WWza2V3H6mlz6YJs8FfdBG143SSrPsfjNSvXno/TXQequVEg/taFodKnL9l2n4ilcjpA2P2hFTub80LXqx+zc4ZzA1SNyzsCATwRHo3aH9ZSRaPr7nJw+9FIUhDisTEf1SK7zyIhjxdWZBr547rC8/HfPyu5PLsuPy1lBsSyzh56TR/7uNTl2YdkKDDcQMfWaTJ7t+Iwd5nzFtpryeTvpaAa5mNk3wH/sD16g6E2J5XjalvHnRx+Tza85s0vecd57Zpy8ujmu07lmOWcB56zod4Dt7Q1CVj6V3XHQ+suOyghFfjD/L7G4fvWUnr1ktl+afkNeePus/OgIYHf2VDoI731t27hh2czKek6mvrkrq58dls5vv5ZL32d/ByNBPmtE95OvycfcumHPmzlPvNKfGR+wcWAm7nv5g4ty6VzBLZzT++JZKh4h3SvB5mS37axNE4Oa34q1y3Jsa5zoefRZ2ftF+tbDSx9stYN2G978ND0Dxh2E//6yfPzms/LzXx+V2e9X5MdP3ori8UffktPq9sqFU/L63z0mm985K5fM7ZbX0nUZTry2/5qpVEjbHyfjtCVfrcBav1V2ewJROx36za12WsagdTbCiZ3APFRcZjsp1Q7Lb9vhzJTSj2Tvpii4MGLXlk0Jhd4BiAlYXO7mWObY1jbTiZn2ZTrU0LY24hyV9GVsbmjnWLGQ1tfB2orMf/CGbHw6PSVs9Yt9snnzWzL1RbTWgLlOkvs/G8oIX0cgDNkHLkw9FweeW2Xq98k9kDaTlPsNcwLv+L5Hd3qm+V0KfY1+v9S90ZFw/+Xbc7K69rV0NkS/gRt/86nNmr1wLL5n8saczWRF00G5fvmdwweKfMDGgZm4z8SJ3v1MrPjoYELaThk/5Nw+mBLRj8kGdc3n+rk1Ob3bCO3HJCWmrW3hcXKqP2IAfWx/VysX0vbiCRFoGceygWbIvnEZV9B5L8zchdLAjs+9QI349Nod3SOtOwkzfdqM0u06JcfN1O4u/Ewn1g9rt1NQ3GcPRTMNzOiff2r3Jjk0HS/+kulQEdIN9EWv342RnVZIJz/UUb9xWY7FU7vNNWL7E7tPnJE290j/7lM5ffw9edlci2qtgXfOxpm0Zfn41XhdgUcfk8c3viHv/OZDOa2mnjnrQtg6xp077RvbIKK0D9ss8GOiBpVmzQJjXX633N8e/bvhiN7cwJTze9otPlg9955s0HX+Ql7YvV/eeS0W93q6ZzKL65FtH+lr+sfpbYn4/yaeMm4WKsK/8W98IOUDVgtk4r7c76vLzV67ye9zcpyjMjtvBtQ+lWOHus8Ae2f3PjluFg+8NiedLYlAfmpbl+nWK19nyh6VC2r6t7UNIV26z3fP8Ri+b5SQtqs5d8tGZ777OGA18MafdPcC7SGkC+8t+fWHctqshp1hZDP57+6XqS/8q58ufnFUXjf3QrsBzZO/0KuZfv5Nfr9QMb73A4R0431wDDs3L3MripMfal3uxqeyO/b7XPBt94mF9O01uTC9zxHQj8kjT78knd8vy4+/f09e0FPM3pKPv1+Txc9cof2YPLX5LTl2gSle3nMzKT440e1MZ3y0kJ55w97yZAZlH3nyF7LBDFCZwWIzdVNlmdaW5fN3n5PHH31WOl9lBvqc39Pcteyyd8olQv0J2f07dX1+LR1zH2W8Ar/v966rKHDr4n1KZHH9Z3x2DP0jEcDRCvzm+ul6zdhrMvl9do9zeipe6EsNTqu1gXxr9Jh+YpNaDGxNVr/9UF5xFujtKqLNeViZk73x7BTdNzyzX2azg2bXLsrpzkv2XuikD1G/86/JoemvkxXBzXF5Hct+oHIhHXWQazL77iZ5XAWXzqOVVi98mIg1u+Ldisy+32NkqYswNCKxSCC2osO2ncdj0itLu3pNjYTPSefZeFTshaMyr+7B0Nv9C6tkH4ml729eW5PFb+bk+KHXZLMJWB59TJ7atk92x9PAf7llq2x2OqDHn9kqu9//NHnMiLrP+gszqr9Vpi5E9c9Pxfdvv/mpvqd69Ub8mKz4HhGzOnKvtrbi3NExtqtjtKI4+aFWfpZkm56VdzL3Td2y+xghfVfsAkVPbpJXD0WrCav7OKMMV3xtbnhDjquBPjP1W98T+ivZ+3uENNf2+AfS3nN8br+9B1EHnkWz0t6eEzeAjh6F5TDTa3wsy6VvLsuiuQfRvAYsNqZ+E1fXVmR2ar8c+uCo7I5/Tx/f/Wk83TO9iOrm9y8nt045A81dRQG/De36beB8VXq+stevK6R//OKo/8k19rbN5Pc5dRwzG8xZdMzcDrJx70eZWxrjR1tlpnS7grf7+yfkqadVFtsMrt2V1WuXZf6TD2XvP6tHXMa/809ukr1vmtkqz8kLW5PFkB959Gd6HZVjX1wWd10hb9+I/1Xqf3UyHo6QXrkox+xKm+rRSkflmDNys+H1D51nsDlTqIxj9vHa6h+0EkJaO8f8e/YecTWiH60umP7hL+4g4g7qm6Oy2eX89Euyd/qirGYff7W2Jpc+Oyyvbk6mqT7y5BvysX6GnpNdiKe/Kftsx+dk139UjwJQI4XOwmr23jM6kNZ2IHV2VpXUZUVx8kN9y13FU18TP5NX3lfXQhy4230SIX1rZU6mDp2NRpyvfS3HnFU8X/ngrBwzj4t79Fl5/YOvo0WSvjsrnUNnk+Oa4/OK/0+KDyx8aFfUzgtpJxboIaRNUF78O9d7+qXJVtsFhp58S06bFXy//8g+i1rXsf49mTcLndnHdv0qnw2flPNIO+mzeviAjQP1YNmyHN8aXZMqVrffuTFo6n3y+2zLquO4sXKqvO96T45xa+VrOf3ZR3bWWVi/sVWOfXtZTk9/Hf9mO/GurvsJ2fjqYflcPaYrGyMsfy3H394q5mk5qr4Nh9JPHKgknulxDqjDGXwdIqtqhfTv48yjHhlelktqWuPfuQ7+C3n12NfpEeRrPzgZ6desuPvl1rf8I1YF2elJyUir5919/Gpyr4fuEJ7eJscXzgY+hsx0Lmsy+/az8vMtr8mhTy46q6Felo9jxlmmP37zqXS2/kI26ufuRY+/elVnrNPT62zHpx9/FT8P8CtH/Ot7Rvcnz6MeooPTkdTTkbSGs/3Bi6+D1Gj1r+Tlf1bTRaM+yz62wu7jCGnlszcuy+cd58fySefxcGvLcnpv8tgeNZujk7rOOC+t8Rn6pwpFg3ru81Z55+2tuadO3FpLfsNSwXYma638pjIh/e2H8SNvfiGvz1yWS+oezPllWTWZ8/X75J03o6yUedb1pffje6mf3CezRlzjIxX6CH3jOPSNNg6MhbS5LVFf287tHHZhsFSixcSpTmJGreRvhLTzKKx8Rvpw/Fz45BgRzxW5EGeyj+81U8Q3yd5pc9919Jp8l90/vk/66Wfllbc/lNmFZGZZkmE/JZfcvkBl0N9/SzY/wyr/4+DTRW2oVkibe2F7jhQ54tr9kTQXyaOPSdHzH7PTlH/M3rfgOnFb3jvt7jnd+SszldphqHg/uVWmvkku7GRhBE9ncDsRy2ZqfPKaDGakHu3jDmCox/z8Nl7J9NqcHP8kfu/ytuIjrt99dMCyY6e7D+8JRobtA45fTn3xafKMdDViHK/i6T4D8vGN++T09L54kaFISC9+9ZEceu25ZGqXuv7+bqt0pj/NTC37VI7tNj/Y8fWq1hzYfVROOz/CRZ0z2wmox88HVuTSwlqSkXJ//+1g6xPyzjkngHbLmP7BeXyjjgmc6dz2OfC+bWb6t5rarWaimOfGujGLyoYfj4X+1o9k0cwA27BfZr9PnkHrPrZr/M4T1x7ndDAfSAvpizIV3zJoBqS8fG0snMStdtBMzXC032fiX/f6te+TY2Trso/ZU4+rymgIa7ezcrjaPxHL+VtRd2+NH9tX9MQh/WjMozKrZ3IOxjXbFj6PnufgQto69iaZ+l28qJR15ABnd38kbZAbsF9cR7QwyOhBDuTMlmGve6TN9JjnZPebZkT/sBx7+1l5fOuHcnraucDtvSa/kpffdLZrARw6DbzLeTDTtvs4Z9G0muJObiCWJtDiFVHu8wHrry/JoWP7ZWMcSKcec3H7rlyaie53VtfVpd+nhfSPM6/ZrHXYFLHsdbRNjvMMWvzT558Tss0Gq87v/3wnDkbj4DZX5rtT8s4hZ40Ol9UX++w1aWMC53fVvfXrx+/M/Yorcnxbcm0+tUEtXrRNdv/2azm9O9r+Sz37Kply/tTT5hYnrmF+p1sed7rXzxDep67fa6fkVR2zR4Nkhb5jr9kkPjRr6jz+7imbUf486B7poidkJNfzI+qWjUzbLx2L1/jJiGzbnjL6JlU2aVNh+zO2UK4d19jgQtpMgXp0qxxX9wrkHCERbfbHbO2iTG2OfqjUIh5mn8Wi6R52Fb5olT73Pltzn5M5RitfbefRS0jflQtq1cLNR+Vz88gQFYio6WVrgdPdtAAuyEi/84a8kJqK/5g8svE1/xR7k5G2wiQJSMLEBZ1KK301d337rvkGb7P+Gvnf6heHZe8Hzv3QTvsWz81F6w/YfeKp3Wtfy6HX9snx+VP2nqvC2Rvv7pdX477ukTdPyfz0ftn9G9/zKxvMzGGCz3KeqvABG5QaIe08EuvxN6N1BHJlzHX45H6ZTfmke7uT87vi/K7a2ON2PBj99HOy+5NlWf1OLVaWmSFlV/B/Qmx8kZkJtnmK+x2r8AOOMcb9yY148dtra7JoHx2XzwCnfMBes+Y6dh9L+WHg7YtOLGr6F7e/cNYHMn2Na4PNgD+avpWrKCO9d9uz8Yw1U2/8OD13Fqd+T0ba5TxO7wcW0nb0JvfjZjqIvJBe/d1b0ejxk2/J55lpFUFwzQ/qoy/JsQVTT4tfbefRW0jf+uqwvPOZf2rcjxecez2m98lGPRqWuQfkQv4xVpp5asGkrXLs9+besSdk87vRqsRB58Z0WPYcmQ6xxefHtIlXO+hVyheaxK0fv7T7pH9Yb91O+jYbcHvaan+YzSwOT5nW8qQt7b8mRnAO0yLZFcK/ks589FuRLnNX1EwQPUibCY4vHdtqs9GPq/soTXuc31UrpNfUPdpRwLv7tAr0L8v8Z2fluHpyyO5tsnHja9LpxCvwmvhErbo/ldShVvF9eco/+MZ1zO88PpDxAWcxT59wTfGy12wcN6Yy2eb39iWZ+ip5Qs3pN6PrWd3Scel3h2W3ylyb2zoyfcWtbz+S1+1jrX4le7NP6Lh9V0wG/JGMkE7ZGfcxi5/tl81xf/LLtz+V02/HonrDG3Lsq4JY2/RPvI7Nb+eAQtqZIuH+gLkOsvKpvB5Pb7A/ZssX5fMPDss7Mz1Gdd37oNRqmvo+22X53DhrYRY8cyG79ozqve0gzKhVH6+qU7ixppfRzwYZ0WOxks7lR9ORPJrudPT9ZM7gxeq3c3Istbrgz+SV49EsgdUv9iWP81Ej+O+flQvfJ6P3uTqd+89+/OSteJTOU79bzrHF11GxrYG+PKprqIp6rSjuPsCzqnxU9Tk3VmT+N/HiQrkfVvPD/pi88htnEMuZdqamoJnFUHquf1BF+zjG2Pw4j3Pfl/x+HZZj6lGZcYzgCmFb5snn5PV398vrW6JFNh9/dy46x2rw1z4dJFonJDWw7qy8/cvdp+TS8mWZ/RcjiLfKsVOZR3FpG56Qx01g3PlaVtVK+y+Z6dzp3+ynXnpPPmetA643+txiH1i5KFNbzeK4z8nUN87aB/E175/BGP0+J4+lVJls83u7VY797pTs/ufMc6SfNPXsk88X4ttMjZBWz50/tC2JZ+2aKMvy8e5N8sJr+6KZl3tfs7d7qSfi5B67p871jWW58En6STaPb4wXz00tXvqE/Hzre3J83txKQiw3rr9pgwnpbw7HWc/H5JVpZ/TFuV/JvUi6LjLg6YzsD2nRBbfhsFzw7NfIk1WVkI7ba9noi90Z0Chi5Wx/+f/9f3Lo185z8Mx39tneyQX/47nD8oLzLGl9PtWCSVO/l/d/nQ4s3HMd+t4OrrTlPGJn8Y9mG9gECelkYZSUH+d+WM0Pe+B1QEa63b7TBv9uiY329+uFfbLXBNpPZla2NYt8md8n/fqE7FYzsn77Wnqxvyc35Z//fvuyvYUsdR2r46jHNVqh/YT8fOMmeWX3fv182KjsVpk6vl9+7tT91LajcuHaZTluH233mLjCv5FxR0v8AXZJzDU+LNQtnEbcPiEvfxAlaOy171xbuetTL/S1Iqd3xfvrRJ35vY1mTL6gnv7yTCSm1bWrFsydOrRPXnhpv5z+JH5KTBwfH99m7Ih+q5/a9lH82NjiWyI3mKfTxNfQ4m/fko3PpI+jZqds3JUcS5+7tcty3B3gi9v51Ma35LT39tdxPPeT1abBhLRalOeDbfKUmQJlOm07HSMJMO2IjSkT8mpX8UyOYy64xze+IccuJNnRxnc+ngfJuwsmBL0/d9k+g9Z2RnFH8fGu+P7x7P3kns+vzyyLm21+anP2EViZi0CP5r0mm42g3rBPZleWpUydqUccODYpWxp/7kJ8lTLtOI9BQtqd3hX1Paq/+Th3G4n5YX9Mgu6RRki3w0e4lod+nlK/Xytzsnfjc9KZz/+eL352VPa+9pKo3w8VLE99Ev8GOpkfnRn+LvObZc7hwinZveUXNuOt4oenNr8VX8tr8uN3K3qGl/0Nio8b3QO9Jp/v/ZU88uSm5Fnw6rhrKzJ76CUd99jnTpv6eB2679hzBevms144padSmydi6HNn7p12Zyaa93YmZTxjTK+dYG73ML+3xbPJ7O0fsXi1U8lVH6OmdGev5dt3xa7NtEHNPIkH1Tqe2xmdPucRlUxSj8Aq6nfUKt9ffSR7t5q+JxlIwH8L+uoWX88DC2nlFGq6cNY59NRIc3Fcy/9AZst7P6cemeRMW+73eC0+UVk+qwtz0aN2HHGdLdP985pcmr8oi2r6aiiXtTVZ/GYu9fy84H1D66Bc+PmAVXlWTp+y2u0ZsPbHvlvflTyX8kKXVbjt2gVF6xNwHsufR5i1m5m5vsxvebdrsehcr1yU2fl87DHwb5K6pczYs7Isl4oeWWPKFNnH9nb7KOevmvP3/XK0IG4IT8/v8+p3y3ECyfzezsmlolsC1W2j5taqLy4m17Gq+/vLxfuF2KaP8bXMf5sZfOu174pah+FisnZDr/J8X43f1cixEiE98A9XjQ3G1hLCmfPSugsa/8a/8QF8AB/AB/ABfAAfwAfwgeH7AEIasYhYxAfwAXwAH8AH8AF8AB/AB/ABfAAfKOEDCOkSsBjZGf7IDoxhjA/gA/gAPoAP4AP4AD6AD+ADTfcBhDRCmpEnfAAfwAfwAXwAH8AH8AF8AB/AB/CBEj6AkC4Bq+mjItjHyB0+gA/gA/gAPoAP4AP4AD6AD+ADw/cBhDRCmpEnfAAfwAfwAXwAH8AH8AF8AB/AB/CBEj6AkC4Bi5Gd4Y/swBjG+AA+gA/gA/gAPoAP4AP4AD7QdB9ASCOkGXnCB/ABfAAfwAfwAXwAH8AH8AF8AB8o4QMI6RKwmj4qgn2M3OED+AA+gA/gA/gAPoAP4AP4AD4wfB9ASCOkGXnCB/ABfAAfwAfwAXwAH8AH8AF8AB8o4QMI6RKwGNkZ/sgOjGGMD+AD+AA+gA/gA/gAPoAP4ANN9wGENEKakSd8AB/AB/ABfAAfwAfwAXwAH8AH8IESPoCQLgGr6aMi2MfIHT6AD+AD+AA+gA/gA/gAPoAP4APD9wGENEKakSd8AB/AB/ABfAAfwAfwAXwAH8AH8IESPoCQLgGLkZ3hj+zAGMb4AD6AD+AD+AA+gA/gA/gAPtB0H/AK6Wsrt4R/GOAD+AA+gA/gA/gAPoAP4AP4AD6AD+ADeR/wCmnhDwIQgAAEIAABCEAAAhCAAAQgAAEvAYS0FwsbIQABCEAAAhCAAAQgAAEIQAACfgIIaT8XtkIAAhCAAAQgAAEIQAACEIAABLwEENJeLGyEAAQgAAEIQAACEIAABCAAAQj4CSCk/VzYCgEIQAACEIAABCAAAQhAAAIQ8BJASHuxsBECEIAABCAAAQhAAAIQgAAEIOAngJD2c2ErBCAAAQhAAAIQgAAEIAABCEDASwAh7cXCRghAAAIQgAAEIAABCEAAAhCAgJ8AQtrPha0QgAAEIAABCEAAAhCAAAQgAAEvAYS0FwsbIQABCEAAAhCAAAQgAAEIQAACfgIIaT8XtkIAAhCAAAQgAAEIQAACfRC4fue2/Gnlz3L+6rKca/i/slHZqmzmDwJlCCCky9CiLAQgAAEIQAACEIAABCBQSGDx5g354/WrsvDXVbly66YsNfxf2ahsVTYr2/mDQCgBhHQoKcpBAAIQgAAEIAABCEAAAoUEVFZXCdI2COiswFc2K9vJTBeeXr7IEEBIZ4AM+2Obpro0fSqOzz6m5wzbgzk+BCAAAQhAAAIQ8BNQU6RVdjcrUtvyWdmu2sAfBEIIIKRDKFVUpm1TXdrS6bl2Mj2nImflMBCAAAQgAAEIQKAkAZXQaGM22sSSynbVBv4gEEIAIR1CqYIybZ7qYjqXNr0yPacCp+UQEIAABCAAAQhAoAQBNVuwTfGiz1bVBv4gEEIAIR1CqYIybZ/q4utomr6N6TkVOC6HgAAEIFATgQcr/zX0mqgjHHEdrMKtoWRbCJQT0gtyYGqPbJ/3L0h28sQeWX9mIS/M54/Iuk5HDnmaPCgAACAASURBVCyq/aJjrOvske7/R+Rk4KJnCOm2eNvo7URI13QO2j7Vpemi2Wcf03Nqcu62VXP+oGzZOSNXCuw+13lRdkwveb+9Mr2r8DvvDr6NPer37cI2CEwCgZ/+8JwMW7xRR7gn1cEq3BpKtoXAYEJ6VrZbgXxTCoW0FsSqrBLh3cW4jg8XZ2R9ByHdFh9qk50VC+klmd75ouw/3yYE9dharmPxj8z5xCLburNiVLEe/25VLT2EbFchff6g7Hj+RdnSmRNZmoneq889/t0+UR1f72+hzcn+Hvur47vHUII+fQx7MNHfPX9QziWbeAeBxhNQAvr2qb8RJd6G9Ucd4WTrYBVuDSXbRKBcvJsVwUVCOhLN67ximIx0m/xj3GytTEjr4DAOBt2Ab9yA9duech3LTfnyTEfWTc3Il5lpKHq7M1qXF9LpTsh8n4zqZTut7kJ06ZY6Xu9RPHX87lNqMt8Xtm2PrDsxG7W/aJqOZ1/TzuwrQrpfjx3j/bJCOvO5m5DWVLSAPijnzGtXVNnBxehzUca766GcL7sJaZFq6nCq4y0Ehk5ACWglpNX/sLLS1BF+GutgFW4NJdtEIDTezceNKtZ0Y1gjnlX8eERO2qxyLJxtLFg2ru0V994UYsc2edxoba1ASEfZFC2e4wwNQjp/UkM7lkgIuh2Jc8HH94Ssn9rjFdnd9h22kM4KWP1Zd3rmHhanHc7gQDQwEIvsE7P2Phi1vfC+GNt5+o/p2kJnmPfFid+SEc6S+ZwIaZMp3iXemd79ZKR9+3SZZl50rlJCWtlfMqNddFy2Q6AOAg/v/kUerl2SB9e/kPtL03Jv4T0rok1W+v7iUXlw9T/kwV/+Wx7eXhJ5cLeUadQRjqsOVuHWULLtBMrFu1kRnBbP2917pK2QjmM/e590LKyLki/u9sD4kdix7V5Yn/0VCGnHWIS0AyP9tkzHYkWvI0SzmehoJM+XKfaLcHvMeFGGooUdXBEavS8+Xs9jOPbnj5sWwbp9COm00/CpWgI+wammaKeEtBHP8XTtzkHZ/7wR0uo7Z8q07u+czwHWagGshHOqTols6CKGTQY7mradnkpuvksGABxDsvU4X/EWAqMicO//DqaEs8lEF73eOfv38vDmt6XMpY5wXHWwCreGkm0nUCbeNQuF6XhSx4wqsZIkYJLY9aYsqe+9QlgJ6WQfE2+m9nUSOOb7bq8I6bZ7YX32I6RrYh3csagRtlhQRp3ArF7R0O1YzMVvsrkmc6vKp6ZXnziiF2Iw26Jy+ZE7vV2P7GX3VxnieHTQEblRPR29wIOxxfs6oJA2dudevR1pWpgbe+gMa3LwNlWTFZfqc0bEGnEqosRzLKSXlmRa3d9s7lf2ZZczx3GPu/98JNL1sX02FGSmfQI5lZG27DPTyHW7ygl9eyjeQGDIBO5/969BYvqnP/yjPLzd36NoqCP8JNbBKtwaSraZQHC8q8WtLyOdiOKUGFZxqhv/2c+xkD6jVvLOxLGZzz0TQLHgJnZsswfWaztCuibeYR2LO6XFuVd4akYOZEWy6Rymjsh2NdXbCt3iDLIrpHt1JsnUamNT1LFFItqXCfcI2QAhnRP/ql3xPdJmgMCIYv1qO05PfZ4RRzrDmhy8TdU4ItZmeB0RmxaujpCO22izygUZab/IzQBybNDfZD87xdP2RF8kdUTi2RXshe9V9p0/CDSIwP0r/9ZVTP8097LIvZsDWUwd4fjqYBVuDSXbSiAs3jUxXICQPnFE1scxrxsXJjMZ47hXCWlHaKdEeMnZmMSObfW++u1GSNfEvFTHogVooFjNiccqhLR7DPX+iKj7VKKRvhJ2BQjpSCTHWXI7GGA62MFf6QxrcvA2VZMVrZnPKeFaIJZ1c+PvptUK2l0y0fo7LdSjjHS+7C6Zni5+JFfKnpizHQBwp5qr7+IsOetUtMkhJ9vWexf3FYrpqshQRzjJOliFW0PJNhIoFe/mBK4bf3Z7/JUjwE3MHCdaVOJJJYsiIa1mdaq41Smfi5vzsSaxYxs9bzQ2I6Rr4h7csQSLz/yFH4nSqBPafqIj64KmdidTaGzmN5X1jYR0tJJi1DnZcr06o9C26HJqAbWOrNdiWtVphLv/tVdG3dhIZ1iTg7epmoxwTt8jLaKFayd+zJUSyJlMrvo+efzVQdFC2sloJ9niCIr+7Hyvt/ps6CLGzVRzXbcpl7FLHddbV5vODbZOHIG7X/5ToZAue190ETzqKCKT314Hq3ytbBknAsHxro4hjcCN4r7t81EMe2AxinHTWeX4Pmn9JBmnnIlZzasWzVECSGewVYwZz94kdhwnT2tGWxDSNZ2H0I4lN9VZCUsjNAvEpdsx2P0z2d2kMzKdVpEQz36vOqsoCx3dk119RlpPI59Sj/uKpqm7U3eUIE6m7xTZXLwdIV2Tg7epGp+IdYSuLwOcNM+5Dzk+zjmVkd45o++fVplgI6TVcexn5/jqWLqMFsT93cNs6oju4U4vPpbPeEffGzGetIV3EBg9gTtnN1ghfec/n7Hv1cJj93/4uBIDqSMcYx2swq2hZBsJhMa7Nr7Tsa1J6jgC2ZesMWLZvN4ymecFWYq3HTiR3Iq4/syMbNfTvbOxbXHcqOwidmyj543GZoR0TdzLdCwmm2pftZD2Cdh0xxCJ5RnZ7qx4aI4RKqS1aHXuMck+R1oL9YxIN3XkXrXdpnMs6rQioX5APTfbZKNT9SOka3LRyanGCGn1qqZGm88xgbyQjqZkR9Olk3umjZjVr1ooK5EdZ6h1tlh93iX7O5HQvuIQNnWo1yjjHQn0nNg1Njr7qrem7mSza6PZWnBM8zWvEBgxgYf3bsjt038rP83+g9z/4d+1NepRV/f+d48W1PcuvTuwhdQRjrAOVuHWULKtBELjXX88qWLC4tmPZh/zGiWa4jjTiutZLZ7VFG+dmFHbT8zohXvdxFMuZnWEO0K6rd5Xv90I6ZqYh3Ys3gs7UEhH+yajebqjcbLYUaY3Et+plQ2NcFWdTU6ER0L3pO1g4v1DxHSAkNbZ6DMLmayzx0anHeviDLmXlbUzEu50hjU5eFuqie8h1llbMzW6l5B275N2hK0Rw5GQPij7dzoZ6M6MFtHq+dOJ0DaQEjEuEolt/Zzq3P3NPnEcHSMrpLUgN1O+9X3T0b7ZaenGAl4h0AQCD1bPi1rgyvennjN993/e8H1Vaht1hOOqg1W4NZRsK4GB4l0zCzEV87m3+KWTSiaG1PGgFdJR/Kdi4PVnzJNv1DHS+3aLIYkd2+p99duNkK6JebmOxRWSR+Rkn0La7SSiDmVBUs/sc0WnriMevXO368dfZTufaMTQXR3Rrcu+DxDSJ09Ex+42fbvbd7aulM1J9pvOsCYHb0M1WgSbZ0I7Bjvi2Nlq37pCOBGwiRhOvlfb3Iy089mZ2p2Ut1Ukb5QtNpv9ouQy1HHJxI5kV/MuL6rNN7xCAAIQgAAEhkugXLybxGu94rk6vyd2HK6PjNPRqxXS40Sm4raEdSxGQGemQ8ciN5VFdkbr0lNVkoy02+n0EtKFYrWHiE8eu+XpDAOEtLGxsH4zOhmSAfeIaTrDih15TA+XFp/Ze46N+E6mSrti2H2v8GRFbuqzzjqb48UwtZDP1un53Jlz7q2Ost96oTSbiY72Sa/YHWemzbOvx/T80SwIQAACEGgGgfNXl+WKJx4z8V7TX5Xtqg38QSCEAEI6hFIFZcKEtEeMqs6oh5g1QjqZyp3NIDuLMQQ9AiDOOMdiPbv4V7YT1CLYEfZFgj+73T2uK6STdrjTeTLvzXT0Hp01QroC5+UQEQE79ToS1EawFglpvT0WuVHZ9H5ghQAEIAABCIwbgT+t/FkW/roq2VixLZ+V7aoN/EEghABCOoRSBWUGEtI9xGJbOqdR2ImQrsB5OQQEIAABCEAAAhAIIHD9zm354/WrrcxKq2y0sl21gT8IhBBASIdQqqBM26e6jEIED1on03MqcFwOAQEIQAACEIAABEoQWLx5QwtSld1twzRvZaOyVYloZTt/EAglgJAOJTVgubZPdRlU1I5if6bnDOi07A4BCEAAAhCAAAT6IKCyuir2VYkkNTuwyf/KRmUrmeg+TvSE74KQrskB2jzVZRQieNA6mZ5Tk2NTDQQgAAEIQAACEIAABCaQAEK6xpPetqkug4rZUezP9JwaHZqqIAABCEAAAhCAAAQgMKEEENI1n/g2TXVp8jScItuYnlOzQ1MdBCAAAQhAAAIQgAAEJpAAQnoCTzpNhgAEIAABCEAAAhCAAAQgAIH+CSCk+2fHnhCAAAQgAAEIQAACEIAABCAwgQQQ0hN40mkyBCAAAQhAAAIQgAAEIAABCPRPACHdPzv2hAAEIAABCEAAAhCAAAQgAIEJJICQnsCTTpMhAAEIQAACEIAABCAAAQhAoH8CCOn+2bEnBCAAAQhAAAIQgAAEIAABCEwgAYT0BJ50mgwBCEAAAhCAAAQgAAEIQAAC/RNASPfPjj0hAAEIQAACEIAABCAAAQhAYAIJIKQn8KTTZAhAAAIQgAAEIAABCEAAAhDonwBCun927AkBCEAAAhCAAAQgAAEIQAACE0gAIT2BJ50mQwACEIAABCAAAQhAAAIQgED/BLxC+trKLeEfBvgAPoAP4AP4AD6AD+AD+AA+gA/gA/hA3ge8Qrp/Xc6eEIAABCAAAQhAAAIQgAAEIACB8SaAkB7v80vrIAABCEAAAhCAAAQgAAEIQKBiAgjpioFyOAhAAAIQgAAEIAABCEAAAhAYbwII6fE+v7QOAhCAAAQgAAEIQAACEIAABComgJCuGCiHgwAEIAABCEAAAhCAAAQgAIHxJoCQHu/zS+sgAAEIQAACEIAABCAAAQhAoGICCOmKgXI4CEAAAhCAAAQgAAEIQAACEBhvAgjp8T6/tA4CEIAABCAAAQhAAAIQgAAEKiaAkK4YKIeDAAQgAAEIQAACEIAABCAAgfEmgJAe7/NL6yAAAQhAAAIQgAAEIAABCECgYgII6YqBcjgIQAACEIAABCAAAQhMMoHrd27Ln1b+LOevLsu5Mf5X7VPtVO3lb/IIIKQn75zTYghAAAIQgAAEIAABCAyFwOLNG/LH61dl4a+rcuXWTVka43/VPtVO1V7Vbv4miwBCerLON62FAAQgAAEIQAACEIDAUAiozKwSleMuoLODA6q9qt1kpofiVo09KEK65lMzKVNdBpnGwzSZmp2S6iAAAQhAAAIQgEAFBNQ0Z5WhzQrNSfis2q3az9/kEEBI13iuJ2mqyyAdJtNkanRKqoIABCAAAQhAAAIVEVDJkEnLRpuYV7VbtZ+/ySGAkK7pXE/qVBfTufTzyjSZmpyTaiAAAQhAAAIQgEAFBNSMxH5ivnHZR7Wfv8khgJCu6VxP8lSXQTpHpsnU5KBUAwEIQGDEBB6s/NfQLaCOcMR1sAq3hpJtIRAqpE+e2CPrOs7/1Ix8eeum5La7ZU7MdhXpat/1Zxa6ljEx6ZdnOrKuc0RO5hZCm5XtnT2yfb6/RdIQ0m3x1GrsREhXw7HnUSZ5qovptPp5ZZpMT9eiwMgJLMn0zhdlx/RSuCXnD8qW53eJb5cr07tky84ZuRJ+tEaV1PY/f1DO9bBKl+vM9ShV8PXSjOzod9+CQ7J59AR++sNzMmzxRh3h57kOVuHWULItBEKFdComnD8i6xwh7RPDWvhWJaQXZ2S9K9DN+xOzEglsR+A736VszgnwSHgjpNviqdXYWYmQjgKnF2XL8+a/dxBVjfntOUpfHUvBRRpyIY9TGTql9vh5oy1V4sv2UaavSr/un/aX2X++W8vKCumo/BavEAw4lhbhabuTvte/3bU/31/790kf0xH9vvqt8J+T/c+HDSpkhXRPu2wd6lxkOcVMu53f1P7dziffjYKAEtC3T/2NKPE2rD/qCCdbB6twayjZJgJ9xbulhXSUNU5ltI3g9b66meck45zLSmuBrcpGZXyCvld8TczaJm8d3NbBhbQOTtPC+VxHBWZO4DW4na0/Ql8diyOky0xXURd52fJmn/BOaY8dPXQ7FTuS121UT3Vy8ciju2/Rezql1rt/4xqgRJvKIJvXYgMjYWiEaE+x5xFyZl9TR/ExDso5n0iNj9k9463sDOtzdf1eEW8szLzqPt45trLRFaXO56jv9wlzZ//48KXtyJgl8cBIxDcS0lnWdhfHRruNN40ioAS0EtLqf1hZaeoIP+V1sAq3hpJtIhAc7yrx7IpeJyOd2u6WsRlpJXRdcRxlg72xrxXHBWXU907dyZTuBTkwVX6KNzFrm7x1cFsHF9JeG8KzEt7dx3BjcMfiiGdXWHo7h4KyS7rT6MiBxf7u73DrDTmWFc+qs7Od3E09PcY7mueMPKbqKmgPndIYXhAjbpIScX0L6ZwIzWZHTePSIlxvjcWfFsVaNLsCMykfie30AKU5qv+1AUJat+fFtMgW0YMVifAuyBy7wtzfQO/WRIwjpL2AGrrx4d2/yMO1S/Lg+hdyf2la7i28Z0W0yUrfXzwqD67+hzz4y3/Lw9tLIg/ulmoNdYTjqoNVuDWUbDuB4HjXjQXd904sWBz79i+kbdyZEdhLWWHvCniSP213y6HZj5AeGtr0gYM7lng6SeFonHth6/f5EbmUsM2Vz9730UNwlxDlul6EdPrE86lRBIozpiqL6hOuibhVDUmEm9usUCHtK6eOH9erhKgr0j2zfdxaU+9LlE23IWpfehp3nFE2tuhjO4I/m93Vnw/K/vg+ccXYZs+1uHb2dYzW5yJVhy+Tnd5mj+scJ3qLkM4hafCGe/93MCWcTSa66PXO2b+Xhze/LdUi6gjHVQercGso2XYCofFuNmbUArebmI3j2ShjHE297idW9sbISigXiHktsBHSbXfLodk/HCEdZ10Kp9kNrTnNPXBox7KkhXReHHtH5bKjaXoUL+pckqkpA2alBxTShZ0cnVJznXWMLTMiT4nJVEa6UIhWKaQdsFlxKl0ErZrabQSnc4jU26y4TX2Z/pAX0nmhmyqTtVWL47TATTLOqq6oLTt27tLrZvh/B+L2FrZLfZ+3y9wbbYR/cmyEdPosN//T/e/+NUhM//SHf5SHt/t7nAx1hPtBHazCraFkmwmExrtK0OZmLWbEbDr2dadaD56RjgS1E293E/HErG12yaHaPgQhbQJCX3ZnqG1p9MFDO5ZBhbTqdNT9xyf1sv7Z7HP2s9OBOFNp7LQXtS1ASOs6s5nv+B7pXCepjpnpKFP1eexQ7PiDQBUEegtp03+lhaIRbFpgeu6DNsLO92r2Vfb791eCsUg4iriZW//+aVt9NqhtJpubEsla9OYFa6qMT0jrqdjFNid2+n8H7Pc7d+kF4FxG0XkuPnb0fVY4Zz9nvKXEQENmTz4OkcD9K//WVUz/NPeyyL2bA1lAHeH46mAVbg0l20ogNN7NxY5qRmMmPhyekE5ntHXyKVO3jU2LtnviVbUPMWtbPbc/u6sV0jrgUkFdPjDrz7zx2Su0Y4mEdFbwdvvsiGF1sXsWX7CdQcFF3/X7ACEd7R+NFLr3SHc9bglb6JTG5zoYdUuMkFavSrwpQacFpu67lOjLCjj1OSqrbE8JTNuYSMQZoWo3x5nZvEg0gtrtJ7P1JkdxhXSy1X1XVL9bJnmfboO/3lSZrJC2h/Lsa7LV8T3P+jhq4CF1D7Ta76BMm8d86X0Me8M6Oba//VnhHH0uGkTQ21M22EbwZsQE7l3cVyimqzKNOsJJ1sEq3BpKtpFAeLybzJi007x1HNst5jWLfw2WkdYC/cQRWa9iZhPnnsksfuYmiMhIt9EVa7G5MiGtgx2dqfFnIGppTYMrCe9Y+u8cvjxzRA7MFzwbz+0Q9Pse90YboWs6mF4Ll+lyKhvekfX6Pun0aJ9vinfo9HOEdIMdu2WmqX5qx/RM+r5km2E2Ys4VuOkGpgSm/apIyCoxaIShLWwf3ZQecIzKFgrBwinQImKFaJHQd+vOlkkEq1sq1c6skLbZXcfmndE90mnBnBwx+n2IuEbnIFoxPTVl3WlHND08Pg96e/ac+IW0b9BCW2FtTmziXTMI3P3ynwqFdNn7ootaRB1FZPLb62CVr5Ut40QgPN5NC2k9gzGT/U1npG/Kl4sLEiVpeseY6bgzk3RSwljHrZ7tJv41rxmbeiWJiFnHyZt7t6USIW1EdD4j09uASSkR3rH0L6R7XdzJ96qOaoW0vtdlqiPrpo7I9qk9ufte7Gij6ZhKvNIpTcpVMvx2mr4qJeBUtYUZ6bRNKYFpvyoppLUwdKZja5HsF7SqCm1zoZBO1+23zxqq36TLOGLYDijEtpk6uwppV+B2OZbNBit7o8HWtB3pdqSEdO6Z0aoZUflC4ZxuMp8aTODO2Q1WSN/5z2fse7Xw2P0fPq7EcuoIx1gHq3BrKNlGAuHxbiKks4LZxKup7TpbbWLXErFyHG+aOPTkifgYCOk2ulfjbB5cSMdBIQFN93Mb3rGU6ByynUCwOK1aSEc2H1D3ZZtsdGYajOnATOdY5hUh3d23+DacgMmG5vboKqSVQHTEX1Zw9vic7htjwdg5KDv0LTCR+Nx/vosIVcc3ojZjuBbZVqRms81JYVeMpwWsqtcVw9E+qTIlhXS6vXHG3LHRWJWqI5d1Ttuly5rVzfUBXCG9JNOdGbmititbnbrUfgzwGuLNe31474bcPv238tPsP8j9H/5dG6gedXXvf/doQX3v0rsDG00d4QjrYBVuDSXbSiA83jVC2l1EzGyLXpWQTmeW84kaN55MCe9UTOypIxtDd5tWnolp3Tqz74lZ2+q5/dk9sJDOBnL9mTH+e4V3LEqU5juObEeSfHampaQ6jXRnlL7QnQ6l15QV3dGYEUD/MXU2+syCfm50co90fM90YVvC7aZTGv/ro64W6v6qUPgWTe1ORF1K/Fmjs9lU+0X0xor0WOgqoZcVp7l7s5NjuCI42RrVmZ1K7bcvymobQVlUJjl25l3WVjtNOuES7aE+e6ay2/Lp4yZ2xG1JDRb0OnYspKdn9GJl0UBDVP+OzlwkqnV18bbppXTlfGoEgQer50UtcOX7U8+Zvvs/b/i+KrWNOsJx1cEq3BpKtpVAcLzrClctVAviRuexqnoB3G6iVsesBTF0dj+fkM6WUXF1rzg5E3sTs7bVc/uzuxoh3TUw7c+wcdsruGMp8/ir+OLtJ9trR+16dRABQvrkiUgUd7Oj23dpkZ8X63RK43Y1jK49SpQaQZmywordrIBzp32n9kh9KDyuWaBMZ0mV+Isy29FUcjcT7Kk3riEnpLWt/iy1FqdORjY6RCw6z0efEgGbakLxhwIhfU4tFmb7ftWWSLSWzkhnj68s8WxLc4jqUvVH9UWfi89twXkvbjXfQAACEIBAHwTC4918vNcrHmzD98SsfThNi3cZWEi3uO21mj5ox2KFb2bka+mWk13OfVfcSWlhOzUjB9S0GXe0L3uMACFtOrZuYrnbd2b/olc6pVpddawr02LMij/nPmW9zWSkjTiLUPjFaQZTfItLIizTx86Jy5xQTISh9xhxtlbb4pmKnVhTcBxHXEfHSNvnrTPFKRb92u5o37xoLahbHcep39jqE/Sp85PKUJu94lcl2neagYguItrsFtudOw/me14hAAEIQKASAuevLsuVbCw5IZ9Vu1X7+ZscAgjpms71oEI6ep5z4HSVoA7LTKGJpm1roVs4Dbug3k76XhVXLPvua0mmo8fH802h8diOkK7JSSegGiXU8gLQZECL74OuXIB5hbQRhukTkc7Epr/r55NPwHY9Ts7WotKRoM2xKpjaXXSUstsLz2n2QEO2I1sdnyEAAQhMIoE/rfxZFv66Gq+uXZzQKUqetHm7ardqP3+TQwAhXdO5HlhIewRmmzubMrYjpGtyUqqBAAQgAAEIQAACAxC4fue2/PH61YnLSqtstGq3aj9/k0MAIV3TuZ7kqS5lRHO2LNNkanJQqoEABCAAAQhAAAIVEFi8eUOLSpWhHfdp3qp9qp1KRKt28zdZBBDSNZ3vSZ7qkhXHZT4zTaYmB6UaCEAAAhCAAAQgUBEBlZlVsa9KJKmZheP6r9qn2kkmuiLHadlhENI1nbBJnepSRjRnyzJNpibnpBoIQAACEIAABCAAAQhAoBQBhHQpXIMVnqSpLllRXOYz02QG8zP2hgAEIAABCEAAAhCAAASGSwAhPVy+uaNPylSXQabwME0m5zZsgAAEIAABCEAAAhCAAAQaRAAh3aCTgSkQgAAEIAABCEAAAhCAAAQg0HwCCOnmnyMshAAEIAABCEAAAhCAAAQgAIEGEUBIN+hkYAoEIAABCEAAAhCAAAQgAAEINJ8AQrr55wgLIQABCEAAAhCAAAQgAAEIQKBBBBDSDToZmAIBCEAAAhCAAAQgAAEIQAACzSeAkG7+OcJCCEAAAhCAAAQgAAEIQAACEGgQAYR0g04GpkAAAhCAAAQgAAEIQAACEIBA8wkgpJt/jrAQAhCAAAQgAAEIQAACEIAABBpEACHdoJOBKRCAAAQgAAEIQAACEIAABCDQfAII6eafIyyEAAQgAAEIQAACEIAABCAAgQYRQEg36GRgCgQgAAEIQAACEIAABCAAAQg0n4BXSF9buSX8wwAfwAfwAXwAH8AH8AF8AB/AB/ABfAAfyPuAV0g3X/9jIQQgAAEIQAACEIAABCAAAQhAYDQEENKj4U6tEIAABCAAAQhAAAIQgAAEINBSAgjplp44zIYABCAAAQhAAAIQgAAEIACB0RBASI+GO7VCAAIQgAAEIAABCEAAAhCAQEsJIKRbeuIwGwIQgAAEIAABCEAAAhCAAARGQwAhPRru1AoBCEAAAhCAAAQgAAEIQAACLSWAkG7picNsCEAAAhCAAAQgAAEIQAACEBgNAYT0aLhTKwQgAAEIQAACEIAABCAAAQi0lABCuqUnDrMhAAEIQAACEIAAvl3CSQAAIABJREFUBCAAAQhAYDQEENKj4U6tEIAABCAAAQhAAAIQgAAEINBSAgjplp44zIYABCAAAQhAAAIQgEATCVy/c1v+tPJnOX91Wc6N8b9qn2qnai9/k0cAIT1555wWQwACEIAABCAAAQhAYCgEFm/ekD9evyoLf12VK7duytIY/6v2qXaq9qp28zdZBBDSk3W+aS0EIAABCEAAAhCAAASGQkBlZpWoHHcBnR0cUO1V7SYzPRS3auxBEdI1n5pJmeoyyDQepsnU7JRUBwEIQAACEIAABCogoKY5qwxtVmhOwmfVbtV+/iaHAEK6xnM9SVNdBukwmSZTo1NSFQQgAAEIQAACEKiIgEqGTFo22sS8qt2q/fxNDgGEdE3nelKnupjOpZ9XpsnU5JxUAwEIQAACEIAABCogoGYk9hPzjcs+qv38TQ4BhHRN53qSp7oM0jkyTaYmB6UaCEAAAiMm8GDlv4ZuAXWEI66DVbg1lGwLgX6F9JdnOrJuaka+HGBhMn2ME7NBQv7kiT2yzpSdPyLrOnuK/025ANsQ0m3x1GrsREhXw7HnUSZ5qssgQpppMj1diwIVEDjXeVG2dOYqOFLIIeZk//O7ZHopU/b8Qdmyc0auqM1LM7Lj+YNyLlOk28cr07sqakOBfd0q5zsIVEDgpz88J8MWb9QRfqLqYBVuDSXbQqBfIa1ixZS4DRCt+fhyVrZ39sj6Mws9xPSCfLm4IAemHDFdUF8Zca7sQUi3xVOrsbMaIa2Dvhdly/PxvwkGq7FxLI4ySMeS7yjG+1EC2fbSKY3FJdDsRsR92P7zvcxckumdTl9n+rxur7n+sECo1iSk9aBBgb07tLovsK8XGr6HwAAElIC+fepvRIm3Yf1RRzjZOliFW0PJNhEYLN6NxG1vIazi4Eg0d80kO1lm95hKsLufs3Gn+xkh3Sbvq9/WCoT0nOxPBYoqCHsxyazU36ZG1li2Y0mNyg045UR3Ap2OHFjsLsB1nU6n07Nz8kzBieqKRvjse98xPfu6HZf7HiHdSJduoVF9iOBYcEYCs7jJ5bLBBUK1CiGd6osje891PNnvTFO0/TZLXmBfZh8+QqBKAkpAKyGt/oeVlaaO8DNWB6twayjZJgJl41033lPvo9jxiJwsyBAn5ZWQ7h3bmmO6whkh3SaParatFQjpfAOjoKzctMT8UcZrS7mOpc8pJ70Et0/Q9uqEFmdkfY8yKcHs3Eeitrsdl+38lJ0I6fFy8Fa0JhLSSdY5FtapKd3xNkeQqgxuNULaI+R3HpT9bobb1Jud5fP8i5LY7YedFsNRGZN97mq/EvDPu21ESPsJs7UqAg/v/kUerl2SB9e/kPtL03Jv4T0rok1W+v7iUXlw9T/kwV/+Wx7eXhJ5cLdU9dQRjqsOVuHWULLtBMrFu9kETzzdOmh6NkK67b4yDvYjpGs6i2U6lr5HyjICVQvclGCNOyi7LaATChDSRiDr+hDSNXkU1fRLwIhLJR6tONVi0hn8i8VlWmAW1xgitpO9C4RqSEbascveShPfSx0J6eRe76idPbLRRrCnBhMK7EsawDsIDETg3v8dTAlnk4kuer1z9u/l4c1vS9VJHeG46mAVbg0l206gTLxr4kf7amLOeZXE6ZWVDohh46x2NrHTd5zdM0vOPdJt99+y9lcvpIPvNSxrarvLl+lYBrrAdScUrzyoRO2iym5nsspO5nr7fHY0MPM5u2+XTsQnpAunh1sxn6nPc3zFjj8IDEzAiNCUaFRHzWaq0zVpQWoyxemv4k/d98/vUiBUQ4R09mDOPlpI79wlO57fJTt0lruHiBYR/+yhAvuydfMZAgMQuP/dvwaJ6Z/+8I/y8HZ/vwHUEX6C6mAVbg0l20ygTLxrBXQc+6n416yk3TsWVkK6y0rbme/cGZK9j53EptnYNmtz9jMxa5u9t7zt1QhpE6Dq+wmdrE55e8Z2jzIdS78XuO6APNOwi48XsGJhgJCO6s10Zidm9X0ubsdlO5tM5txu94ho9R2d0theFiNomGd6dcHCWzbja4W3EpglFxqz5d1+0QjVJZnuxKt0KxKOKA5dtdvNhGtR3JmTKBPt1leMOb2PWdvC2Fe8H99AoAoC96/8W1cx/dPcyyL3bg5UFXWE46uDVbg1lGwrgTLxbir+y8ab2c+5GFEJ6V5Z60gQk5Fuqzc13+5qhHSqnXGw2TWDk9phIj6U6ViKhW8yQmY6n9xImZNtLswGO6N01WWkA0R5rhPMt8e0y31FSE/EJVJTI7PZ46i/slO8M1YYoZnZnP6oBxLDhGu0Y9xH6sW9MsLe9JtmyrVXiMfV6zJJ1tnaGjArSJe1x3amuOtDI6TTJ5hPwyRw7+K+QjFdVb3UEU6yDlbh1lCyjQTKxLtJrOePIXMxrhtHaqEdJqSTeqK4c6A427XB856YtY1e27/NQxDS5hmo2eCsfyPHYc8yHctAF3gm26uzxc59y0lnEnValQlp3aHtkXVTHVmv6+s95aZn3XEHRac0DldAU9rgCOmcWE1nm5W4tuK00PzoeMGPjbJ1JgLYHrpkRlpnnm22PG1rJJQ94j6ePWQWH/O3DyFtzwlvhk7g7pf/VCiky94XXWQsdRSRyW+vg1W+VraME4Ey8a6JSbVg9t7yF8WqhbMbvfFt7yTNQHG2RzybdqhXYtZx8ubebRmOkJYo42KCtd5mjH+JMh3LQBe4I6S1iHayz26Gevt8tUJaT5uZ6si6qSOyfSr/fL6uo4p0SuN/ATSmhbGQnp6RHXqxsTgj7AhS955ov9B0GpPKRvcSoGYqd0G5MkJa15sW42lb43aZDLdjsvs2vY/5xmNfJvttSvIKgUEJ3Dm7wQrpO//5jH2vFh67/8PHgx5e708d4RjrYBVuDSXbSKBMvKuEp44Pu03RjhM16eRLF4HdI6ZUdQ4UZ/c4PkK6jV7bv83DEdIBUwv7N7mde5bpWAa6wLWQjsSsWrAh3UFFHU+0kEOVQjq6T+XAmU68SMSsbM+MLCKk2+m342d1LKTPZ1oWZ2pTK3mbxbgckZ3aK9fPeQSo2iEnQgvKhQrpuN7sQGVeFKt6klW8U7bHH/L7qC889mk+ngy376Bsg0AggYf3bsjt038rP83+g9z/4d/1XupRV/f+d48W1PcuvRt4pOJi1FHMJvtNHayydfJ5/AiUjXfXdRPRRrTGYtpmpvVtjP1N60ZIj5/PjbJFAwtpFYil7y+Mg7cemZBRNnoUdZftWGxnYTqRgtecQHUy0nqkb3FBlm4l06yTEb3qhLSyQdmbtiUW7QUZ8aCOM24zo3uj8NhxrdMI6bifMvcJW7EcZ3LjR2P5hWa8MJj7+CyNyyNA1XYtfF0RmpTTxzc2qFfTb8Zi2S54ZgSx2W7tTc6T39bu/XHxPulst14ILX7MVlIj7yAwGIEHq+dFLXDl+1PPmb77P2/4viq1jTrCcdXBKtwaSraVQGi8q2dNZpIuKm4t/o9j2ROzOqOcxLPd9vF/1ythpW2z8WtHDiz6j+OzlZi1rZ7bn90DC2lVbbRKbHJ/YTZT0p9p47VXaMeiLspeF7h74abF601ZioX0SZUdtp1AMmoXdQ6qU6hOSJ88ER0/Z4vTIXb7zm2P7z2d0nhdC6NtjRHSYVb4hGbU32WEpj5cJFrTA4uZ1bhtOc/+ARlpbY8R25kmKLv8fW88OOAR37otue2J0DdV6HIF9ZoyvEIAAhCAAATKxLu+mK/t24hZJ+saqERITxay/lpbpmMZWEhbAZ15JJVne88RPT2dJmw0rptY7vZdr06TTqk/n2MvH4Ek45zK9rpZ4ex7KzTj7K79nD++FrrZ/UMz1wFCOltjJOrNIKab9c6WdD7radpmH4+gN1PaU+3wl3OOylsIQAACEICAnL+6LFecREqvGG+cvlftVu3nb3IIIKRrOtdVCumuU04yU7uLO6h0RloLXY/QTrLaflHuTkF3xXLaRv++6wKn9CCka3LSiahm8Ix0/5gcEe/L7vYhpPu3hT0hAAEIQAAC1RP408qfZeGvq12maIdPky6OYZt5DNVu1X7+JocAQrqmc11GSLet4xi2vQjpmpyUaiAAAQhAAAIQgMAABK7fuS1/vH514rLSKhut2q3az9/kEEBI13SuJ3mqyyBCm2kyNTko1UAAAhCAAAQgAIEKCCzevKFFpcrQjvs0b9U+1U4lolW7+ZssAgjpms73JE91GURIM02mJgelGghAAAIQgAAEIFARAZWZVbGvSiSpmYXj+q/ap9pJJroix2nZYRDSNZ2wSZ3qMoiIZppMTc5JNRCAAAQgAAEIQAACEIBAKQII6VK4Bis8SVNdBhXQTJMZzNfYGwIQgAAEIAABCEAAAhAYHgGE9PDYeo88KVNdBpnCwzQZr+uwEQIQgAAEIAABCEAAAhBoCAGEdENOBGZAAAIQgAAEIAABCEAAAhCAQDsIIKTbcZ6wEgIQgAAEIAABCEAAAhCAAAQaQgAh3ZATgRkQgAAEIAABCEAAAhCAAAQg0A4CCOl2nCeshAAEIAABCEAAAhCAAAQgAIGGEEBIN+REYAYEIAABCEAAAhCAAAQgAAEItIMAQrod5wkrIQABCEAAAhCAAAQgAAEIQKAhBBDSDTkRmAEBCEAAAhCAAAQgAAEIQAAC7SCAkG7HecJKCEAAAhCAAAQgAAEIQAACEGgIAYR0Q04EZkAAAhCAAAQgAAEIQAACEIBAOwggpNtxnrASAhCAAAQgAAEIQAACEIAABBpCACHdkBOBGRCAAAQgAAEIQAACEIAABCDQDgJeIX1t5ZbwDwN8AB/AB/ABfAAfwAfwAXwAH8AH8AF8IO8DXiHdjjEArIQABCAAAQhAAAIQgAAEIAABCNRPACFdP3NqhAAEIAABCEAAAhCAAAQgAIEWE0BIt/jkYToEIAABCEAAAhCAAAQgAAEI1E8AIV0/c2qEAAQgAAEIQAACEIAABCAAgRYTQEi3+ORhOgQgAAEIQAACEIAABCAAAQjUTwAhXT9zaoQABCAAAQhAAAIQgAAEIACBFhNASLf45GE6BCAAAQhAAAIQgAAEIAABCNRPACFdP3NqhAAEIAABCEAAAhCAAAQgAIEWE0BIt/jkYToEIAABCEAAAhCAAAQgAAEI1E8AIV0/c2qEAAQgAAEIQAACEIAABCAAgRYTQEi3+ORhOgQgAAEIQAACEIAABJpG4Pqd2/KnlT/L+avLcq7h/8pGZauymT8IlCGAkC5Di7IQgAAEIAABCEAAAhCAQCGBxZs35I/Xr8rCX1flyq2bstTwf2WjslXZrGznDwKhBBDSoaQoBwEIQAACEIAABCAAAQgUElBZXSVI2yCgswJf2axsJzNdeHr5IkMAIZ0BMuyPbZrqMqqpOEyxGbYXcnwIQAACEIAABCBQPQE1RVpld7MitS2fle2qDfxBIIQAQjqEUkVl2jbVZVSdHlNsKnI4DgMBCEAAAhCAAARqJKCSIW3MRpuYV9mu2sAfBEIIIKRDKFVQps1TXUznUvcrU2wqcDwOAQEIQAACEIAABGoioGYz1h0vVl2fagN/EAghgJAOoVRBmbZPdam6kwo9HlNsKnA+DgEBCECgBQQerPzX0K2kjnDEdbAKt4aSbSFQTkgvyIGpPbJ93r8g2ckTe2T9mYW+hPkg+yKk2+Jto7cTIV3TOWj7VJdQ4Vt1OabY1OSgk1TN+YOyZeeMXClo87nOi7Jjeqng296br0zvki2dud4F3RJLM7Lj+V1Sptqu9ejjHZRzbh28h0DDCfz0h+dk2OKNOsKdoA5W4dZQsi0EBhPSs7K905EDi5GwLhLDX57pyLrOnsx/st/SLSXQ3c9+oV4UsyKk2+Jto7ezeiGtA7gXyweSo2cxVAvKdSzlLviijmBcttOhDdU1J+/gfQvpJZne+aJseT77nxas/QpxtV83gZ89UQjpLBE+t5mAEtC3T/2NKPE2rD/qCCdbB6twayjZJgLl4t1sRrpISKvtSjgfkZPuo7QWZ2T91Ix8GW/zC2wjuMOFNXFnmzxutLZWLKSdQLNsRma0HIZe+2AdS1pYlxuhMx1I8auZNqOOmx/h67LN6byMaLed2IlZse9zo4Z7ZJ1nX3OM7Csd2tDdc7IqyArpzOcQIZwVsfpzTmA7gtv0h2agsVtZ33dxBr1rPaYOdTbJSE+WT49Ba5WAVkJa/Q8rK00d4Y5SB6twayjZJgKh8W4+5lQi2RXSRjyrOPSInFSiOSOkVZxpYlg3diza7pbp9p64s00eN1pbqxXSKiB9fpfsUFkbN6gbbRsbUXtoxxJd2KEjdGmBXdQpFAnvovKp7brj6j6KlxLMJ2btvSyFHdn8EYR0I7xyQo3ICGfJfE6E9Jzs16I2O+U6GjDcf97DL3OsXIl+BG7BMbNiPhLPjnjPCPJBpqvn2sEGCAxA4OHdv8jDtUvy4PoXcn9pWu4tvGdFtMlK3188Kg+u/oc8+Mt/y8PbSyIP7paqkTrCcdXBKtwaSradwODxrkngHJHt7j3SOSGthLaboXaFtzlG5jUwiYOQbrsX1md/hUI6Cjr3n4+z0gjp1FkcvGNJxGwijE2n4XYkGXGd63gy37tTZHzvA4S0Ed5aUCOkU+edDw0ioARpRlzqAb+UUDXiORaknYOyP3vvchcxnIjwgnbn9o36S1fk6inebv+Zsi85bk5IJ1+RkXZZ8L5xBO7938GUcDaZ6KLXO2f/Xh7e/LZUO6gjHFcdrMKtoWTbCfQd7+p4UwlfX7x7U5bU944QTiVxOs6iZCpZ48SiJkYt84qQbrsX1md/ZUJaB396+iFC2nf6QjuWwaa6RJnsQadnpzqbAYV0oS1OZ5iqzyPm6dB8HsW2vglkhalHYCfCVgnrdEY6J3S1OC7OBBvxns1gm2naSV2qRUtyZUlE16FEvyuo1dceW73Hzwn2vmmxIwSGQuD+d/8aJKZ/+sM/ysPb/T2KhjrCT10drMKtoWSbCYTGu1HsV2IGpjub0YjuWDC7MyBVHF20CniveNN8T9zZZg+s1/ZKhHQUEJoFdxDSvlM4eMdipqd0m+qS6ZDcTkcL1F7fe7LVAUI6L/736NFAt2MznZN+zdnlqdcR1HRoPo9iW98EHCFtxKy7yJcSsYm4zQhpj2i2ZdVxs8LXY6SvTk8xLarN4mZZEe4t30Vku+3z7stGCIyAwP0r/9ZVTP8097LIvZsDWUYd4fjqYBVuDSXbSmDweDeTkT5xRNbHa+2Y+6FPnujI9hMdm3lO4k0zU9PEzM4rCZy2ulSj7R5cSMeBZRLoIaR9Z7zvjsWMugVNdekllHt97xG0AUI6EsnRsQedTpMS3LGYRkj7PIptfRNwhLQ+RuZzSkinMrtx3/b8ixL1d9HnSEhH75N+0Ged2d8MOvrKeLZpgRxnxT1CPslIu/Ykx9HCPUDgJ3vwDgL1Ebh3cV+hmK7KCuoIJ1kHq3BrKNlGAn3HuzrmU0I4I6QLniOtp3Z7MtK5ODKOo8tkqYk72+h5o7F5QCEd3U9oMzK6DXGwSOCWOqND61hS2V2PUPasmG07k9S+HhGtOrVQIW0E/1RH1uuOrcuoYGyTtcPJPuc6wFs3hQ4t5Up8GJRARjh7FxvrHJQd5n5q05cpEbvzoOzf6RPSmXurzb7xa1Zg26nbmXJGFLuvqX1Twt6AiOpW5bRoTj0jO0Tgm+PwCoH6Cdz98p8KhXTZ+6KLrKeOIjL57XWwytfKlnEi0F+8G8WM2+d7CGkda0brAvmFdCap04eIVnEocec4eeRw2zKQkLZTFLsEg2mRPdzGNPno/XUsRtx6OhbPVJfoAfTOvSE5oewR2r2mugQKaT2tZqoj66aOyPYpZ9GHWCS7HZ5PLHfbRofWZM9uoW0hQnp6qaBhrjD1Z4DdHSPBHJKB7n0sfdyuGWlVIhHV6hPZaPds8L6JBO6c3WCF9J3/fMa+VwuP3f/h40pMpo5wjHWwCreGkm0kUCbe1bGhTq6YLHQ63s3Fhk5cm+wbTd82077VPu4th6FJG7cu4s42et5obB5ISPtNjgLCkHsF/fuP59YyHUtOEKeeqxd1EG6HkVz8HqFcS0ZadXxH5MAZc7/KrGzPCHSE9Hj6dStbZYS0njJ9UM6Zz3FjUlO79TZXnIYL6WigMb1QWTGvQCHtPYBrXyyenz8o57zZa+8B2AiBkRB4eO+G3D79t/LT7D/I/R/+XdugHnV173/3aEF979K7A9tFHeEI62AVbg0l20ogNN7VYje3uraKJ52EUGbGoruPG1eq9/m4ODqWuwp4Ei+bRJX/FSHdVu+r326EdE3MQzuW6CI3gth0KOrVjNZ5hLSd6mL2izsGZ+Qufdyi7z0dSkBG2nRgbqdmBgMKV+1OPfvPU6/TedKh1eSkk1CNm9E1U7Z7CemUIC0S0pkBRC3SzRTwELDhQjot9NMi2tRkpo6npoWbL3mFQEMIPFg9L2qBK9+fes703f95w/dVqW3UEY6rDlbh1lCyrQTKxbv5+E/Hkp4kUBRPdnncqxM3pgSzioVLxJxqX+LOtnpf/XYjpGtiXqZjSToRI57TQjrVQaiOwwrm0Qjpkyfy96tkbUyL7HzHmS3vfqZDq8lJx70aLW49GWK9vXj6dfq+41gwO7ezuLevGAGr7nF2t/dGGy6k1bGMmDavqePHIj66z7q4Xal9+AABCEAAAhCogECZeNeN9Zr0nrizAkeYkEMMQUhPCLmSzQztWNxpK0mnYjLTfgGa7BMJ6eIssPMYADPal5mCndQZ1xWQkTb7dBPL3b4z+xe90qGVdDaKlybgCmB3oa/ovSu+I8EbZXqLxG8itnMZ4ZTI7f3saWtLvIBY8boUysYoO71FTeuOCZjyOTtKE2IHCEAAAhCAQG8C568uy5Wi7HALtivbVRv4g0AIAYR0CKUKyoQK6SIxmWSpPWLYTlnJZKR7dVg2k31Tuh/fV2d+cQdXLGtxb8R60WsvER/bj5CuwAE5xAgI+KddD8WQWKD7BXMssM1U9qEYwEEhAAEIQAACIn9a+bMs/HVViuLZpm9Xtqs28AeBEAII6RBKFZQZVEg3veMZpn0I6QockENAAAIQgAAEIACBIRO4fue2/PH61VZmpVU2Wtmu2sAfBEIIIKRDKFVQpu1TXYYplLsdmyk2FTgfh4AABCAAAQhAAAI1EVi8eUMLUpXdbcM0b2WjslWJaGU7fxAIJYCQDiU1YLm2T3XpJnaH+R1TbAZ0PHaHAAQgAAEIQAACNRNQWV0V+6pEkppZ2OR/ZaOylUx0zU4yBtUhpGs6iW2e6jJModzt2Eyxqck5qQYCEIAABCAAAQhAAAIQKEUAIV0K12CF2zbVpZvIHeZ3TLEZzM/YGwIQgAAEIAABCEAAAhAYLgGE9HD55o7epqkuo5qGwxSbnNuwAQIQgAAEIAABCEAAAhBoEAGEdINOBqZAAAIQgAAEIAABCEAAAhCAQPMJIKSbf46wEAIQgAAEIAABCEAAAhCAAAQaRAAh3aCTgSkQgAAEIAABCEAAAhCAAAQg0HwCCOnmnyMshAAEIAABCEAAAhCAAAQgAIEGEUBIN+hkYAoEIAABCEAAAhCAAAQgAAEINJ8AQrr55wgLIQABCEAAAhCAAAQgAAEIQKBBBBDSDToZmAIBCEAAAhCAAAQgAAEIQAACzSeAkG7+OcJCCEAAAhCAAAQgAAEIQAACEGgQAYR0g04GpkAAAhCAAAQgAAEIQAACEIBA8wkgpJt/jrAQAhCAAAQgAAEIQAACEIAABBpEACHdoJOBKRCAAAQgAAEIQAACEIAABCDQfAJeIX1t5ZbwDwN8AB/AB/ABfAAfwAfwAXwAH8AH8AF8IO8DXiHdfP2PhRCAAAQgAAEIQAACEIAABCAAgdEQQEiPhju1QgACEIAABCAAAQhAAAIQgEBLCSCkW3riMBsCEIAABCAAAQhAAAIQgAAERkMAIT0a7tQKAQhAAAIQgAAEIAABCEAAAi0lgJBu6YnDbAhAAAIQgAAEIAABCEAAAhAYDQGE9Gi4UysEIAABCEAAAhCAAAQgAAEItJQAQrqlJw6zIQABCEAAAhCAAAQgAAEIQGA0BBDSo+FOrRCAAAQgAAEIQAACEIAABCDQUgII6ZaeOMyGAAQgAAEIQAACEIAABCAAgdEQQEiPhju1QgACEIAABCAAAQhAAAIQgEBLCSCkW3riMBsCEIAABCAAAQhAAAJNJHD9zm3508qf5fzVZTnX8H9lo7JV2cwfBMoQQEiXoUVZCEAAAhCAAAQgAAEIQKCQwOLNG/LH61dl4a+rcuXWTVlq+L+yUdmqbFa28weBUAII6VBSlIMABCAAAQhAAAIQgAAECgmorK4SpG0Q0FmBr2xWtpOZLjy9fJEhgJDOABn2xzZNdRnVVBym2AzbCzk+BCAAAQhAAAIQqJ6AmiKtsrtZkdqWz8p21Qb+IBBCACEdQqmiMm2b6jKqTo8pNhU5HIeBAAQgAAEIQAACNRJQyZA2ZqNNzKtsV23gDwIhBBDSIZQqKNPmqS6mc6n7lSk2FTgeh4AABCAAAQhAAAI1EVCzGeuOF6uuT7WBPwiEEEBIh1CqoEzbp7pU3UmFHo8pNhU4H4eAAAQg0AICD1b+a+hWUkc44jpYhVtDybYQKCekZ2V7pyMHFrstSKbK7JF18f/2+W5lF+TA1B7pXqbb/tF3COm2eNvo7URI13QO2j7VJVT4Vl2OKTY1OegEVXNlepds6cz1aPGc7H/+Rdli/nuWX5LpnS/K/vM9Djusr88flC3PH5Rzwzo+x4VADQR++sNzMmzxRh3hJ7IOVuHWULItBAYR0idPJILZCOd1nSNyssyq3/NHpPQ+meMjpNvibaO3sxIhfa7jBJwm8CSoS53dch1L79GyqgVrk49Hh5ZyJT4MSCAtpDOCeZD+a2lGdgT0e7p+W4+v78xu2yXTSz0ajZDuAYivm05ACejbp/5GlHgYjnI9AAAMkUlEQVQb1h91hJOtg1W4NZRsE4HQeDcvmrOCuXt2+cszHZulTkS3T4gn20Iz1cSdbfK40dpagZCOMjG9Mzyjbeioaw/tWIoErepw1p9ZCL7vpGx5VW++U0s6H28nNTUjX2ZG8WzHdmJW7HtnSo49jmfforbToY3ae8er/rSQzrYtEtbFmeUi4Z0Vv5nPO2fkSrYq93OgCBfpo/5edbt28B4CIyKgBLQS0up/WFlp6gg/uXWwCreGkm0iUC7edad2p6dw23gxF0NGglvFmP64uLsAL4o13e3EnW3yuNHaipCuiX+5jiWfkS4ljBdnZH3Pe07ydbidiH0fcKyUYD4xa8V+YSenpt0gpGvyPKqxBHTWNi1wd+RSvWFC2i+0B5jeXUpIezLUBRlpPWiAkLYuwJtmEHh49y/ycO2SPLj+hdxfmpZ7C+9ZEW2y0vcXj8qDq/8hD/7y3/Lw9pLIg7uljKeOcFx1sAq3hpJtJ1Au3nWFdDYu7S6I3RhTx6E2/kzvVyp+jpNDCOm2e2F99lcmpPMBaX2NaENN4R1L6IicyRZnp8Lc7J4Jzo3s9VjkIUBIG9Gd7sgiO7yjhQjpNrjs2NroZqTDp1kb8ZoW2u6xRDJCukDcesGqskGCV9VvbHGOVFAXQtphxNvGELj3fwdTwtlkoote75z9e3l489tS9lNHOK46WIVbQ8m2EwiPd5VwjoX0GTfBEsXB68/Mdl04LBHSkXBO4k1HSOsYtvziYwjptnthffZXIKSjwBIh3f2khXcsqgPJi2PviJruILJlow4o9D4QI4ILXwcU0oVTc8hId3cYvh0agbT4zVaTFsrZb83U6igjnRHOGSGt1o4I7Re72+RagZB2afC+vQTuf/evQWL6pz/8ozy83d+jaKgj3D/qYBVuDSXbTCA83nUSPzomjASwjhvV7YGLsZA+o2ZZmuRRIoqNkNa3JU4dke1Te+LZjkZIx8c7cSRa9dtmrLOZ7/xnhHSbPbBe2ysT0nZ1W72IDqvHZk9jeMcymJCOOpQZORm0CENWhOc7k6UAIa3rdDo52wkW3b9CRjrrHnyukUAkWmfSq2zrjK5adbuEkI73SVbLdoS1nqodTSN3p4H7F2ZMTzdP96XJd9FxIvuKyni3B2W6azwBVAWBmMD9K//WVUz/NPeyyL2bA/GijnB8dbAKt4aSbSUQGu9GCaIZ5/FXRgCbWLT7Zy2kTxyR9U5iJjpmLMBPuFnuaB2g0CQTQrqt3le/3RUI6azRJtBDTLtkQjuWaJpLMvJWmNG1wtURwxUs+Z/LTAcI6WgfM/KX3COdO1ZmYbLQ7+nQXE/i/UAEsgI38/nK0ox+7NX+abUCdyJik8yyEdrmVUQLc71atxHS0Wu0AGNULtnfZ31yLN+36W2qLFO700z41GYC9y7uKxTTVbWLOsJJ1sEq3BpKtpFAeLyrBLNKHplbDOM40sS3J2aiqd0FGelINPsW4c0KcCPMw1+JO9voeaOxeQhCWkTi4LR78DiaBo+q1vCOpf+M9JdnjsiB+fQUmGIhbjquHh1LqJDW5dS0mo6s19NnoinmxfUn03N6CWo6tFF57ZjVqzPIu2R/x3mOtO6rXGGaF7XpKdqRkN2xMz1tW4npHdNzUZZbiXA3C6zqcD9nsGohHn+fritTUH9ESPuosK29BO5++U+FQrrsfdFFFKijiEx+ex2s8rWyZZwIhMe7fiGdZI2zgtj9nLzX6/MY8d3t1clcE3eOk8eNti3DEdLxI1oQ0snJDe9Y+hfSvTqG5Ht3BLAaIa2n2Ex1ZF18n0qy6EN0fN3Rlbg/JbH1piCkEz/i3eAEoqndc9GB+hTSucW+9dFMRrqMjWnhjpAuw46y40DgztkNVkjf+c9n7Hu18Nj9Hz6upInUEY6xDlbh1lCyjQTC491BhHS3ODYR2W4sWeY9cWcbPW80Ng8upJeW8s9HJSOdO5vhHUsbhXRk8wF1X7bJRmdG/hDSOZdgw4gI5IW0O4W7x9RuK7zj6dvO9G/v/cnx9+590kmz3Sng0Va/kI7KRQOTkfDuVlfuuy7Z8MQW3kGgfgIP792Q26f/Vn6a/Qe5/8O/awPUo67u/e8eLajvXXp3YKOoIxxhHazCraFkWwmEx7t+Id1tJqP6TmWsoyy0c2tj6tZBhHRbfaeNdlcgpGdkRyfO7mgCcaBH8Jbyh/CORYnSPu+RTnUk3TLNTifTa+GvgKndOht9ZiHq2GzWOaqjuEMs6gDzdjMymHIlPgxIIC+kS0ztLnjMVGRSmYx03E+m+k6RbkI6WWzMtTeG0dWuouMOCJLdITAggQer50UtcOX7U8+Zvvs/b/i+KrWNOsJx1cEq3BpKtpVAaLwbiWEV75p40IlNvfFs8n0q7iwTM9sYNR9ruhlr4s62el/9dg8upJXNdvXaOLOTCQ7rb1bzagztWKKFF0ynklzoxYsqxCNzgZ2D6Sjs8SoQ0idPRPbqTrHAjm7fGZuKXunQmufPbbZoECGt9y0cJAwU0nF/6bv1RQnpaJEyl7AS3R7x7BbRmfKiBR4j0e7PirsH4T0EIAABCEBgMALh8W4S4xbFf6PaTtw5mA9M0t7VCOlJItZnWwftWKzwzY3SJSN0ZTocLWynZuTAiT3xdOyCDi0gI23q7SaWu31n9i96pUPr0+nYzUsgL6STqd25adHx1Gx3WrVZVKyorH97JIS1UNYrfHtNsws15o7Rc3AyniZeNNW8UPwX2MFmCEAAAhCAQB8Ezl9dliu5WLUgxmxgOWW7agN/EAghgJAOoVRBmUGFdPQ854Ip35n7kYsEaXq7mXodrd6thW6Z6TFxWXdRMVcsK+FfPK07/i7QboR0BQ7IIVIi1WZn7T3PxYDsdOulJZnuFGV9i/fnGwhAAAIQgMCkEPjTyp9l4a+rko452yOkle2qDfxBIIQAQjqEUgVlBhbSDRy1q6uTREhX4IAcAgIQgAAEIAABCAyZwPU7t+WP16+2MiutstHKdtUG/iAQQgAhHUKpgjJtn+pSl2jO1sMUmwqcj0NAAAIQgAAEIACBmggs3ryhBanK7rZhmreyUdmqRLSynT8IhBJASIeSGrBc26e6ZAVuXZ+ZYjOg47E7BCAAAQhAAAIQqJmAyuqq2FclktTMwib/KxuVrWSia3aSMagOIV3TSWzzVJe6RHO2HqbY1OScVAMBCEAAAhCAAAQgAAEIlCKAkC6Fa7DCbZvqkhW2dX1mis1gfsbeEIAABCAAAQhAAAIQgMBwCSCkh8s3d/Q2TXUZ1TQcptjk3IYNEIAABCAAAQhAAAIQgECDCCCkG3QyMAUCEIAABCAAAQhAAAIQgAAEmk8AId38c4SFEIAABCAAAQhAAAIQgAAEINAgAgjpBp0MTIEABCAAAQhAAAIQgAAEIACB5hNASDf/HGEhBCAAAQhAAAIQgAAEIAABCDSIAEK6QScDUyAAAQhAAAIQgAAEIAABCECg+QQQ0s0/R1gIAQhAAAIQgAAEIAABCEAAAg0igJBu0MnAFAhAAAIQgAAEIAABCEAAAhBoPgGEdPPPERZCAAIQgAAEIAABCEAAAhCAQIMIIKQbdDIwBQIQgAAEIAABCEAAAhCAAASaTwAh3fxzhIUQgAAEIAABCEAAAhCAAAQg0CACCOkGnQxMgQAEIAABCEAAAhCAAAQgAIHmE/AK6Wsrt4R/GOAD+AA+gA/gA/gAPoAP4AP4AD6AD+ADeR/wCunm638shAAEIAABCEAAAhCAAAQgAAEIjIYAQno03KkVAhCAAAQgAAEIQAACEIAABFpKACHd0hOH2RCAAAQgAAEIQAACEIAABCAwGgII6dFwp1YIQAACEIAABCAAAQhAAAIQaCkBhHRLTxxmQwACEIAABCAAAQhAAAIQgMBoCCCkR8OdWiEAAQhAAAIQgAAEIAABCECgpQQQ0i09cZgNAQhAAAIQgAAEIAABCEAAAqMhgJAeDXdqhQAEIAABCEAAAhCAAAQgAIGWEkBIt/TEYTYEIAABCEAAAhCAAAQgAAEIjIYAQno03KkVAhCAAAQgAAEIQAACEIAABFpKACHd0hOH2RCAAAQgAAEIQAACEIAABCAwGgII6dFwp1YIQAACEIAABCAAAQhAAAIQaCkBhHRLTxxmQwACEIAABCAAAQhAAAIQgMBoCCCkR8OdWiEAAQhAAAIQgAAEIAABCECgpQQQ0i09cZgNAQhAAAIQgAAEIAABCEAAAqMhgJAeDXdqhQAEIAABCEAAAhCAAAQgAIGWEkBIt/TEYTYEIAABCEAAAhCAAAQgAAEIjIbA/w+EklnYhH17JgAAAABJRU5ErkJggg==;movable=0;resizable=0;rotatable=0;deletable=0;editable=0;locked=1;connectable=0;" vertex="1" parent="1">
          <mxGeometry x="-100" y="40" width="788" height="256.22" as="geometry" />
        </mxCell>
        <mxCell id="4TmH9_435ArQg_TDs74U-2" value="" style="shape=image;verticalLabelPosition=bottom;labelBackgroundColor=default;verticalAlign=top;aspect=fixed;imageAspect=0;image=data:image/png,iVBORw0KGgoAAAANSUhEUgAABAQAAAGzCAYAAAC4kMWFAAAgAElEQVR4Aey9/4sV1/3H79/Tn7SCECmU0DcJFUqFgEWQRgwYErApBCImgoKQKEQCEa80+OEtWyMfIamyuvaNtTVJPxW30V2bxCY128UscTeauBuzu9l1v70+vM7MmTkzd+bembv3zt6587hwmXvn2znncV5nZl7P8zpn1gkfCEAAAhCAAAQgAAEIQAACEIAABCpHYF3lSkyBIQABCEAAAhCAAAQgAAEIQAACEBAEAYwAAhCAAAQgAAEIQAACEIAABCBQQQIIAhWsdIoMAQhAAAIQgAAEIAABCEAAAhBAEMAGIAABCEAAAhCAAAQgAAEIQAACFSSAIFDBSqfIEIAABCAAAQhAAAIQgAAEIAABBAFsAAIQgAAEIAABCEAAAhCAAAQgUEECuQWB2bkF4QsDbAAbwAawAWwAG8AGsAFsABvABrABbKDcNoAggMCBwIMNYAPYADaADWAD2AA2gA1gA9gANlBBG0AQqGClo+KVW8Wj/qg/bAAbwAawAWwAG8AGsAFsABtohw0gCCAIoARiA9gANoANYAPYADaADWAD2AA2gA1U0AYQBCpY6e1QkjgHiiQ2gA1gA9gANoANYAPYADaADWAD5bYBBAEEAZRAbAAbwAawAWwAG8AGsAFsABvABrCBCtoAgkAFKx0Vr9wqHvVH/WED2AA2gA1gA9gANoANYAPYQDtsAEEAQQAlEBvABrABbAAbwAawAWwAG8AGsAFsoII2gCBQwUpvh5LEOVAksQFsABvABrABbAAbwAawAWwAGyi3DSAIIAigBGID2AA2gA1gA9gANoANYAPYADaADVTQBhAEKljpqHjlVvGoP+oPG8AGsAFsABvABrABbAAbwAbaYQMIAggCKIHYADaADWAD2AA2gA1gA9gANoANYAMVtAEEgQpWejuUJM6BIokNYAPYADaADWAD2AA2gA1gA9hAuW0AQQBBACUQG8AGsAFsABvABrABbAAbwAawAWyggjaAIFDBSkfFK7eKR/1Rf9gANoANYAPYADaADWAD2AA20A4bQBBAEEAJxAawAWwAG8AGsAFsABvABrABbAAbqKANrJEgMCO3B07JkX3Py9Ynn5W+L5urO/dvX5OPPsz3vT3R/LztUFW68hyTk3L/qzsy+OFFufLJjMzq/4km30cxXqMfyNkPJ5wLw4ScfXGjrN+wUV54z1k/MykfnTwlH33rHD8z0zy9iRnn3N6xI/93TN56+5i89X9367Z1JecKXjSqUg9T/zgqv9ywUdZvfkpe6W/BHh9pe7srwx9ek8EvPVu//5c3ZNvv35C3/veajGE7tHFsINkGHt2VKyf3yQ59PvjCua9k4jUpt9OeFW7clSnTLhvfC6dmvDTH3ttj7nfr3xyK5DNY/+L7fjsO741HrsfyOzMhH733gYz456y7fn71vryg15kNe+TsVwsyOzMhw58499d4mb++JrU9++TsaCwds9+kXDrwrBx67zO5n5TeJ+/IL598Rp5765rcj5/X/X/9aGK5Td5nJmX4vYPywttDMmWPyfJ84T9/WLZ1HOy5WEZsDU5Jdt5o3Yxcef0p2bHvmJz9x13PRq09bzgqg759jZw7KrXI8230nGN/OyV9/ddkeNQ+pw7JEdNOY8+/Dex15N3nZce+U3Lli0nqtAEnbDxqe2vFo8OCQPqNue/AU94NZ8NG+eWh95Odfb15+0Y0+KbniKozmvVbd2PuZoP88rLnCKsznPt7WUbmJuTSge2y9cl6PpveHpIs/CJO/teX5ZXNeq4nZNuBi/7DTPjQE+w7eUf6Xv65Vydbj8rgpG/YwUNOfX7C+jsqg98OSZ+W990h84AS5DP2ALZWDYR0u+NCVXg9TF6TI1t82/2fo3Ll68YOxH1fTBs8uV22bfXbg3utOvSBTM3NyJVD3jl/WfuMB4Ruvh6TtzW2z7vSt8NrK5teuezdG7RtbW/8PXlDr1fhg3t4r/Hb8ovvy6B18t32GfntO+ZzCxI4/rH7UbC+mSDw6DOpbfPS3vqm40C79hXcK/fI2dG7cmn/M7J+w8/lpfcSRMhvP5BD9h6/WfePXp/vD+yTTX5ZlFtcdLzdt93cq3/5B+/6E9xvzTF75Gz/KY+xvYY9+UzI/KSKIjMy/AfvHOs3/EqO/MNzlqLn8VlHmIbrSvVc5tYTv9f4mhC19dRngkcfyCHf9qydz8YEgakb78hWs48+374vt+1za1DH4bPupqDth9eV4Pk32D8hbzOfSc1/htjxrrbl8Pi665LTVjKdu1G6bCuHnXZhPXVYEMjWAFIbR3CzXQgd2s1PhTeopIeDbU8FN8RS3XiCC1Z440zl4lw8vH081TPpprzp6e2y7fUP5JIVVNwbvM/vF8bxr1c97994R3b42zbtOCXDj8KLpLlofXtNjmx7whMDNj8rtRuOCvr1Zdm/PRQoTD40vaf9/U0+TsmgfRjy6zooQ3ARTrjQdmFDSr05kdfyXZxn7srZPb6d1rW15PZpb+IjZ5+PCpbmevW8vFK7JmMTF+Ul/3xBe6i7hh2US19j87SnatpAECH29mUZ/tsb/r38Gal94jwDNGiT3j3fPne8LCdtpED/Udmmx734vtweHQo6IE6+7LXnTfvOBOs++nBIRnyBL3D8zf3IE92NKGHvY87ziL2P/myrFS1Omd7IsXN7gnIcuW57G536tfdAP0Jg7G9v+M7KzwOH220PU9eP+ts3yvqt78igjeybsCK+rnfE+eAeFIosXh4Pyit73OtZuiBgymbvyY+G5K2t/nGb35Ark9nqxj7PlOq5LGDn1Bfruvqefr//Zf8e7EQfB8/XfoTAzKQMnnxefmbvxwc+iEbMfHlGdvjbDv3fhB/tGgoNz/V9lhwBa9vi3IIE4tyWo34btdclt83V/7bPEm6b5zftrwgbKEwQCG+S9maZYXkgVLgDR9ERCRIBBTfXjVKqG88NX5mPOwiOwLE+wZn3eky8Bw9vWMWQXDnpOyUOq4CfvakHN7WYk6/rnfC/sRun5IX/eUYO/eWu3J/4TPqe8y5g3gVxQgZPPivr/2efnL1tL5qT4oYE2nTtRS76gLUgs7a+EAS6+iab2NYCG+qhi7VGvOQUA/RB19r31Ld+O/jLG95DidMGR959NioWJDo2Ye9kZZj3oh1RppauZ/Z+sV5De4Metidk69tDMmyHk8Uj6PaF7SoqCDwrr9h9X9/jDf/R9hgMZ5uQS/u9+9lLZ++ED/jaW2jvx9bxN/feffKSP2TOOreNlzY8eULO+deUTTvOyKAjSJhhkFas2LBdjvR7wyIvvfWs/GLPO3LpwzueozJxxxEsPpC+fRph+ZS8ULsoV4zo8YHUguvWU/LKux84+/vn+OKMJ4oE1x3/WmOdnxfPyG07rNBev17/ILzvv/5BcG+3w6k2bTso575IEDni9m/v8xtK9lwWLwf/W2rXhd3LZu4EkUXrX74YOPnqnJu2uuUdGXbqUDu9nnv5/dhwnhkZfPNXGe7VDZx5vXYZ0ewJOfS3GZn94qLU3r0mt7+elCuv+8eZtuVFHo70+/nb4ImfhfFyWJBmDz3HtlivhQkCq3XOgweFLXvkkL3JJy3tjb9XbjzOjTQ+jjGtAQdOt+OMBPxePuU8KOjDx0U5st27QFmnJtg3eHCov/A1ehBy69qey547yJsVJmz5EAS6+0bb4gUmzUa7cv3XH4QRLxuekBc0ZPdR8sPuSP/BoJdu0853ZDgecmh7JGwbnPxADtlInJr7sO7PixI4BfvkkjsXRxW4U0bavm8D9n5hBAHtZbv9WdBbn3rNsG0tuOfbnrify1YrsFthXdujveek3d/03uScM7zXHZUr33oP8MN9vuj+3BkZNk50KJYf+osdXuRcO754Xw5plNCMMwwhLf3Iel9USMxP1vuyniN0cuy92OM5Ix+9rtFQT8ihDz8IxkiHZY6mEd7bJ2X4Q3+eAj8aMH04hxMJGNQRD9+p9sz1sOXr4VQQVfQrOdIfRgKdO+IPc9l+VM7ZqKH40g5RHrVzekRtP61NuOtt2xo56889Yu7/k3LpFS/icNMBJ1r3yDW/nGGnnB0ehW1wfVgLGyhUEAicwcgNL6XR2QfpugeFlP0TzhnevEpsXO7Di3WiE28YDcIZD1yWc3bIQAIne0GzF7PwoSw7a3sOXSp3M5a66ZCB7XKy37/4+vUdpN2wrCWuz8S6ozxrcfGLpOmOzd3wjOwfuCtTX74vLz3pjTEctk76zF05d2B7MCxp054zkfGHgf2mtTMbPhj0+Hm9d/ogY9rQ9jNyGxtp+YEwUqdwLB3HsP14jvD962cazKmjc+csRJx3755vBYE35Irt8f7kjDynbdIVBOKdCzbSQO89fhRB4Pib3rzQwR8bOOgNXQyiGMP7rzePgXdNn/IFBDuhr0bPxct06Hk7n9Kv5IXX43MI+WW0EQtW4AiWzwRhz40jCO/KWRPd94T8YpuNznQc9R1n5PaMM+fT//ph16YDwe80ePmUJE7U7D6jJF73joZDAxEEStcmS3NNDXrl9bn1qAzmFdFizvt6e68O7iP2uhJGBCay+fqivOSL/9teOSZvBZ2U3pwfwTVOoxV04s/hd7zopQ1PyZG/+RGG8Q6GIA88KyYyh09briulEQTCsYXxG2b6/0sZ3l7Q9cbl3mwbOsmhyug65+b3i+/LlbRwSyfKou+6MweA08DGrp+R/XauAPeGv/kpeeHN9+WjhBlUg4ueu3/C7yPvIQh0vQ06ttDLeZ0afkd2PP2y9N3WB/8JuXIodPzXP/m81N59R56zE3pteEJ2vO31+LlMUu3+yPtyds/P5ZUBv40FDyue4zP8By9EUScAdc/Hbx6AqmQDYfvx2kXjTgRvn9mgLdlw9PDBPeleGEQIqANgJ7XVt9rY8zj32SB9uy7H5L+Xvqy/J9d1UkwOyRE7Ht+fQ0DFg+x17pTV5jHlem2vMSGTo1LzrztbX78oZu6ET/zJja04smOfvPX2G/KCTo6m57eM/Hu56UR4dFcG472tkf935L7zHFPHICW/2RlwjYDVgtzuC4cOGUHAFdHs0J8NP5etdsJM/R0Ia9tlm4p7/hs0tm54IrxXB/YZtjXbeZbIfWZIjviCQNjWNsqOvjsyO6fRAraj7VdSG06JGGrSlhPTDfJJe4BPazZQqCDgVdKMDL69XTbpA7bzyo+p2++HTueTz8tJM0HdpAy+m+7wZ52NP83RLYXRODfSZkMGvN6IIak9419wbDhjrJfC9lYkLc34/5kZGftiSM7pa5+CC+lG+dnLR+WQP7zglzv3yI7AOdoom57eI4fe/SDsQdB5CK7bmVz3SN/tWKilP35q6pH/esJvvd6Xj474eeeCmOOhsLXGXwr7X+Ob3Nhf7ARf9ia+UdY/+bL0fZL80G5fjxq8RcWGKN6e9ObmsK8CCx6sfadmbkGmvr0rt4NXHFGn2Gf1bCBVEHB784MetzRB4K5ccoTuyHOCvs3G3lPdaAHX2XXuPaEgcE2mvr4rY3/zX8eXIG67D//6+8j1ZoKAvnXEnbz0eTny9svysw3PyKG/NXjtYOSaGDopTZ8PPhmSS/5QB28OoBn5KBI5uEfOvtegfC4jVxAwQzvSXwltogoscyIEuK9H7LdN17ivL/qv7rT36fC+qveRoB1rm0+49wb3Gv+VpGNf3JERG10ULDNMKqj7PlqQ2wP65qyLcvL3fn5MBI6WNXpN2PT6Nbmd9NYT5xoU5K0T3Dgn7dGxgeIFgck7cjYIudVw3DNythbO9rl1//sShOfGGk/8hpv1f0M1z4HRlQ3PuZE2u+Gb/AfhR154pPfuY+ehoeGDjD/J0BfhDKuG8ZPPy5H+OzLl1IdhOjMjIx+ekld2OK9Z23zQHwPtPOw4k7sEF2bngnf/b0e98Es7znPDRnnubMIrl7q9rshf71xcNaT/vaPygiOIrd+8Xfanvd/brftgMrSNsn7LPjlrxQOd1GvzU7Jj/2UZcR9Kvrws+59/Rn6244wXAu2ei9+9Y1PUZdO6TBUETDiv7zwE98QkQaB5J8KlvzlRafZcrrOrvx9NGlH87CF3cjHHYbZCXzD3h50QMJyTJ+wJD++/4Tp9fd+z3tCjzU/4Q5CelyNvJryRwOax4b3bOkIpyxfPysc3rokdS73tiEYEXJNL/3fZLL23LTgTmtrrk3OfNs8XZihF6BjZZ6uw3urTN2V2yhAyaJMzSLtq2q668tm2nfU2cy02/0VUEAjss4kgEDyfrqKt2TYxFbwN5Fnp+8La+pC8FYkeeFnOTfjbnNclBpGE7WTEuWgnTWygOEHgH35PsFHbJmTkw3fkhf9xbx5PyStnP5OxQI2blPvffuNECOwLXgPyyz1vNBhXWB9RUJUIAS8cye1x8Hozz43GL5Yud/e3fSDQCYiekV/s3Ccn/3JH7ttezbmw5yXO9P4XOsvxU7LNf7/x7NeX5RUTQRCdNTW44JpZm/1XrH1ix1B5edm07ZgMMoaKi1eTi1dbH3JsVMy7b8hLQUih2zY2SsM3pZh3dHs39uB1Q8FDxROy7c1rMui/A3z9oQ9EHxY8QVNfSWQfsJ3XJBVZdtKirXWJDQQP7joGON6zZ/MYOJdJgkC0By6p08AdpjbyD68dmqE6tk264kDQhvVa4AgCVqAI8mLvnWH6oeMbFwRm5Hafdfz3yNl/2EnM9BzevdfL9zNiXlMYpBG9HiWVLXXdi33y/yS8IcFMnDpjXxu4T2p/8CdDi5TbT9eW2XmfunV+bL2Fz2b+MAMbEeCUIeRinSSWbb2X2XZSqaW2u2fM8BavDbiCgJ0/Iz7sxd3Hs8Hg+TTJ/jOuM21CX8ntDwXacXJIRr4Yko/+cUfuB5EMOhTHG+Kw1X9mnvrQvmbVXktoF7SLYm2gOEHAjhXP2KhMow5uQM7r6TZslHAWXzubb8rSeSdoaQ3LuZE2jRD4xIboxx4cNu+RPvfVQME5ky48odMfCbU0IZihKLNjX73wYvZ/65i8peMx9Wb07ZCc+0tCT7998PLHTNoJnLwhDN7QgdLWV6VuwsVerDpqE+47vPNco+y+tidt8poc0fG2dv2WZ2TrZh0/eFFO+sNtjPoftAF9KAnHFe54N6G9YFM47BWxAetY2rcMBA/odvibdhjYCQJ90WA2aEt2DoEFmTIdCzN1r7U11xB7/3vxfTlX8yIAntN2Z8+TJAi8fFFGdFib3ccOYQiGL9gJAWOOsKk3RxD4cEKuvP6Mf33w32Ri8xPcD+/KWfsKwc3PysmbX6aM0bevH7TXm6dk/7spofs3vpR/xyMEBo6ZThYdnuCNaz4ql+wkjpE5BPx7vQ63iJUnLgjY/25oNBECPXSf7OLr0Nio04bttUHz++1lecW/H79wbiJsw+4+tlz+kIFwOK0V6zfK+uA1gUnrHB/k0V3p22nbpLNUf+bGMT8q6JgMTlyUlzRfm/fIudG7ctYKdk5EbUefeWyZWfJ84dtAZwWB4Ea3XfpsmJ59UM6ydAUBeyPOcpy/j3n/Z9mNPWDoq5up5dF3HevF51k59Lp95ckpOfvmM7Jpz/typd9x4OseYvxtxpEPH14CpyYHc3OMdY5aqDMvzSShgpsqN4fO2sDwH7abqJj9e2yY8MtyMjI5Vvxh+5R3Q9f2YWw+fLXXps1+pM6L78vIl5/J8Ic2CsZ/rWDQNrxeisDxca95qW29sxywM/iulQ2kCgKJ9yC/hy9oS1YQsPcwZ3b7zU95w9K2n5JB/w0CI//3hj+7t943n5Btr5ySj76ckPsanTZxV25/NSMjdnxvC/e0sCfc5mejHPnHXbm03xMEtr45JFPaxoN7vHPfmxySt7Y9IT9TISKI0IvZpb4eLRJ+vNHc61P3dyIuPMf9rvfO9hf3eOfZc0YGb/jXuMhbBux1b8h/BWRYHisA2HqzQxHc1xkjCMTqjet65xyw4FoQ9v7f7/ffmLFhuxe6H99nZkj63nxfBpPm7wna5kbZZiYF1LoM7d/tpNM5Rmw07bAvNOrz7Kan9a0ez8sr/zsURgm+clnuO68C3fTkz/1hQ95Eg2t1/SXdarfVzgoCVg3bsEfOfZ0EOmxY9sYyO3PHu0lt2Chub1nwmh93VtCk38449PCGnJR2SdY5FyT34pPUcG9rSPKOM/KRfYhR50IfJoKQQEetTHrAMg89KRECbx2U5yJDPDbK+m0a9uQIDfa3jRAILrxN0q3Li/NgxM2zczdP2CayDZzzpB6ECLPw+mXb5uCbKgQ8K33v+kMCjINv3/W9UcxwAT1H0Db8BxedX8C0A2dMYSStklyvyHOiTSVdr1lXb9PWsayLEKi7R+g9pbkg8FHdO8WPykeP7spHzrxFO/a/Eb49JDbZcXAtiAsCq5lDYOauXOn/zBMDtL0E9/jYfU8n5k0TA768KPvt2wk275OT/7vPdyg2ytb96SKCLY8OFRj75I6MBO9t3yi//MPlsJcykbfNX3jde+7IO7L/7Q/kSmRywuj9HkGg3s5p+x1iEr+vuq8itHP0xPdx2l/cTxn+QxjNE/oTof3b+77W5+DbT8h6ffNW32dmAlKdlNBM0h3cE+9Inx8lGPg7scjETTqcMNi/Q4w4P/foFBvoqCAwcvZ5LzRu8zEzHrD+Ihg2LNtA9H3cm/RmtPkN+aiVkP+gsT8vZ0d7oEEFFyvbC9mgTJ+ckrc+nInOqOpXvJ39XCcS+qhuIiS/B0BnQk8ylG8/k7N+r4YZR6ljHk3PRPKr1xLP4Z43qCP7gNGgTO5x/E6uH7i0lYt9aA4cjlS+4fUreDC4flS2vT0UzhGggsCjITlpJt58Qg596A+JCdqA7ckIJxtiQiGuB02voak2WW52qYJAo8iZoC35EQLOPfNn27Z7UQD+8VOfnArmIjJRAW9f85xunew4uMf9XA79zbsXBteCuCBg8xOkZe9l9XMI3P/HUdnqO9g7akP1Tn7dORrUof9atG1BZIA/z4DpbbTOy0bZtO2g9F2vf1OBLc8vtz4jm1RQmRmSt3yh/5WBCfHeVDQp9//yhvfsFoRJeyHRnoPjXPe0XC++L2d9QSCcQyDsKDCvfw7KaKM4GpSxR227qm260HIH1wLvvho69BvlpX7/+Ta2z2wwh5W9F3u26bbb9VvfkeFAnHPs314XnAm3t526LfcnJuT29Wty5b1T8taRffLc9mfkrZqNEgznCoq/xWjr6x94nXi0gbY+0xVqgyWuuw4KAuGNcb0Jj0m4AUx+IPv9G6UVBGbN7N6n5K0BfWdnwjF2narndgJCDfEzYYAT8tGb9qaYFpXQ4Jz23EUvnZtly2H6xvGYMYqkvenrjXrMvM7MYRUZg/m8eX1awFG3OSLM1JdDcvbNPfKL4OHj5/LSOW+McziDqk5c+Kwcevea3P46HP8fPFjYOnKX9mFjQ0L67n5OXhraQtH1RXqN22bJ+QTtJ/6e4rqIpGfkZ/71KxAEHk3ImF6P7EOHdRz01VzDn8ltfQWovmpz4KA/jtg+hMzI8MD7Mvhl2Iaw+S68VpfctrvdpuKCQFJ+vfkB/HvaV59Jnx1vv8HrBNBOBXMfDWbv3yjrtUd/+K7c/3ZGRs7ukfWxSAAvnRm5/e4+eaVP36jj2V7QqWEf/G27zjiHwFi/vkYw2mOur+g98t4H8pHmR+93X0/IyBd35PYXd2Xsa3uvvivD/nAlE8r86K4Mvnc0jGQw53xG9g84c47M3JVzLztv/DHhys/KK2+/Lx994TlDJorQz8/W/ZdNNKHpgDHrnpBf7DkqZz+8I2PXz8j+Q0e9+YDiz1puyLSm8fuLcumkhkVvl/0DVoSYlNsffua9uu3Lz+SsM2/CWzdo10l2zbo22IVtnxuOytlzTttzHfpgn2fkpSPH5MjvfZ9hz0XzvDw7MxGJIFq/wYpuNn+heL/+xVMy/NWE3O63ryd+Qo5cjr8C0Wv/wTDCly/KmHayBW9bi10fth2Us8MpnXPcf3r62XOtrwGdEwS+OOWHwDrKnBrz9aNBaJvr/ObtFQsf2qONKTjn1lNyuyyNp12CgF/egI1xRhxhJvZgErBy1r/w//5/cvJFx9Gx2558Xk7eiF6k7t84FXtA0cgODZn6h7xrJ0ixx7ewDESistQj+eyJi3XQfvLYrHUYrA3Yhw5HENCLvftA7jktadFT9uGD5VrfJEm/OBtsLgiEE3DW3b82a493uH1b32cy9uE79feopu36CTl07qw85+5n27dt1+62lN8aYqxvHDH53HpQTp48GEQK1OU95RzrN/xKan+/KC8Forz/vLP1oJy9nSAezkzK4MnwNc5eOv7khXMTcu5lHdL0hOz4w5AMv2ffdPCsnPzLRdm/LfaGooQ8mXmZnGe79OEJac8db8gVhP6euE925XUxaJ8H5UjQORh909WsncwvZt86RHlq+JTsiLS1sBMsLK8zBDB2jvVbNJIgFAz0zUTP7Tsqbx3wXzG64Vdy5L0zkbk/Nm07Kle+npTBt7eHvpErYNhnCpa0mw7bQOcEgbkFGXnvZflZPPTfmfHT3hRbes1cEOZTLwhouFzizbLDMMMLRs4HKFX/G05eZif1abC8cTfo1QgcGl8QuHTAU+9VwW/2VYXf7f3/2Y74qwdjZVM19eQ+2WFeMbhR1m89KoOTE5InzbQ8hb0NsTS7tR7JV09csIP2syHvpIKOndoHk5ggEPRe6oPE5qfkFT/ipuVrBzbXEzZH/Xttp7kgsBAOiXMfxjdvl7eu+w6ymWzvV1L7xG+PM5Ny+y9n5Mi+58P7nzPXkH0OCZfqtIYP9ZEeQtuu7RwCdffti3LEHydsxhw/uiaHnn5ZztnhixN35Iq+2nR7gujulsf+VgdDo/yuHxMzTGDzdtn/7lDzsOKJz+ScH923yfZ86rVickjO9t+VWR168K72oFqxwIuyHBm+KH0mxHm7bHs6LhD4E6L6z3Y77HCLlGuQGXTw590AACAASURBVFNty6FLrndcq1JspW3XP9s+zXAYfVuHRq04UTR++vc/uSgnD71srgfqsJ98z7ap8LWfxo/4JNoJFuRz8jM5+ftoG9bIn5PDeg2akftfx+cP8M5r5wgwUUobfi7P1a5F2vJI/0HZtvlZb/LDTrPi/LTHmA10VBDQxqMhcUEj8hOPhPzpq3ximcr0358pOBLuruF3rZ6vlTx06TFTo0Ni5gpwRIJMTIPyzMjI8B0v9DlY5zg7Sev897gnztSatD/rWrN7uHWcW9B+Przjv2Yr3faDa5kOE3Drxl6fuB5FubiM+A2buA0E4ekNngts23KGl0Un71qQqdt3vPDf+Plz/A+GvbltW4c0qgiQem+dkRF/pv7bE3pNmJEp9/gc6UeuJyoKfBXOYh7flvp/xhtGmLb9/uhE0JGQtk/L6yOvcGtQn6tg0nLeSLM3rz3BtcG3t2Dcf+z+3Kj+Z+7K4PW7sQkBcxyfdu6ZSe8NJrp9ZkJGvko5Zyt5TkuT9b1p5x2q144LAlywUxp9hyoU3vDGBrABbAAbwAawAWwAG8AGsAFsABvIYgMIAjjmKGjYADaADWAD2AA2gA1gA9gANoANYAMVtAEEgQpWehaliH1QFLEBbAAbwAawAWwAG8AGsAFsABvobRtAEEAQQAnEBrABbAAbwAawAWwAG8AGsAFsABuooA0gCFSw0lH5elvlo36pX2wAG8AGsAFsABvABrABbAAbyGIDCAIIAiiB2AA2gA1gA9gANoANYAPYADaADWADFbQBBIEKVnoWpYh9UBSxAWwAG8AGsAFsABvABrABbAAb6G0bQBBAEEAJxAawAWwAG8AGsAFsABvABrABbAAbqKANIAhUsNJR+Xpb5aN+qV9sABvABrABbAAbwAawAWwAG8hiAwgCCAIogdgANoANYAPYADaADWAD2AA2gA1gAxW0AQSBClZ6FqWIfVAUsQFsABvABrABbAAbwAawAWwAG+htG0AQQBBACcQGsAFsABvABrABbAAbwAawAWwAG6igDSAIVLDSUfl6W+WjfqlfbAAbwAawAWwAG8AGsAFsABvIYgMIAggCKIHYADaADWAD2AA2gA1gA9gANoANYAMVtAEEgQpWehaliH1QFLEBbAAbwAawAWwAG8AGsAFsABvobRvILQh8OzkrfGGADWAD2AA2gA1gA9gANoANYAPYADaADZTbBnILAsIHAhCAAAQgAAEIQAACEIAABCAAgdITQBAofRVSAAhAAAIQgAAEIAABCEAAAhCAQH4CCAL5mXEEBCAAAQhAAAIQgAAEIAABCECg9AQQBEpfhRQAAhCAAAQgAAEIQAACEIAABCCQnwCCQH5mHAEBCEAAAhCAAAQgAAEIQAACECg9AQSB0lchBYAABCAAAQhAAAIQgAAEIAABCOQngCCQnxlHQAACEIAABCAAAQhAAAIQgAAESk8AQaD0VUgBIAABCEAAAhCAAAQgAAEIQAAC+QkgCORnxhEQgAAEIAABCEAAAhCAAAQgAIHSE0AQKH0VUgAIQAACEIAABCAAAQhAAAIQgEB+AggC+ZlxBAQgAAEIQAACEIAABCAAAQhAoPQEEARKX4UUAAIQgAAEIAABCEAAAhCAAAQgkJ8AgkB+ZhwBAQhAAAIQgAAEIAABCEAAAhAoPQEEgS6qwofzc/L55Hdy88GE3OCbyEDZKCNlxQcCEIAABCAAAQhAAAIQgAAEWieAINA6u7YeOTb9SD59+EBGf5iSe7PTMs43kYGyUUbKSpnxgQAEIAABCEAAAhCAAAQgAIHWCCAItMatrUdpb7c6uAgB2YUQZaXMiBRoqylyMghAAAIQgAAEIAABCECgQgQQBLqgsjUEXnu9iQrILggoK2Wm7PhAAAIQgAAELIEbtd2y87UBuWdXsIQABCpNYHnynx0vP2lkR1wEq+y5YU8lgCDQBXag4+KJDsgnBqggoMyUHR8ItI3AzRMNHQl1NF7tH285uXv9B2Rnbajl4zkQAhBoQkDb8K7dcuxmk/3YDAEIVIbA44+flU47oaSR3ZyKYJU9N+ypBAoUBMal/zVu0klmpxMIEh2QXxBQZsqODwTaRqBlQcC7vqkjEv2ekBtO5lYrKDin4icEepRAvC0dkMwa3PiAvFrXBuNtkuiBHjUcigWBRAIqBMxd/omoE9qpD2lkJ1sEq+y5YU9LoBBBwITv+TdpVHuLPlzmEwRG5XjfYdk7nOxAXzh/WLZcHa0TGG5drcm62uHcX3suPW+u4/sG5FZsYsQgD+cHJfidlKeEY9MEEwSB0I741QYCcUEg9j+LQx+PAjD/GzkpRAy0oeI4RW8Q8MUAJ9zfe36ICmvJZR2SY7adOcdH9iV6IIKDPxCoAgEVAlQQ0G+nogRII7slFcEqe27Y0xLosCDg3aCNCOAr9wgCFn24XJ0gMCh7azU5PuYJBGmCQJpDnXf/yHnGBmSLk3Zkmy8GRBz/84OBUKHrrdgQOW74tKxDEAiNg1/FEogJABL7HwoC1vmI9142iISKnavYgpEaBEpAwDjs8TbltbXGQ3V8IcEX1zwRzj2PjTpw15WAB1mEAARyEVhZ+F5WZkZk+eF1WRrvl8XRdwIxwEYJLI2dkeUHf5Xl7/8lK3PjIssLpFFiVrkqj51TCXRYEHDSRRBwYER/dkYQUKFAe/VPy4VYT33ggBuHvsH2tOPs+gyCgE3LCAMIAtGK51/3EDCOSCy0WJ2LiBNvRQB/v9oJObYr5mCY61xyb2YoJnRPsckJBLqJgIkGqOvdr48aqMuzttN4pE2sTTcWFOrOyAoIQKCEBBb/eyIiANjIgLTl/LVfy8r0l7lKShrZcRXBKntu2LMRAQSBRnQK2pZVEKgP21dn3o0QsCKALwREHH5vqMFqw/6tg2+WqxQEUvNChEBBlkcydQQiAoB4goANQ/aXoWOhAkFUEDAOjeuYZBzTTORUXU2wonIEor38bvFNu9qVLLS5+3m/bTRATODT9lsnNtQfzRoIQKDcBJa++mMmUeDxx7+VlbnW5qEijew2UgSr7LlhzzQCCAJpZApcn1UQ8Jzx+BwCURFgrzuHQIIgEMw9UBeaHztv3faEOQsyCAL1IsZhWefPIcCQgQKNjKSyEXAEgWDsv+NERHv5Y4JAgvMfiAdJPZjZcsReEKgIgXRBwGuLKYJAXbuLinQReHn2jRzIHwhAoEwElu79qaEo8HjoBZHF6VUViTSy4yuCVfbcsGcSAQSBJCoFr2tZEDAOuUYDpMwhoNuD3vZmDn+z7a0JAq6IoUJAJMLADj1YxVLZ8YFA2wg4goA5Z+x/RBAwzoV1UsJeSa+33/vvCQLeb6IA2lZLnKgnCbQoCDRk4Q3zoe01hMRGCPQkgcU7R1NFgXYVmDSykyyCVfbcsGecAIJAnMga/G9ZEDCOtDtkYFoikwRGevkTHP6EGf7TIwhWIQhY4aKvJluMKOBGNSS/vSDIRxOxAEFgDQy2l5OMCQDROQREjCBQOxG+2swOD1Bx4LUTcix4taorCMTmHogNQcBZ6WWDomzZCaQLAs2HDPjHxtpW9BWgsSEETuRP9jyyJwQgUBYCC7d+lyoI5J03IK3MpJFGpn59EazqU2VNVgIIAllJdXC/tgsC50/LFt/ZD8PyEwSBIHpAnf1m21sXBMwbBfpqsq7vtOztq38tYnzCwTxRBAgCHTTMKp46iyCQ+lJ0zympjxBIBtncyUk+jrUQ6FUCpk0kOOpp65tzIEKgOSP2gEBvEpi/tjUQBOb//nTwWycYXPrmUlsKTRrZMRbBKntu2DNOAEEgTmQN/rddELg6mhCan+DwFxIhoNEAp+X41ZqZO2BcJ0GMCBHTgiCwBkZHkskErCCgS53EzP7391bHJJgXwKxzHY7sgkD9a9GSs8NaCFSJQHK78NpYtN01oKJt1kbuiNs+vd/htgbnYBMEIFBqAiuLj2Tuyk/l8eBvZOmbP5uy6CsGF/9z2AgDiyNvr7p8pJEdYRGssueGPZMIIAgkUSl4XWuCgBd2v3e4wZABDbc34fr6NoIEQSDimDfb3lqEgIkOuDoac/q9tFLfMtDoVYmxIQRECBRsrL2cnDvhmHUomgkCCfMI1EcIxEKhjdiwWxgq0MvGRNlaI+A77U6UQJ7ogEBQuDku90wGHEFg3Fvn7cMbB1qrH46CQDkILE/dFJ3ILumzMjMiC/8+mLQp1zrSyI6rCFbZc8OeSQQQBJKoFLwujyBgetNNz76dSDAqCNSF2wfzCDRz+Jttb00QuHBexYjGUQBECBRscCRXT8A46Qmzk5v1duLA+sOMcxE4L/XjmN1eTePY1L26sP6crIFAtQn4ooCdDyBoX42o2GPibVXXJ7Rr8eYD4TWEjZiyDQIQgAAEqkKgOEGgKkRbKGdWQcC8wq9upn4bKZDgsM96kwx6s/s365VPmNwvEkGQcH4TfWCFiYTtTm9+I6e/0bY6gcM5p24jQqAFg+OQXARcR75+kjLX2cgyZCAUDYgQyFUN7AyBVAKmjdqoHuvs5xIUUk/NBghAAAIQgEDPE0AQ6IIqzioIpDnHYdRAglMfhN/HIgBijnXduYPIAr93P2G+gfSQfy8f4YSG0QgBI2w0O18zMcLPP4JAFxgwWWiBgBPK3MLRHAIBCEAAAhCAAAQgAIF2EEAQaAfFVZ5jtYJAnTPfzNnvoe0IAqs0Pg6HAAQgAAEIQAACEIAABCpLAEGgC6r+5oMJuddDTnpRAoUyU3Z8IAABCEAAAhCAAAQgAAEIQCA/AQSB/MzafsTnk9/J6A9TCa8KbDwuvyjHu1vTUWbKjg8EIAABCEAAAhCAAAQgAAEI5CeAIJCfWduPeDg/J58+fECUQI4oCY0OUGbKjg8EIAABCEAAAhCAAAQgAAEI5CeAIJCfWUeOGJt+ZBxc7fVm+EB6ZISyUUYqBigzPhCAAAQgAAEIQAACEIAABCDQGgEEgda4deQo7e3WEHgdF6+T5fGtZ6BslBGRAR0xQU4KAQhAAAIQgAAEIAABCFSIAIJAhSqbokIAAhCAAAQgAAEIQAACEIAABCwBBAFLgiUEIAABCEAAAhCAAAQgAAEIQKBCBBAEKlTZFBUCEIAABCAAAQhAAAIQgAAEIGAJIAhYEiwhAAEIQAACEIAABCAAAQhAAAIVIoAgUKHKpqgQgAAEIAABCEAAAhCAAAQgAAFLAEHAkmAJAQhAAAIQgAAEIAABCEAAAhCoEAEEgQpVNkWFAAQgAAEIQAACEIAABCAAAQhYAggClgRLCEAAAhCAAAQgAAEIQAACEIBAhQggCFSosikqBCAAAQhAAAIQgAAEIAABCEDAEkAQsCRYQgACEIAABCAAAQhAAAIQgAAEKkQAQaBClU1RIQABCEAAAhCAAAQgAAEIQAAClkBuQeDbyVnhCwNsABvABrABbAAbwAawAWwAG8AGsAFsoNw2kFsQsEoCSwhAAAIQgAAEIAABCEAAAhCAAATKSwBBoLx1R84hAAEIQAACEIAABCAAAQhAAAItE0AQaBkdB0IAAhCAAAQgAAEIQAACEIAABMpLAEGgvHVHziEAAQhAAAIQgAAEIAABCEAAAi0TQBBoGR0HQgACEIAABCAAAQhAAAIQgAAEyksAQaC8dUfOIQABCEAAAhCAAAQgAAEIQAACLRNAEGgZHQdCAAIQgAAEIAABCEAAAhCAAATKSwBBoLx1R84hAAEIQAACEIAABCAAAQhAAAItE0AQaBkdB0IAAhCAAAQgAAEIQAACEIAABMpLAEGgvHVHziEAAQhAAAIQgAAEIAABCEAAAi0TQBBoGR0HQgACEIAABCAAAQhAAAIQgAAEyksAQaC8dUfOIQABCEAAAhCAAAQgAAEIQAACLRNAEGgZHQdCAAIQgAAEIAABCEAAAhCAAATKSwBBoIvq7uH8nHw++Z3cfDAhN/gmMlA2ykhZ8YEABCAAAQhAAAIQgAAEIACB1gkgCLTOrq1Hjk0/kk8fPpDRH6bk3uy0jPNNZKBslJGyUmZ8IAABCEAAAhCAAAQgAAEIQKA1AggCrXFr61Ha260OLkJAdiFEWSkzIgXaaoqcDAIQgAAEIAABCEAAAhCoEAEEgS6obA2B115vogKyCwLKSpkpOz4QgAAEIAABS+BGbbfsfG1A7tkVLCEAgUoTWJ78Z8fLTxrZERfBKntu2FMJIAh0gR3ouHiiA/KJASoIKDNlxwcC3UzgXv+BHM7JuPS/dkD6x7u5ROQNAl1M4OYJ2blrtxy72cV5JGsQgEChBB5//Kx02gkljexVWgSr7LlhTyXQcUHAPAzv2m1u0HqT3rnrhNyAfYSATiBIdEB+QUCZKTs+EGg/AXXMd8urbfHMh+SYXvtqQ9myGXFo/GMj11D3eorjkw0qe5WHgNf2vOcFtfUcAtn4gLzaoK0E5yR6oDzmQE4hsEoCKgTMXf6JqBPaqQ9pZCdbBKvsuWFPS6CzgoC5OUcFABPKl+cGb3Paw8u8gsCF84dl3flBT0QYPi3raofTv3a/lEkKb12tybpaTY6PNXbITZqN0olv6xuQW7E0vbS8vAe/48fp/4Rj0wQTBIEebhhrWrRxuXfTcy5y9TT6znzgeDR1TqLXx6DIeu1s6rR4jlOu/AUJ8AMC3UjAFwMc2/eeGVLaSaQIjnjmHB/ZJSK2RbbwBwIQ6FECKgSoIKDfTkUJkEZ24ymCVfbcsKcl0FlBwKYSWXo37fb0vEVOXNo/+QSBUbk1NirH+xxRIOZ4W+fZON1WEGgmHCQ55s2EgrEB2dJkn4jjb/MyOy26fsvV0frICM0ngkBpbbnnMm4ciCzOiF9y3T/NGYnDSTi3Oj/Zr40IAnGk/C85AdMm4hEBWZ4ZfCHBj8LxIhPd8/jb6YwouYGQfQg0JrCy8L2szIzI8sPrsjTeL4uj7wRigI0SWBo7I8sP/irL3/9LVubGRZYXGp80tpU0YkAa/C2CVYPk2ZSDAIJADlid2jWPIKA99YmOdIIoUCcIOI622eb8H5/1RYZg3aDsbeLsj2cQBBLFCQSBTpkS5+0AAdNDmSfcH0GgA7XAKatAwLS1uvZTHzVQx0KFhHgbNeJCOLwmu9BWd3ZWQAACJSGw+N8TEQHARgakLeev/VpWpr/MVTrSyI6rCFbZc8OejQgULwj4Y/wIcw2rpRBBQAUD48D7wwu0t35Mow1ivfxOJMHe4cbDCFYrCKQOdQhEiSbpM4dAaET86hABG4bs9jY2SEqdkDqHJmV/47BEow+IEEhhxeoKEIj28rsFNkJB5vmHbDRAKAYEQ3iytk03cX5DAAKlIrD01R8ziQKPP/6trMy1Ng8VaWQ3iSJYZc8Ne6YRKFgQsA/X0YfgtMxVZX0RgoA3B0D9XAHpEQcZhiXExYSEKIXEuQfODzJkoCrGXfZy+k57v74pIN4DmVQ2BIEkKqyDQAYC6YKANwQg5bmhbiLBBuJdnn0z5JhdIACB7iSwdO9PDUWBx0MviCxOryrzpJEdXxGssueGPZMIFCcIBDfiBjfrpBxWYF0RgoAJ3Xd6/1N75525BNoXIZBBXEgQE+xwg0ZLZccHAp0h4DooKmZmuHYZASGhZzJ1csGok0OEQGdqkrOWgYDb3qL5bSgIRHeN/fM6IYhIjGHhLwQqQGDxztFUUaBdxSeN7CSLYJU9N+wZJ1CIIOCF++lDcvThN56Zqv4vVBBwwvFN770z0V/oeHsOfNsEATtUoa8mW0x6Oj9Bgzcj1A5L07R9AQFBoKqtpoByG+c+FAGMU9IkSsDskzUs2Y8+cF/DiiBQQL2SRJcSSBcEmg8Z8I9NFd4SRLqs7bRLaZEtCECgMYGFW79LFQTyzhuQlhJppJGpX18Eq/pUWZOVQMcFASsGMKFPepWshSCQGMrvO+l7h9srCJg3CvTVZF3fadnbVz8pYmTyw5yRAggC6XbFltUQSHJOmvc2ZhENGuUKQaARHbb1OgHzvJDgqKetb86jeZttfg72gAAEykhg/trWQBCY//vTwW+dYHDpm0ttKRJpZMdYBKvsuWHPOIHOCgJ++CzhenHs0f/FCgKeU77OH8e/rnZaLhgn3A3rb6cgoNEAp+X41ZpomuOzg7LXiVLQqAQEgag98G/tCaSGKOs1LcFhsTnO59Dbo8JlvuM90YLra8iPX+Um4LW7MCrHK43n1GfuVNA2GkTyuIKA9zvcVm5W5B4CEEgnsLL4SOau/FQeD/5Glr75s9lRXzG4+J/DRhhYHHk7/eCMW0gjIygRKYJV9tywZxKBjgoCrav6SVnt3XXFCgIDcsvvhb81Nuo56EFkgJ3Vv32CgIkOuDoac/p98SF12IAVKWx+0pdECPRuu1izkjURMs11LXA43Fy6zoe7PvtvBIHsrNizFwn4TrsjuuV5jggEhZvjcs/gcdrkuLfO22d3Q2GvF8lSJghUicDy1E3RieySPiszI7Lw74NJm3KtI43suIpglT037JlEoPOCQOqYPuYTsBVStCBwQXvrA2c8dL69YQT6JoL2CQIXznvnbxQF0GhbOK9BsiiAIGCtiGVbCPiTnzbujfScjLp9jJCwuusagkBbapGTlJqALwrYZwdHHEgvlj0m3v50fTziwDtLHqEhPV22QAACEIAABMpPoKOCQPnxFFOCQgWBQAhoPKmfCgZNJ/bL8NpB69A3cvobbbPHpy0RBIqx0Uqk0iQyIMrAd0CCSAEvfL9OJIge1PRfPkHAywNDBppiZYceJ2Cc+6Atipj/uQSFHgdE8SAAAQhAAAINCCAINIBT1KZ2CgLRyQK1t9/pWdfXDsbG7yc72tEIAeOw5xASbPTBlqs6JMFL33X6o3lMESYy5XNaEASKstIeT8eIAck9iekl9yce1B5MjSzI1JOZfjbd0lQQ8EWLnTg7jUGyFQIQgAAEIAABCEAgEwEEgUyYOrtTHkHAOtgsPaEBQaCztsnZIQABCEAAAhCAAAQgAIHeJYAg0AV1e/PBhNzL+bo9BIFpw0zZ8YEABCAAAQhAAAIQgAAEIACB/AQQBPIza/sRn09+J6M/TAXh9Tj7zjCHBkKJMlN2fCAAAQhAAAIQgAAEIAABCEAgPwEEgfzM2n7Ew/k5+fThA6IEGjj/cZFEIyqUmbLjAwEIQAACEIAABCAAAQhAAAL5CSAI5GfWkSPGph8ZB1d7vRk+kB4hoGyUkYoByowPBCAAAQhAAAIQgAAEIAABCLRGAEGgNW4dOUp7uzUEXsfF62R5fOsZKBtlRGRAR0yQk0IAAhCAAAQgAAEIQAACFSKAIFChyqaoEIAABCAAAQhAAAIQgAAEIAABSwBBwJJgCQEIQAACEIAABCAAAQhAAAIQqBABBIEKVTZFhQAEIAABCEAAAhCAAAQgAAEIWAIIApYESwhAAAIQgAAEIAABCEAAAhCAQIUIIAhUqLIpKgQgAAEIQAACEIAABCAAAQhAwBJAELAkWEIAAhCAAAQgAAEIQAACEIAABCpEAEGgQpVNUSEAAQhAAAIQgAAEIAABCEAAApYAgoAlwRICEIAABCAAAQhAAAIQgAAEIFAhAggCFapsigoBCEAAAhCAAAQgAAEIQAACELAEEAQsCZYQgAAEIAABCEAAAhCAAAQgAIEKEUAQqFBlU1QIQAACEIAABCAAAQhAAAIQgIAlkFsQ+HZyVvjCABvABrABbAAbwAawAWwAG8AGsAFsABsotw3kFgSsksASAhCAAAQgAAEIQAACEIAABCAAgfISQBAob92RcwhAAAIQgAAEIAABCEAAAhCAQMsEEARaRseBEIAABCAAAQhAAAIQgAAEIACB8hJAEChv3ZFzCEAAAhCAAAQgAAEIQAACEIBAywQQBFpGx4EQgAAEIAABCEAAAhCAAAQgAIHyEkAQKG/dkXMIQAACEIAABCAAAQhAAAIQgEDLBBAEWkbHgRCAAAQgAAEIQAACEIAABCAAgfISQBAob92RcwhAAAIQgAAEIAABCEAAAhCAQMsEEARaRseBEIAABCAAAQhAAAIQgAAEIACB8hJAEChv3ZFzCEAAAhCAAAQgAAEIQAACEIBAywQQBFpGx4EQgAAEIAABCEAAAhCAAAQgAIHyEkAQKG/dkXMIQAACEIAABCAAAQhAAAIQgEDLBBAEWkbHgRCAAAQgAAEIQAACEIAABCAAgfISQBDoorp7OD8nn09+JzcfTMgNvm1noFyVr3LmAwEIQAACEIAABCAAAQhAoOoEEAS6xALGph/Jpw8fyOgPU3JvdlrG+badgXJVvspZefOBAAQgAAEIQAACEIAABCBQZQIIAl1Q+9pjrU4qQkAxQohyVt5ECnSB8ZMFCEAAAhCAAAQgAAEIQGDNCCAIrBn6MGENY9eea6ICihEElLPyVu58IAABCECgtwjcqO2Wna8NyL3eKhalgQAEWiSwPPnPFo/MfhhpdBer7LlhTyWAINAFdqBj24kOKE4MUEFAeSt3PhCIELh5oqEjoY7Gq/3jkUPsn3v9B1K32X1YQgACHSagbXjXbjl2s8PpcHoIQKA0BB5//Kx02mEnjezmUASr7LlhTyXQeUFgfEBe3bXb3KD1Jo1qX294OoEg0QHFCgLKW7nzgUCEwGoEgZsnvGtdbUgkft1zr4Gx3zgukRrgT+UJjEv/a84zw64DkqLB1ZPK2u6IHqhnxxoI9CgBFQLmLv9E1Ant1Ic0spMtglX23LCnJdBhQWBIjkVuvENyDFHAsg+WeQWBW1drsq5vQG7FJh4062s1OT6W5lwPyt6E7RfOH5YtV0dlfHZUjvcdlr3DacfH1+v5TsuFWD7i4oaef10txze1bIdl3flB8cqZcr6EY+P5sf8RBAIT5IclEBcEYv8bRQiYUxiH5ITcsEt73sSl5/ggCCTCYWUlCfhigPPcYML/d52QG015+M8XjZ4xiB5oSpEdINBrBFQIUEFAv52KEiCN7FZTBKvsuWFPS6DDgoBNjfA9kAAAIABJREFUJlxqWO3OTDf38Jhe/5VPEEh26seHT8u6Wk229B1OFAs8Jzj52E4LAtYBjyzHBmRLgjjh7hNx/M8PBlEUut4TMGIChTJAEOj15tLZ8sUEAIn9DwUB63yk9F5m7akktLmz9cnZy0XAOOzxNuW1tbShOl4BfSFBo3NExHvOcM9jow7cdeVCQ24hAIHmBFYWvpeVmRFZfnhdlsb7ZXH0nUAMsFECS2NnZPnBX2X5+3/Jyty4yPJC8xM7e5CGA6PJzyJYNckCmzMSQBDICKqTu+URBALn3XGo45EBXo98Us99JwSB+ogETb9plIGTf1cESPptyocg0EkT5Nx+z6EZ1mRD+tW5iAgCVgTww5lrJ+RYEM6s25xezEwRAmCHAARcAiYawIkO8LbVRw24x5jf2k59MSDYFmvTjQWF4Ch+QAACJSaw+N8TEQHARgakLeev/VpWpr/MVWLSyI6rCFbZc8OejQgUKwj4vWaEyEarJLMgoD3gvmPsCQODJsRfIwPiwwRs77rtSfdEAifM/vxp2euE8btDBtzwfrPeRB84x+pxJh8qMNjfXm+9l05N9g7rEIRYD777f5WCgJvHyG8iBKLGxb98BCICgHiCgBUI/GXoWKgI4Pc4jo9Lv85sbnv8c0QIBMfkyyl7Q6DHCER7+d3CZR82oEfZaAB3HgL/d53Y4KbCbwhAoBcILH31x0yiwOOPfysrc63NJUUa2S2lCFbZc8OeaQQ6LwhEVHqnBy0tRxVcn00Q8J1v68TbsfR9A3I8bYx+32nZq0MIgt719kQIhCH7Nk+eIOGJAUmRCQnCQAZBoE7E8MWHMP3YeRkyUMHW0+YiO4KAF3YcnQg1HDKg6TqCgJ8Nc4w6HSkRAmZ7vCezzUXgdBAoJ4F0QcBriynPD3XiW4NhAXn2LSdEcg0BCIjI0r0/NRQFHg+9ILI4vSpWpJEdXxGssueGPZMIdF4QiKTqh9yi0keoZBMEfOfXONIZnW63R978bocg4J5Df5+WvYEgkSNfGQQBL8LAm+gwFDViIkBdGbNvV+58IBAh4AgCZn3sf0QQSHH6zXH+tn4zZ0pCT6UbdcD1MFIF/KkqgRYFgYa4vGcOohIbQmIjBHqSwOKdo6miQLsKTBrZSRbBKntu2DNOoGBBQKP5vNcQcoMOqyKzIJDZiU5zij1nfu/5mqzLNGSgfiiCmbwwCMv3BIELs7rMMG+A67xnLYvZTydKrMkWd5iCjZRIWDadv8DPB4JAaIP88gnEBIDoHAIiRhCo+a8XVKc+1ttvQpt1nSsIOA5/PEIgiCigAiBQeQLpgoBpV+4cHXWsGgwTcMU397fTLutOxwoIQKD0BBZu/S5VEMg7b0AaDNJII1O/vghW9amyJiuB4gUBE2a7W8JxuFmz2rv7ZRUE6kLo1UG2DnOCY6xj613nODg+GELgCQe63p1DwD0mOg9A/LWEVhCY9l8F2P4IATM8oE9fs+gNf7BzIth8mbkSYuWx25otEQR6t021XLIsgkDqS9E9p8SInf55bmiEwGsDZn4BXW8FAXVwgv84Ji1XFwf2FgHj+Ce0h7T1zUtPhEBzRuwBgd4kMH9tayAIzP/96eC3TjC49M2lthSaNLJjLIJV9tywZ5xA8YIAEQLxOpCsgkCig2sEgSRHPOq8e07/gOxNmIAwqyBgnO8gOkDFhFAQ0LwZwSGrc54pQsA7//GrGtGgrx0clL2R9H0hImuaboTC7LThXlcZrKg2ASsI6FJ7JO1/n4o6JlEx03U49Lc3ftk6/mEEgIoFJ8QMITBRBfr/gByreYLBvWpTp/QQMARMe7ETdQZMvDYWbXfBxvof2maDyJ14+6yP6qk/AWsgAIGyE1hZfCRzV34qjwd/I0vf/NkUR18xuPifw0YYWBx5e9VFJI3sCItglT037JlEoKOCgN7co0MDvJuz9pjxABxWRxGCgCcmqIPtTgAYvjnAjRBInLXfvGkgPoQgKgiMz+YY759BELCTB0ajAPw0UiIi1tWSxJHkIRRECIQ2yK9wOJN59aB1KJoJAv7QgBsK0IoI4g8t6B/3IgJeOyHHXnMiAmoDRgzQQINQMKAGIAABb6LO+ok8sz4zBILCzXH/GcMRBMa9dd4+0TQgDwEI9BaB5ambZmLBpFKtzIzIwr8PJm3KtY40suMqglX23LBnEoGOCgKaoAn1c8btZVb5k3Lbo+vyCQKuQ3xaLmSMEIgLAm60QdMIAZOGHVbgOtdxQcBGDeiY/wG5FeuRd9P0hjrEBQb33Bpx4Dn3UUEguk+jbZH0EvKCINCjDaqVYhlnPmF2csfJTzqt69Cb30ZIUCfEiRQwAqiucyMEnP8IpEloWVdZAp4Tb4Q5fXbI1D7sMfE3Eej6hHZtn00ynbuyFUHBIQABCECgIgQ6LghUhOOqiplNELBCQMyJ9p31SK++03senQ8gjBBwneVmgkCq091EjGj4ZgBzbKwsCU675jM1/Sbb3DIm/UYQWJXZVubguKgZOCpG6LTOhjd/gAqedSKB43SEooGHL/6/MlApKATaSMC0URvVY5192xHhtL82JsmpIAABCEAAAj1DAEGgC6oymyAQ7RkPHNwmTrkVBMz4fiMU1IfUNxMEgrSMw66iQnyoQUrerMPu7J8mXMTXu5MHuoJAWI4wD/Fjm0Yn+MIDgkAXGH+vZCGYG8WZWFDqhwRYAcAsfYclOqyqV4BQDghAAAIQgAAEIACBMhBAEOiCWlqVIJDSqx514tMd9irvhyDQBcZPFiAAAQhAAAIQgAAEIACBNSOAILBm6MOEbz6YkHs49lKkOKG8lTsfCEAAAhCAAAQgAAEIQAACVSWAINAFNf/55Hcy+sNUoQ5xkc53N6alvJU7HwhAAAIQgAAEIAABCEAAAlUlgCDQBTX/cH5OPn34gCiBgqIkNDpAeSt3PhCAAAQgAAEIQAACEIAABKpKAEGgS2p+bPqRcVK155rhA52Z80C5Kl8VA5Q3HwhAAAIQgAAEIAABCEAAAlUmgCDQRbWvPdYaxq5j23XCO77tZaBclS+RAV1k9GQFAhCAAAQgAAEIQAACEFgzAggCa4aehCEAAQhAAAIQgAAEIAABCEAAAmtHAEFg7diTMgQgAAEIQAACEIAABCAAAQhAYM0IIAisGXoShgAEIAABCEAAAhCAAAQgAAEIrB0BBIG1Y0/KEIAABCAAAQhAAAIQgAAEIACBNSOAILBm6EkYAhCAAAQgAAEIQAACEIAABCCwdgQQBNaOPSlDAAIQgAAEIAABCEAAAhCAAATWjACCwJqhJ2EIQAACEIAABCAAAQhAAAIQgMDaEUAQWDv2pAwBCEAAAhCAAAQgAAEIQAACEFgzAggCa4aehCEAAQhAAAIQgAAEIAABCEAAAmtHAEFg7diTMgQgAAEIQAACEIAABCAAAQhAYM0IIAisGXoShgAEIAABCEAAAhCAAAQgAAEIrB2B3ILAt5OzwhcG2AA2gA1gA9gANoANYAPYADaADWAD2EC5bSC3ILB22gUpQwACEIAABCAAAQhAAAIQgAAEINAuAggC7SLJeSAAAQhAAAIQgAAEIAABCEAAAiUigCBQosoiqxCAAAQgAAEIQAACEIAABCAAgXYRQBBoF0nOAwEIQAACEIAABCAAAQhAAAIQKBEBBIESVRZZhQAEIAABCEAAAhCAAAQgAAEItIsAgkC7SHIeCEAAAhCAAAQgAAEIQAACEIBAiQggCJSossgqBCAAAQhAAAIQgAAEIAABCECgXQQQBNpFkvNAAAIQgAAEIAABCEAAAhCAAARKRABBoESVRVYhAAEIQAACEIAABCAAAQhAAALtIoAg0C6SnAcCEIAABCAAAQhAAAIQgAAEIFAiAggCJaossgoBCEAAAhCAAAQgAAEIQAACEGgXAQSBdpHkPBCAAAQgAAEIQAACEIAABCAAgRIRQBAoUWWRVQhAAAIQgAAEIAABCEAAAhCAQLsIIAi0i2QbzvNwfk4+n/xObj6YkBt8ExkoG2WkrPhAAAIQgAAEIAABCEAAAhCAQOsEEARaZ9fWI8emH8mnDx/I6A9Tcm92Wsb5JjJQNspIWSkzPhCAAAQgAAEIQAACEIAABCDQGgEEgda4tfUo7e1WBxchILsQoqyUGZECbTVFTgYBCEAAAhCAAAQgAAEIVIgAgkAXVLaGwGuvN1EB2QUBZaXMlB0fCEAAAhCAgCVwo7Zbdr42IPfsCpYQgEClCSxP/rPj5e+VNBaXljrOqog0Ol6IHksAQaALKlTHxRMdkE8MUEFAmSk7PhCAAAQgAAFD4OYJ2blrtxy7CQ8IQAACHoHHHz8rnXbYeyWNmdk56bTDXkQa2H4+AsUKAuMD8uqu3bKzNpQvlz2+t04gSHRAfkFAmSk7PhBoGwHfmVCHovn3gPSP+ymnHPdq7YR3zWt4Puc8bSsIJ4JAWQmMS/9rbvvL0T7sM0bD9kb0QFktg3xDoBUCKgTMXf6JqMPeqU+vpKFCwPc/zIo67J36FJFGp/Ley+ctUBBwbvIIAhGbyicIjMrxvsOydzjJgU7fdutqTdbVDuf+brk6asSKC+dzHts3ILdiEyMGeTg/KMHvpDwlHJsmmCAIREyJP6sloI59llBj43gkOSrede7VQClwM9Rom7sfvyFQVQL+c4LTBk34/64TcqMpkiE5ZoUA5/jIYUQPRHDwBwJVIKBCgAoC+u1UlECvpKFCgAoC+u1UlEARaVTBrttdxuIEAXMjPiCvqvKPIBCpx9UIAs0d9ZocH0sSD7x1erx1+tOc7tT1YwOypdb4/BHH//xgEAmh6xPTHT4t6xAEIvbBnwIJdFIQMCJCFsemwPKSFAS6iYD/nBDV0zxHP1lks5n3hQT/2eJe/wHZucsV7PztkXX2WJYQgECvEFhZ+F5WZkZk+eF1WRrvl8XRdwIxwEYJLI2dkeUHf5Xl7/8lK3PjIssLuYrfM2msrMjy8rJx/BcWFmX+8UIgBtgogccLi7KwuCRLS8uyvLySi5PuvFJAGrkzxQGJBAoSBLwb+rGb0Zt2Yo4quHI1gsD47KDsrdmIgWiEgHHGHSe8zrE3Dv1puRDrya/bL217BkHAniueFwSBChp6GYrcdkHA6bW0vZexZWNHpwzQyCME2kMgeTLA+qiButS03cY7Goy4EA49oJ3VUWMFBHqOwOJ/T0QEABsZkLacv/ZrWZn+MheHXkkjLgDYyIC05fTMnCwtL+diVUQauTLEzqkEChEEwps8gkBSTWQVBOqiAYKedBUFtKc+FATMvioGjI36ofvetlzDBoLzp0QYrFIQSM1Ls3QdgYIhA0kWxbqWCcSciMbzCLg9kDZF7xoXOh8qCCTtp/vH97XnYAmBKhJIfz7IPmxAufnniQlvpi2nDSWoIm7KDIEeJbD01R8ziQKPP/6trMy1Ng9Vr6Tx+PFiJCogTQzQMP/llfwRAmpiRaTRo6ZcaLE6Lgh4oXs2TDb9hl9oqbsssayCgNfbHjr94xpenzQGP77OONjOcepQ14XmN9ueIApkEATqRAzNmz+HAEMGuswQyY5IUoRAUqh/5jkEYoJA5PwIApgcBEIC6c8H0eeI8Ajzy7TFMBIgOlRgFfvGDuUvBCBQHgJL9/7UUBR4PPSCyOL0qgrUK2nosIA0IUDXz/w4b0L/VwOriDRWkz+OFemsIODfqMPX/6Tf8KtcGS0LAk5PuQ3NT182c/ibbW9NEHBFDBUC0vOXcP4M5SNCoMotp6CyJwkCqUnHnXwEgVRUbIBAhED680FDQSByjvgfb8hO+AwS385/CECgVwks3jmaKgq0q8y9ksbcfHT+AFcgaBerItJoV16reJ4OCgLejTgMnVW86Tf8KsK3ZV6NIJDYAx+JELCT/iU4/JH9vLcIBG8vqIsgSHDYM0QIGAHA7HdY1vXVZIsRBbx5DxpFNwT5aCIKIAhYK2K5agK5hgvYHsn4cAAEgVXXAyeoKIH054PmQwb8Y5OGCaStY/hARe2MYleFwMKt36UKAnnnDUhj1itpzP44nxolkHfegDRWRaSRljbrmxPomCDgKfr2oTl5GRULmme2V/dYrSCgofc6SV/oRA/KXjNMwM4toM58giAQGavfbHvrgoCZQLCvJuv6Tsvevvq3Guj2VqMHEAR6tVWsQbki4fxO+mkRAmZ9PkHAXBeDyc/i4oGTJj8hUEEC4XxD0cKnrY/ulfSPCIEkKqyDQBUIzF/bGggC839/OvitEwwufXOpLQh6JQ2dMNBGBfww82PwW9fpWwba8SkijXbks6rn6JggkAw0vQcgef9qrG1FEDC9630Dctx/baBxqt0e/yyCgLu//zsQFdoWIaCixGk5Hjj9VqwIBQYEgWrYedeXsgBBQB2bUAhFEOh6myCDhRLwOhLiIltStGGDbGk7DkQ3VxDwfofbGpyDTRCAQKkJrCw+krkrP5XHg7+RpW/+bMqirxhc/M9hIwwsjry96vL1TBorK/Loh1mZnp0LnH99xeDc/GMjDGio/2o/+vrBTqex2jxW/XgEgS6wgKyCgDc8wA4B8BxqXdfNEQImOsCPYAijALxohPQhA9lfhUiEQBcYcK9koSOCgAPHn1NFZzsPRQFnOz8hUHkCvtPuhPPniQ4IBIWb43LPsHQEgXFvXRC96KRReewAgECPEVieuik66V/SZ2VmRBb+fTBpU651vZLG4tKy6KR/SZ/l5WX5ce5x0qZc64pII1eG2LmOAIJAHZLiV2QVBJIm5LOCQNK28dm1HzJw4bzn3DeKAmi0LblcYXQBgkDx9tqzKbYkCNg3qFgqab3+nmNihAArDOCQWGgsIeAQ8EUBO/Y/Uzuxx8Tbo66PRxx4SeURGpzM8RMCEIAABCDQcwQKFgR6jl9bCrRaQSC9p10nCrQRBc165b1JBSPniswxEDrhgZOedVLB2Wkzx0EYIRA9F4JAW8yIk6yWQBZBwDrz1lkJQpP94VBmfdQpMY7Hrt0Sn+ncW5/srKy2KBwPgSoRMG0paIsits1pNM7OTIJClWhRVghAAAIQgECUAIJAlMea/FutIKBDBgInPTIrf4MIgch+UQfdnMuZQ8A47AnzDUTEg4Ttbr5cp7/5mxH0jQQDcqtZHmenhQiBNTHZaiVqRICok58FgA1Nbjg8QEWIXfnPnSV99oEABCAAAQhAAAIQgEAzAggCzQgVsH01gkCyEJDg4Gdwrst4LgSBAgyUJCAAAQhAAAIQgAAEIACBniSAINAF1XrzwYTc61GHvZMigzJTdnwgAAEIQAACEIAABCAAAQhAID8BBIH8zNp+xOeT38noD1MpYf/V6e3PKx4oM2XHBwIQgAAEIAABCEAAAhCAAATyE0AQyM+s7Uc8nJ+TTx8+IEogR5SERgcoM2XHBwIQgAAEIAABCEAAAhCAAATyE0AQyM+sI0eMTT8yDq72ejN8ID0qQtkoIxUDlBkfCEAAAhCAAAQgAAEIQAACEGiNAIJAa9w6cpT2dmsIvI6L18ny+NYzUDbKiMiAjpggJ4UABCAAAQhAAAIQgAAEKkQAQaBClU1RIQABCEAAAhCAAAQgAAEIQAAClgCCgCXBEgIQgAAEIAABCEAAAhCAAAQgUCECCAIVqmyKCgEIQAACEIAABCAAAQhAAAIQsAQQBCwJlhCAAAQgAAEIQAACEIAABCAAgQoRQBCoUGVTVAhAAAIQgAAEIAABCEAAAhCAgCWAIGBJsIQABCAAAQhAAAIQgAAEIAABCFSIAIJAhSqbokIAAhCAAAQgAAEIQAACEIAABCwBBAFLgiUEIAABCEAAAhCAAAQgAAEIQKBCBBAEKlTZFBUCEIAABCAAAQhAAAIQgAAEIGAJIAhYEiwhAAEIQAACEIAABCAAAQhAAAIVIoAgUKHKpqgQgAAEIAABCEAAAhCAAAQgAAFLILcg8O3krPCFATaADWAD2AA2gA1gA9gANoANYAPYADZQbhvILQhYJYElBCAAAQhAAAIQgAAEIAABCEAAAuUlgCBQ3roj5xCAAAQgAAEIQAACEIAABCAAgZYJIAi0jI4DIQABCEAAAhCAAAQgAAEIQAAC5SWAIFDeuiPnEIAABCAAAQhAAAIQgAAEIACBlgkgCLSMjgMhAAEIQAACEIAABCAAAQhAAALlJYAgUN66I+cQgAAEIAABCEAAAhCAAAQgAIGWCSAItIyOAyEAAQhAAAIQgAAEIAABCEAAAuUlgCBQ3roj5xCAAAQgAAEIQAACEIAABCAAgZYJIAi0jI4DIQABCEAAAhCAAAQgAAEIQAAC5SWAIFDeuiPnEIAABCAAAQhAAAIQgAAEIACBlgkgCLSMjgMhAAEIQAACEIAABCAAAQhAAALlJYAgUN66I+cQgAAEIAABCEAAAhCAAAQgAIGWCSAItIyOAyEAAQhAAAIQgAAEIAABCEAAAuUlgCDQRXX3cH5OPp/8Tm4+mJAbfBMZKBtlpKz4QAACEIAABCAAAQhAAAIQgEDrBBAEWmfX1iPHph/Jpw8fyOgPU3JvdlrG+SYyUDbKSFkpMz4QgAAEIAABCEAAAhCAAAQg0BoBBIHWuLX1KO3tVgcXISC7EKKslBmRAm01RU4GAQhAAAIQgAAEIAABCFSIAIJAF1S2hsBrrzdRAdkFAWWlzJQdHwhAAAIQgIAlcKO2W3a+NiD37AqWEIBApQksT/6z4+XvlTQWl5Y6zqqINDpeiB5LAEGgCypUx8UTHZBPDFBBQJkpOz4Q6F4C49L/2m55tX88exZvnpCduw5I0iH3+g/g6GQnyZ5VJGDaz245drOKhafMEIBAEoHHHz8rnXbYeyWNmdk56bTDXkQaSXbAunQCHRcEjFK/a7fsjHxPyI30PFVui04gSHRAfkFAmSk7PhBYPYEhORa5RoXXLHUsjCOeuL3ZtSyvIODtv7M2lFCkvOdKOAWrIND1BPw2ELS3ZHEssRjjA/JqcFzYhqPPH0QPJLJjJQR6lIAKAXOXfyLqsHfq0ytpqBDw/Q+zog57pz5FpNGpvPfyeTssCDR6uO1lrPnKtlpB4ML5w7Ll6mhmUSHv/up46zHrajm+fQNyKzYx4q2rNe8c5wcl+J10zoRj0wQTBIF8tsbeeQh416/UnkbjfISCQLpokO6YxM+dfo4TcsPv+axzbnbljEDIg4B9IVAoAf+ZwQn39zoVwnaWnh1H1HOOj+xP9EAEB38gUAUCKgSoIKDfTkUJ9EoaKgSoIKDfTkUJFJFGFey63WVEEGg30RbOV6ggMDYgW2o1OT7WWo98xDHPcK6I439+MBAtdH2iiDF8WtYhCLRgRRzSfgItCAJ1PfveOeqHDHjOS0QQ8Hs3zb51wwbC/T3RIIuD1H4inBECHSVQZ/eammf79W3IzYkvJPjtz2sjbmSBvz1lKI57Jn5DAALlJbCy8L2szIzI8sPrsjTeL4uj7wRigI0SWBo7I8sP/irL3/9LVubGRZYXchW4Z9JYWZHl5WXj+C8sLMr844VADLBRAo8XFmVhcUmWlpZleXklFyfdeaWANHJnigMSCRQiCDS+kSfmq1IrswsCg7I3qUc9dd1puZDWS596jBsF0EQ4yCAIWAHBCAMIApWy67IVNq133jjtqaHIoWNujm9ZEEgSDtQR8s+vjpJ77lh0QtlYk18IJBFIngzQd+bTev31RPH2Ydc5wwd4DkkizjoI9BaBxf+eiAgANjIgbTl/7deyMv1lLgi9kkZcALCRAWnL6Zk5WVpezsWqiDRyZYidUwl0WBDIouyn5q0yG/IJAvVOfuIQAOOsx/f1BIW9w22IDlChYZWCQOoQBCIEKmP73VRQdUaiToPniBhBIMnhiDnlqxMEHBLmvG7vpncdTRoqYNa5QoFzGn5CoFwEfMc/wZ6zDxvQEvvnccSAoO00EhXKBYvcQgACKQSWvvpjJlHg8ce/lZW51uah6pU0Hj9ejEQFpIkBGua/vJI/QkCrqIg0UkyB1TkIFCIIBDdjc4MOe9Ry5LOndy1KEDDzAPQNyAU7lr9hlEBcTEgQETIIAolzD/hzCDBkoKfNumSFc5z/hJyrsx8VC+p3SoswiF7/ovMJuEMGko9XYUAFAVcgCNM2jlKCAxXuwS8IlIVAuiDgtY2UZ4e66J3ktmIo5Nm3LNjIJwQgUEdg6d6fGooCj4deEFmcrjsuz4peSUOHBaQJAbp+5sd5E/qfh0183yLSiKfJ/3wEOiwIxDNje7pSbuzx3SvyP58g4Ib0N/vtOPU6Nr/m/I8NJbCh/bmWGQQB73yjcrzvsKxzhgzkSqdBXpUdHwisnoC9NkUddnXmX+0fMq8OTHPsrVBgnJY659xzcuw+YT699FxBwG7znB/XqUEQsGxY9jKBFgWBhkjS21nDw9gIAQiUnsDinaOpokC7CtcraczNR+cPcAWCdrEqIo125bWK5ylYENBoPu+1QPUPyFXE75U5nyBQ79RnGTJw6+ppOT6sEwo2ExF0e5O5A6yDnlUQMPsdlnV9NdliRIHmcyFkHdaAIFDddtP2ko+Py73ISR1nvm6b7uhsF//VhKsWBHynKBIRkC5WGJGiLs1IIfgDgZIQSBcEmg8ZsO2mXtBLE/J2MnygJHZBNiHQGoGFW79LFQTyzhuQloNeSWP2x/nUKIG88waksSoijbS0Wd+cQPGCQKYZg5tnvJf2KEIQyN4jr856ewUB80aBvpqs6zste/vqX5EYn3Awe16nBUGgl1rC2pbl3s0TwTvMPcHSczK0F9/dFk7uF27XnLclQsDMsu44NcbZJ0JgbS2D1IsiYBz/BEc9bX3zfBEh0JwRe0CgNwnMX9saCALzf386+K0TDC59c6kthe6VNHTCQBsV8MPMj8FvXadvGWjHp4g02pHPqp6js4JAUq8aEQJ1ttbbgoAKDKfluM5bYKMDYpMGIgjUmQQr1pSA50S82j8gx3btlrqwfuO027H94XYv1N9x5pMmNYtsR3/bAAAgAElEQVSti57bExherakw4Z6fCIE1NQcSL4xA/XAZTdq2x/Fs+YhMAOoKAn47IqImG0f2gkCJCawsPpK5Kz+Vx4O/kaVv/mxKoq8YXPzPYSMMLI68verS9UwaKyvy6IdZmZ6dC5x/fcXg3PxjIwxoqP9qP/r6wU6nsdo8Vv34DgsCA/Jq5Obr35ATegCqXBH5BIEsIf92n/rhBc17373x/iZkX+cdiDnvkeMzDBkw0QFXRyXq9PtzCqQOX8iebyIEqtxy2lf2qDNv5zgJnQkvZNl39oNrWrhdc5IvQsDPuxFIvfTM8XptNOuYQ6B9tcuZykOg/hkhT3RAICjctMN/nDbqd1AEbZ3nkPKYBTmFQE4Cy1M3RSf9S/qszIzIwr8PJm3Kta5X0lhcWhad9C/ps7y8LD/OPU7alGtdEWnkyhA71xHorCCgySWGwNblo9Ir8gkC9c5y4hwC/jj/qCOe8KYAOx+AswzO1wZB4MJ5L7+N8tFoW0SAcPJo1yMIVLrpdLbwdY55LLlm2/3d1aFJmzMlEAHMfAS+EFF3XnVqXIEgzIdxlgKBIlzPLwiUl4AvCthomkyOuz3Ginm29E3aTqZz23OxhAAEIAABCPQmgc4LAr3Jra2lyi4IJDv0gQNf5zA7vf1125LPpY62cdD7BuT4+SZvBsgQIWAd90ZOf6Nt9vi0JYJAW02x8ieLRAKYNwxEw5SD3kXfWUlz9CMg46KodXT8ZXTYgJ141RUArLOTMhwBQSCCmz/VIxAXxiLtGKe/egZBiSEAAQhAIBcBBIFcuDqz82oFgXE7i39SCH6jkP9UkcCG9HuTCxqHPencTdZtuToq1pF3nX4VMNY1ObbhUAUn3wgCnbFJzrqGBIgQWEP4JA0BCEAAAhCAAASqRQBBoAvqe9WCgOMgWwe8KksEgS4wYLIAAQhAAAIQgAAEIAABCJSSAIJAF1TbzQcTcq/CTn2r4oUyU3Z8IAABCEAAAhCAAAQgAAEIQCA/AQSB/MzafsTnk9/J6A9TQXh9qw5y1Y5TZsqODwQgAAEIQAACEIAABCAAAQjkJ4AgkJ9Z2494OD8nnz58QJRAjigJjQ5QZsqODwQgAAEIQAACEIAABCAAAQjkJ4AgkJ9ZR44Ym35kHFzt9Wb4QPobEJSNMlIxQJnxgQAEIAABCEAAAhCAAAQgAIHWCCAItMatI0dpb7eGwOu4eJ0sj289A2WjjIgM6IgJclIIQAACEIAABCAAAQhAoEIEEAQqVNkUFQIQgAAEIAABCEAAAhCAAAQgYAkgCFgSLCEAAQhAAAIQgAAEIAABCEAAAhUigCBQocqmqBCAAAQgAAEIQAACEIAABCAAAUsAQcCSYAkBCEAAAhCAAAQgAAEIQAACEKgQAQSBClU2RYUABCAAAQhAAAIQgAAEIAABCFgCCAKWBEsIQAACEIAABCAAAQhAAAIQgECFCCAIVKiyKSoEIAABCEAAAhCAAAQgAAEIQMASQBCwJFhCAAIQgAAEIAABCEAAAhCAAAQqRABBoEKVTVEhAAEIQAACEIAABCAAAQhAAAKWAIKAJcESAhCAAAQgAAEIQAACEIAABCBQIQIIAhWqbIoKAQhAAAIQgAAEIAABCEAAAhCwBHILAt9OzgpfGGAD2AA2gA1gA9gANoANYAPYADaADWAD5baB3IKAVRJYQgACEIAABCAAAQhAAAIQgAAEIFBeAggC5a07cg4BCEAAAhCAAAQgAAEIQAACEGiZAIJAy+g4EAIQgAAEIAABCEAAAhCAAAQgUF4CCALlrTtyDgEIQAACEIAABCAAAQhAAAIQaJkAgkDL6DgQAhCAAAQgAAEIQAACEIAABCBQXgIIAuWtO3IOAQhAAAIQgAAEIAABCEAAAhBomQCCQMvoOBACEIAABCAAAQhAAAIQgAAEIFBeAggC5a07cg4BCEAAAhCAAAQgAAEIQAACEGiZAIJAy+g4EAIQgAAEIAABCEAAAhCAAAQgUF4CCALlrTtyDgEIQAACEIAABCAAAQhAAAIQaJkAgkDL6DgQAhCAAAQgAAEIQAACEIAABCBQXgIIAuWtO3IOAQhAAAIQgAAEIAABCEAAAhBomQCCQMvoOBACEIAABCAAAQhAAAIQgAAEIFBeAggCXVR3D+fn5PPJ7+Tmgwm5wTeRgbJRRsqKDwQgAAEIQAACEIAABCAAAQi0TgBBoHV2bT1ybPqRfPrwgYz+MCX3ZqdlnG8iA2WjjJSVMuMDAQhAAAIQgAAEIAABCEAAAq0RQBBojVtbj9LebnVwEQKyCyHKSpkRKdBWU+RkEIAABCAAAQhAAAIQgECFCCAIdEFlawi89noTFZBdEFBWykzZ8YEABCAAAQhYAjdqu2XnawNyz65gCQEIVJrA8uQ/O17+XkljcWmp46yKSKPjheixBBAEuqBCdVw80QH5xAAVBJSZsuMDgXYRuNd/QHbWhpqcbkiO7dotO+236f7j0v/abjl2s8lp2QwBCKyewM0Tpm3S3laPkjNAoFcIPP74Wem0w94raczMzkmnHfYi0ugV2y2qHAUJAt4DcfAAvYuHY7eCdQJBogPyCwLKTNnxgUC7CEQFgZjjbwWAXSfkRt4Exwfk1VaOy5sO+0Og9ATizwsHpH88Y6FMO3PEuqDNxtYRPZARKLtBoPwEVAiYu/wTUYe9U59eSUOFgO9/mBV12Dv1KSKNTuW9l8/beUHA3qCb9qL1MubGZVutIHDh/GHZcnU0s6iQd391vPWYdbUc374BuRWbGPHW1Zp3jvODEvxOOmfCsWmCCYJAY9tiaz4CUUEgfqwnEKT3PKYJCDFnJO6k4JzEQfO/sgR8McBpEyb8P5OY5rQ/5/gISqIHIjj4A4EqEFAhQAUB/XYqSqBX0lAhQAUB/XYqSqCINKpg1+0uY4cFAf/mjhjQsN4KFQTGBmRLrSbHx1rrkY845hnOFXH8zw8GooWuTxQxhk/LOgSBhvbCxg4Q8B0FN4rp1bpuyWyCQLJg4F0Lk7d1oDycEgJlJGDaYTwiwGt39e3RLWD0WcMIe7vc8/jbI+vc4/kNAQj0AoGVhe9lZWZElh9el6XxflkcfScQA2yUwNLYGVl+8FdZ/v5fsjI3LrK8kKvoPZPGyoosLy8bx39hYVHmHy8EYoCNEni8sCgLi0uytLQsy8sruTjpzisFpJE7UxyQSKCzgoCJDnBvyol5qPzK7ILAoOxN6lFPXXdaLqT10qce40YBNBEOMggCVkAwwgCCQOVtvdsBuBECnlPRpHff9Pbba1xUMHDPJRITBIzj08LQg24HSP4gsAoCyZMB+s58Wq+/pqftKd7xEBP5GgsKq8g0h0IAAl1DYPG/JyICgI0MSFvOX/u1rEx/mSv/vZJGXACwkQFpy+mZOVlaXs7Fqog0cmWInVMJdFQQ8B6oeehNpe9vyCcI1Dv5iUMAjLMe39cTFPYOtyE6QIWGVQoCqUMQiBBoZjJs7xCBqBMfTyTq8Me3irjbYwJATBBQxwcHpZ4ga6pMwHf84469iGQfNqD8/PPEh+bo/0aiQpXRU3YI9BCBpa/+mEkUePzxb2VlrrV5qHoljcePFyNRAWligIb5L6/kjxBQsyoijR4y3zUrSkcFgUDtR6lvWMFFCQJmHoC+Ablgx/I3jBKIiwkJIkIGQSBx7gF/DgGGDDQ0CzauAQFPEBiIvhXAv34du+k6/EmZc7YH1zwriDoCgZ1XhclVkyCyrrIE0gWBhp0LTnvyhvzYiJ0EkHn2TTicVRCAQDkILN37U0NR4PHQCyKL06sqTK+kocMC0oQAXT/z47wJ/V8NrCLSWE3+OFak84KAqvKu4m9vyO66itdEPkHADelv9ttx6nVsfs35HxtKYEP7cy0zCALe+UbleN9hWecMGciVToO8Kjs+EGgLAXttso567P+98QHzusFj/frGgHAoQdjTbwUBuxQJHRkrCLhOj7dfeHxbSsFJIFBSAm7biBYhbEfR9c3/hW2x+b7sAQEI9BKBxTtHU0WBdpWzV9KYm4/OH+AKBO1iVUQa7cprFc9TgCBge8hCvPnC/8LjevVXPkGg3qnPMmTg1tXTcnxYJxRsJiLo9iZzB1gHPasgYPY7LOv6arLFiALN50LIOqwBQaBXW0XB5TI9+gfkWO1AKGAaQcDtbax3LqKh/7r9gLz6WnQ4gDozr/YPeVEHKia4Ycuahvu/4GKTHAS6h0C6IND8mcE/1hHq3AlCE3/T7rqn6skJBDpAYOHW71IFgbzzBqRlr1fSmP1xPjVKIO+8AWmsikgjLW3WNyfQUUHAqPoJN93W1f7mBSrjHkUIAtl75NVZb68gYN4o0FeTdX2nZW9f/SsS4xMOZs/rtCAIlNHiuzfP5tpko5daFATqXk5gius5LLxloHvrnpytPYFgmGEsK2nrY7sl/K0X8RJ2YhUEINCDBOavbQ0Egfm/Px381gkGl7651JYS90oaOmGgjQr4YebH4Leu07cMtONTRBrtyGdVz9FRQcDM/Jvw/uDman+1qqO3BQEVGE7LcZ23wEYHxCYNRBColr13c2nrBQF3aECTIQOBgJCvtxKRoJstgrwVScDrLHCjcjR1z6nPPLRGo32sqBeZ6NM7T7ityJKRFgQgUCSBlcVHMnflp/J48Dey9M2fTdL6isHF/xw2wsDiyNurzk7PpLGyIo9+mJXp2bnA+ddXDM7NPzbCgIb6r/ajrx/sdBqrzWPVj++sIGBn+3WjBPzJtjLf3CtQQ/kEgSwh/3af+uEFzXvfvfH+JmRf5x2IOe+R4zMMGTDRAVdHJer0+3MKpA5fyJ5vIgQq0EAKLGK9IOA6J/W9jSpuBtcyc22rHyLlZZ8IgQKrkaRKS8B32p1nhjzRAYGgcHNc7hkGTpsd99Z5+/DGgdKaCBmHQAYCy1M3RSf9S/qszIzIwr8PJm3Kta5X0lhcWhad9C/ps7y8LD/OPU7alGtdEWnkyhA71xHosCDgpedFBIQ9bfSIReshnyBQ7ywnziHgj/OPOuIJbwqw8wE4y+B8bRAELpz38tsoH422RQQIJ492PYJA1Jb4tzoCqxEEzLGOIxPNCYJAlAf/IJBGwBcF7HwAqW3KPd4eExfkdL0r6oXH5BEawqP4BQEIQAACEOg9AoUIAr2Hrb0lyi4IJDv0gQNf5zA7vf1125LPpY62cdD7BuT4+SZvBsgQIWAd90ZOf6Nt9vi0JYJAe22x6merFwRCITNxYrJdNkLAc0js5IFp+yavT3ZYql4XlB8CWQkY5z4YJiAS6YTIJChkTYn9IAABCEAAAr1HAEGgC+p0tYLAuJ3FPykEv1HIf6pIYEP6vckFjcOedO4m67ZcHRXryLtOvwoY65oc23CogpNvBIEuMOBeyIIZ/+85/0EEUzAnQHoB1fEwQwbGx6W/Fu+dTD+OLRCAAAQgAAEIQAACEOgGAggCXVALqxYEHAfZOuBVWSIIdIEBkwUIQAACEIAABCAAAQhAoJQEEAS6oNpuPpiQexV26lsVL5SZsuMDAQhAAAIQgAAEIAABCEAAAvkJIAjkZ9b2Iz6f/E5Gf5gKwutbdZCrdpwyU3Z8IAABCEAAAhCAAAQgAAEIQCA/AQSB/MzafsTD+Tn59OEDogRyRElodIAyU3Z8IAABCEAAAhCAAAQgAAEIQCA/AQSB/Mw6csTY9CPj4GqvN8MH0t+AoGyUkYoByowPBCAAAQhAAAIQgAAEIAABCLRGAEGgNW4dOUp7uzUEXsfF62R5fOsZKBtlRGRAR0yQk0IAAhCAAAQgAAEIQAACFSKAIFChyqaoEIAABCAAAQhAAAIQgAAEIAABSwBBwJJgCQEIQAACEIAABCAAAQhAAAIQqBABBIEKVTZFhQAEIAABCEAAAhCAAAQgAAEIWAIIApYESwhAAAIQgAAEIAABCEAAAhCAQIUIIAhUqLIpKgQgAAEIQAACEIAABCAAAQhAwBJAELAkWEIAAhCAAAQgAAEIQAACEIAABCpEAEGgQpVNUSEAAQhAAAIQgAAEIAABCEAAApYAgoAlwRICEIAABCAAAQhAAAIQgAAEIFAhAggCFapsigoBCEAAAhCAAAQgAAEIQAACELAEEAQsCZYQgAAEIAABCEAAAhCAAAQgAIEKEUAQqFBlU1QIQAACEIAABCAAAQhAAAIQgIAlkFsQ+HZyVvjCABvABrABbAAbwAawAWwAG8AGsAFsABsotw3kFgSsksASAhCAAAQgAAEIQAACEIAABCAAgfISQBAob92RcwhAAAIQgAAEIAABCEAAAhCAQMsEEARaRseBEIAABCAAAQhAAAIQgAAEIACB8hJAEChv3ZFzCEAAAhCAAAQgAAEIQAACEIBAywQQBFpGx4EQgAAEIAABCEAAAhD4/9u7nx+30ToOwP17OPJPIPUCN25Q9VCJC9eVuofl2AsXVp1KHIeKI6paFSQE6gFpRdl2t2glVsAyEpU6uyrb7rbTdn4mL3rtOOMkr5PYSbzj+Ik0SsbJa79+bM/M9+PXHgIECBDoroBAoLvbTs8JECBAgAABAgQIECBAgEBjAYFAYzoNCRAgQIAAAQIECBAgQIBAdwUEAt3ddnpOgAABAgQIECBAgAABAgQaCwgEGtNpSIAAAQIECBAgQIAAAQIEuisgEOjuttNzAgQIECBAgAABAgQIECDQWEAg0JhOQwIECBAgQIAAAQIECBAg0F0BgUB3t52eEyBAgAABAgQIECBAgACBxgICgcZ0GhIgQIAAAQIECBAgQIAAge4KCAQu0LZ7cXQYPn/5dXj8/MvwyFfSINpEo2jlQYAAAQIECBAgQIAAAQLNBQQCze3W2vLpwavw2YvnYe/1N+HZ24Ow7ytpEG2iUbSKZh4ECBAgQIAAAQIECBAg0ExAINDMba2t4tnuWOAKApYPQqJVNDNSYK27opkRIECAAAECBAgQINAjAYHABdjYcQh8POttVMDygUC0imbRzoMAAQIECBQCj3auhSvv3w/PigmeCRDotcDg5d82vv7bsozTs7ONW7WxjI2vxJYtQCBwATZovC7e6IB6YUAMBKJZtPMgcHEF9sPd96+F63f3l+/i41vhytUPQqrJs7sfKHSWl/TJPgpkx8+18OHjPq68dSZAICVw/PFPw6YL9m1Zxpu3h2HTBXsby0jtB6ZVC2wwEPgkfHj1WrhS9SW9H2+VeANBowPqBwLRLNp5EFhZYFRElH9e5UX8qj/H6gYC+eev7HySWKW680rMwiQCF15gdAyM/3ZIh2PJ1di/H66P2/n7I2lkIoGeCcQg4PCP3wuxYN/UY1uWEYOAb1+/DbFg39SjjWVsqu/bPN8NBgIVbKNf2NL7c59VA4F7d26Eyw/2lg4V6n4+Ft6xzaWdGl+798OTqRsjPnmwk8/jzsMwfp2aZ6JtVWAiEDjfj7xan0AccnweCFQUJDFEKAWb2dn7ZYqR0memfw5Wz+NWeJQILYoAo9YIhPUxmROBNQuMwoDScZUN/796KzxauKRSeFdqP9HM6IEJDt8Q6INADAJiIBC/NjVKYFuWEYOAGAjEr02NEmhjGX3Yr9e9jq0HAq7tm92ErQYCT++Hyzs74ebTZmfkJwrzJeY1UfjfeTgOLeL0ZIjx6e1wSSAwu5OY0qpA40Bg5sx+1Vn9vHiZCARGYWlW3GeFSzmIOP98HhosUyC1SmZhBFYXmNnv4yzzfX9+6DUKEkbHX36MlI+fYtRBedrq3TUHAgQulsDw5NswfPNFGLz4azjbvxtO9349DgOKUQJnT38bBs//HAbf/j0MD/dDGJzUWomtWcZwGAaDQVb4n5ychqPjk3EYUIwSOD45DSenZ+HsbBAGg2Etp/jhYQvLqN0pDZIC7QYCRgckN8LygcDD8F7qjHrltNvhXtVZ+so25VEAC4KDJQKBIkDIggGBQHL7m3jxBCYDgeWGHmdFSONAIBUcxEJoVPjHQqk87+xnqVDg4u05erSKQPqEwaiYrzrrHxc4fXwU00qjceYHCqv0WlsCBC6KwOl/bk0EAMXIgKrno49+GIYH/67V/W1ZxnQAUIwMqHo+eHMYzgaDWlZtLKNWh3y4UqDVQCD9y76yb715o14gMFvkJy8ByIr16c/mgcJ7n65hdEAMGlYMBCovQTBCoDf7/sVZ0fwsZDEEPz7nBUScfn5W8TwoGBUhpSJltUCgJJEV++fLLM6Qlvs28bocFJRm4yWBbglMnuUv9z3726EIx8pvJF8XowESQV7peE02NZEAgc4LnP33N0uFAscf/yQMD5vdh2pblnF8fDoxKqAqDIjD/AfD+iME4s7UxjI6v9NegBVoLxAwOqByc7cVCGT3Adi9H+4V1/LPHSUwHSYkQoQlAoHkvQdG9xBwyUDlLuGN1gVKZ+NDCBOFf6kvVdPjR/JhyokipHSWcqKQvzp5J/R0+xgMTIYSpe5k/ZwYOVB+02sCnRKoDgTyY6NiRMzob4vzY6scpk0B1PnsVFPfEiDQHYGzZ7+bGwocf/KzEE4PVlqhbVlGvCygKgiI09+8O8qG/q+C1cYyVumftiG0FghkCb90PrnP1QsEykP6F70uFfXx2vyd0vdTlxIUQ/trPS8RCOTz2ws3d2+ES6VLBmotZ05fo50HgZUFYqGQ+PmUn5lcUOSXr1ueOVufFzmzw5XzEQkT9xAYrURe/JSLGoHAytvXDDog0DAQmLtm1cfZ3GbeJECg8wKn//plZSiwrpXblmUcHk3eP6AcEKzLqo1lrKuvfZxPS4FA/kt59o/iPpLPrnO9QGC2qF/mkoEnD26Hm5/GGwouChHi+wvuHVAU6MsGAtnnboRLuzvhchYKLL4XwrKXNQgEZvcnUxoIZDczmyz8Y7GeBQKlIn96hED5/ayQL30270XdQGBUFJUuU3DJQIPtqUkHBaoDgTyYqxghkK1pcdxMHsPnowYS0xMBYAfRdJkAgQqBkyc/rwwE6t43oGIRYVuW8fbdUeUogbr3DaiyamMZVcs2fbFAO4FA8s7BizvXl0+0EQgsf0Y+FuvrDQSy/yiwuxMu7d4O7+3O/ovE6RsOLt/XgyAQ6MtR0uZ65sXFdxIITAcTWcBghECbW9+yvjuBrPBPFOpV0xf31AiBxUY+QWA7BY4++tE4EDj6yw/Gr+MNBs+++v1aVnpblhFvGFiMCnj95t34dZwW/8vAOh5tLGMd/ezrPFoJBJr/Mu/HZtnuQCAGDLfDzXjfgmJ0wNRNAwUC/djPu7OW5wV4fmYycXaxfF+A0aiA9D0A5redvGQgDyKu79wK17MRAkUxkz9Xnu2cGZXQHWk9JVAWmL1cJr6b7/9LjzCc+I8DxTF0Ph/33CiLe01gOwWGp6/C4Z++H44f/jicffWHbCXjvxg8/eeNLBg4/eJXK6/41ixjOAyvXr8NB28Px8V//BeDh0fHWTAQh/qv+oj/fnDTy1i1j31v30IgMPpj1h+tlftavUBgmSH/xWdmLy9YfPY9v94/G7If7zswVbxPtF/ikoFsdMCDvTBZ9I/uKVB5+cLy/TZCoHK38kZjgfgzK7+GPwsESj+74vdVhUm9SwZGnctucpYPhc7ax7Oj2TT3EGi8+TTssMDo74XSKIE6JxTGgcLj/fAsUygFAvv5tPwz18KV0jI6DKbrBAgkBAbfPA7xpn+px/DNF+HkH79IvVVr2rYs4/RsEOJN/1KPwWAQ3h0ep96qNa2NZdTqkA/PCGw+EBjd1XfyTNhMP3o9oV4gMFssJ+8hMLrOf7IQT/yngOJ+AKXn8fzWEAjcu5P3d14/5r03EUCU+lhMFwj0+tDZ0MqfBwLTC5gIBJa8FGqizdQMxyFAiKMDRtdICwSmlHzbL4FRKFCMwlmqcC/aTN9nYP6xLBTo155lbQkQIEAgLbD5QCC9XFNLAssHAumCflzAzxTMpbP9M++l5xUL7axA370fbt5Z8J8BlhghUBTu84r+ee8V7aueBQKlHcnL9Qhkhf50YTHnpmWLCpbp+wIUhc7oeSYsTQYCcy49KI1gWA+AuRDolkA2iqB0HGTfF8fZouOzW6uqtwQIECBAYO0CAoG1k9af4aqBwH5xF//UEPx5Q/4rQ4JiSH9+c8GsYE/Ne8G0yw/2QlHIl4v+GGBcWtB27qUKpX4LBOrvb1qkBIozjHnhnV0WMFXIpy8ViEFBeXh/at41pyUDgfQypguhmkvycQIECBAgQIAAgZ4LCAQuwA6wciBQKpCLArwvzwKBC7AD6wIBAgQIECBAgAABAp0UEAhcgM32+PmX4VmPi/qm4UU0i3YeBAgQIECAAAECBAgQIFBfQCBQ32ztLT5/+XXYe/3NeHh90wK5b+2iWbTzIECAAAECBAgQIECAAIH6AgKB+mZrb/Hi6DB89uK5UQI1RknE0QHRLNp5ECBAgAABAgQIECBAgEB9AYFAfbONtHh68CorcONZb5cPVP8HhGgTjWIYEM08CBAgQIAAAQIECBAgQKCZgECgmdtGWsWz3XEIfLwuPt4sz9esQbSJRkYGbGQXNFMCBAgQIECAAAECBHokIBDo0ca2qgQIECBAgAABAgQIECBAoBAQCBQSngkQIECAAAECBAgQIECAQI8EBAI92thWlQABAgQIECBAgAABAgQIFAICgULCMwECBAgQIECAAAECBAgQ6JGAQKBHG9uqEiBAgAABAgQIECBAgACBQkAgUEh4JkCAAAECBAgQIECAAAECPRIQCPRoY1tVAgQIECBAgAABAgQIECBQCAgECgnPBAgQIECAAAECBAgQIECgRwICgR5tbKtKgAABAgQIECBAgAABAgQKAYFAIeGZAAECBAgQIECAAAECBAj0SEAg0KONbVUJECBAgAABAgQIECBAgEAhUDsQ+N/Lt8EXA/uAfcA+YB+wD9gH7AP2AfuAfcA+YB+wD3R7H6gdCBRJgmcCBAgQIECAAAECBAgQIECguwICge5uOz0nQIAAAVTMhCkAAAJgSURBVAIECBAgQIAAAQKNBQQCjek0JECAAAECBAgQIECAAAEC3RUQCHR32+k5AQIECBAgQIAAAQIECBBoLCAQaEynIQECBAgQIECAAAECBAgQ6K6AQKC7207PCRAgQIAAAQIECBAgQIBAYwGBQGM6DQkQIECAAAECBAgQIECAQHcFBALd3XZ6ToAAAQIECBAgQIAAAQIEGgsIBBrTaUiAAAECBAgQIECAAAECBLorIBDo7rbTcwIECBAgQIAAAQIECBAg0FhAINCYTkMCBAgQIECAAAECBAgQINBdAYFAd7ednhMgQIAAAQIECBAgQIAAgcYCAoHGdBoSIECAAAECBAgQIECAAIHuCggEurvt9JwAAQIECBAgQIAAAQIECDQWEAg0ptOQAAECBAgQIECAAAECBAh0V0Ag0N1tp+cECBAgQIAAAQIECBAgQKCxgECgMZ2GBAgQIECAAAECBAgQIECguwICge5uOz0nQIAAAQIECBAgQIAAAQKNBQQCjek0JECAAAECBAgQIECAAAEC3RUQCHR32+k5AQIECBAgQIAAAQIECBBoLCAQaEynIQECBAgQIECAAAECBAgQ6K6AQKC7207PCRAgQIAAAQIECBAgQIBAYwGBQGM6DQkQIECAAAECBAgQIECAQHcFBALd3XZ6ToAAAQIECBAgQIAAAQIEGgsIBBrTaUiAAAECBAgQIECAAAECBLorIBDo7rbTcwIECBAgQIAAAQIECBAg0FhAINCYTkMCBAgQIECAAAECBAgQINBdAYFAd7ednhMgQIAAAQIECBAgQIAAgcYC/wf2M52YL8KkdQAAAABJRU5ErkJggg==;movable=0;resizable=0;rotatable=0;deletable=0;editable=0;locked=1;connectable=0;" vertex="1" parent="1">
          <mxGeometry x="-90" y="320" width="828" height="350.37" as="geometry" />
        </mxCell>
        <mxCell id="4TmH9_435ArQg_TDs74U-3" value="" style="endArrow=classic;html=1;rounded=0;" edge="1" parent="1" source="4TmH9_435ArQg_TDs74U-2" target="4TmH9_435ArQg_TDs74U-2">
          <mxGeometry width="50" height="50" relative="1" as="geometry">
            <mxPoint x="390" y="400" as="sourcePoint" />
            <mxPoint x="440" y="350" as="targetPoint" />
          </mxGeometry>
        </mxCell>
        <mxCell id="4TmH9_435ArQg_TDs74U-7" value="" style="shape=flexArrow;endArrow=classic;html=1;rounded=0;fillColor=#f8cecc;strokeColor=#b85450;" edge="1" parent="1">
          <mxGeometry width="50" height="50" relative="1" as="geometry">
            <mxPoint x="-70" y="100" as="sourcePoint" />
            <mxPoint x="400" y="350" as="targetPoint" />
            <Array as="points" />
          </mxGeometry>
        </mxCell>
        <mxCell id="4TmH9_435ArQg_TDs74U-9" value="" style="shape=image;verticalLabelPosition=bottom;labelBackgroundColor=default;verticalAlign=top;aspect=fixed;imageAspect=0;image=data:image/png,iVBORw0KGgoAAAANSUhEUgAAAuQAAAESCAYAAAC1h8D8AAAgAElEQVR4Ae2d/2sU1/u3/ZMUQVAKpbS0VHhDQAgIAUVBsRD6AcFiFSwI1YBBaDA+LYGPhCoISkpqpKi8q/JUDMSktIb62BBsqAnRmmBNsPSX++GeOWfm7OzM7GyyX+bLtRB2Mzs7c851XnPmNffc58wWyfhaf/uv8AcDNIAG0AAaQANoAA2gATTQWg1syejHMeNckKABNIAG0AAaQANoAA2ggTZoAEPeBqhcNbb2qhGe8EQDaAANoAE0gAbKrAEMOYacK100gAbQABpAA2gADaCBLmoAQ95F+GW+0qNuRDLQABpAA2gADaABNJBNAxhyDDlXxGgADaABNIAG0AAaQANd1ACGvIvwuWrMdtUIJzihATSABtAAGkADZdYAhhxDzhUxGkADaAANoAE0gAbQQBc1gCHvIvwyX+lRNyIZaAANoAE0gAbQABrIpgEMOYacK2I0gAbQABpAA2gADaCBLmoAQ95F+Fw1ZrtqhBOc0AAaQANoAA2ggTJrAEOOIeeKGA2gATSABtAAGkADaKCLGsCQdxF+ma/0qBuRDDSABtAAGkADaAANZNMAhhxDzhUxGkADaAANoAE0gAbQQBc1gCHvInyuGrNdNcIJTmgADaABNIAG0ECZNdARQ77606B8vG27bN31oRwbf9b8FdjrFVleeiYz9x7I5O9r3u+Xb5+R3v85I+f/94EsYKqbZwqzajCbvytX7y05dV2Sq59sl63btsuRa87ytRW5P3JJ7r90Ovy1NVle0mMv7c8/Ht1Ocu6HITn/1ZCc/2EDxzq6dNrKaQu4FI9LpuMn7tiqP6ZW752R9/vOyOjD8JidPBc5jr3zZP32VtdSdLQ0LaMDx+Vgz7u1/UGq3pbk5qm90rt3r4xMhdueGd4j7/celmOj07Kc+nv/N6up/Up9PZZXwn2F/c2azIzfkBm333o46PVvW7cNyqRbjt+vy/C1SJ+0ErOfaLleR/b7clpGtX/76opM2v2+fCqzf+p60zKgXmfbdhl4+K+sry3J7JOVQLuT53bK1m3vSs/A3VhGy7MP5P695v9mlyJldOvN54B/qJt88mq/IV95IAO7fYFu/WBQ7vzZ4AAw4p8c2Su9Pe+aA8v8XoV++q6svl2TO6f9ZR8PPy4M7LyLgfLl8yDdcLv8eUuO7dLjZKf0nrohc96JOcaQrzyV0aPmWOsZlEl74vvjuhwxJxc9wcT/DcqkPUFd9k/E1ihsPTfNscnJsLoayHT8xB1XESP5dkXGjprz3blpWTWasseZvbBeuNYfe4x6xjBJh68fyGmvj9guW/uuyFzSerr89TOZ1KDY/NPgoj7Y9tpjGTbneVue9H4rNK7x/UoMl7r+ZE1mvt7r1/m9wzIyZYxvjCFf+O+g9Jq+8NNrz+oYppVB62ODDDd//1fWg3btl6t//Cvrtp/tGZLJ12G9lM3ctX7ZsW2n9Hyl7daYkW1TDV7qBU/qX++HssM1/2ltx3eF6Ifaa8jXnsnVfr0ijDm4EpbZg3nu6uHa33kCPSzHhh/IwtIN+dT8fsdHSaL9Qm56V6wlM1kcWIU4sNJPRp3T5PLUN9JnTrg7+i7JzOuIIX/5QAZ6zTG6a58M25Oa6uzPW3Jy717pec8/foNj7SOz/nt7pHfvJZm0J6hPrnt3q4KTSt0JtHP1zgt/ylHhNrfHRcK5Lvm8GDHkM9+YO8zH5ebSv7L88Ip3B+pYnzHp/We8aO3Y18mGPDgmmy6Lvw/PeJv6HLk2XWfINYLvm8N+GX2SFHRzI/+hcU3mEPENcf3J2jMZO7nHeIV35dgPS7JeY8jXZO7aUXnH1LvnpA1M+Lr0An+BsX1XejwTvMesv1Pe790rJyeWxPJzOWzdZgz52zW5P/AfL/BxZOx6GCEfNwGRXf0ypsb9yRXp9cqxR4YfRhjZQKS567F1d7+c9qLw5m5j3Ocv+31d2Gg83qDw3qB9hlyjbk2acT0wrSFffbnk3yq/fcY/2MzJXk9wc5f31Zr12E7GHiwVPiFwgBb+AN2woXNuxS5MXZIjH+yR07efyfLSYxk96J/oDo4+luWlJZkc2SdbPzguV2fNMbe0Iu5tbnsyssdmEImzJ0hrPDDk1dUbfU192zeZsnLnS2tAXUO+IjeP+RfAfaNPvX0Ex1/Nea9fBs4ZQ+4dl9Ny3rsQ3yujT/4NDGVm81uzbZN+YQzl6dthH3L69oosrzwLDHrq9nd/IzOBThxDbvuR4Dv3nB0GEGruuLls/3wmN7/cI+9/ckUm9Q689QzbzsgdTT+ZvyUnP9gufecfyJxNR3npXBzY/itIcbFlCz2E7QPjDLl3gXT6sPQc/ELOf3Vc+gy7vuNDcv7UYek5fEY0sj47aqL5Ebau77H7wZC7GqjO5/YY8j/vhlG3bTvliOZtvXYOAOfAmxv/QnqMQHfs/0Zm7O1yu4692rWGfOVucIvtyPDd+nyr8UFzFXpcbtr8Lrst3utPGjApJZOgY4/p/FNPmmZ978RjtGG3hSGvzolhwxeC9Ccb7k/scebmPq8+NOOvNB1iaVqGjw/K6LUbcufeAxkxaSy9Azfk/r1puT/qGPL563LQO5YH5f6aY8gPXpEZa0obvt+V025/YM/F0T5l93+CSG1q32LP4Z5GrOndLjVGu04/CYY8MNH2IqbJd7cswbbshZAtWzZDHn+BVFuegZ/CdJU4RrZvDTRAysqGj6Mi912tN+Qv78ppc4t767Y9cnLimaz+fl0+fU/zWK+Hgy/0VtOpvUEO1I7+KzLrmPFAmNGD3/6/e1Am9TbP0lNjyp96gyRW/2si6nuvyGzdwc0JtchipezZ9dvw+LHHUcK7GnLvdm7DlJW9MjJucs2JkFfyJMJxmXxc2mOo99SthpMPhMesNYbPZHS/b+zeP3xcjvX54zx2eOOoQpNtzVxgDM9Ny/LEcf8u8rFb3nkxGCw4FeZPN263FZk1Awx10GCw/YQ+o+frx2LPvwMPNbKvZR+USWvkXRPsDH7c6qW+JaWe7pX3bY67G0kPTHSt8Y0zu7HLtCwmJa+3QcqKtt2YSSWJi5Cvm8G0/p3IsDynf1iSBTNmbuG2TenZIyOzRi+WS/+NQBtBOzU5sJNBncnHYGOd5+e3rTfkb/+V1ZlvpO+jozI6q1HxJblzOjTeW987LMOXv5GDgWnfKX1fPZCFyEjwsHMKBe4dWAPX5Wr/u3JsIn4Ax8zXmsu1XXZ8xYCyIgmRsra3U1h4eEVO2lxx94S660M5cu663HdmArBtkXgMur/X/MVrGHLLjPf26rhofINjqMaMxjMK1g1SJ9R0R8dg9cvV/96KySG/JXfsoM5zD4Lf9XppLjbiGzmXRo7jWONq1zk37ae9eGknYdRaDao3cHH3oNxfsYNP+2XsTxMR1sCYNZ41DDZQJteQR4NtL5/KneHDQa64W5d3+o7LyPhjmYvOlpLV1H9yXa6mGvJnct/ue9fOIMjY07NHPL9zb1pGzcxWWi579zG4wNF6WUaW94be7YVcvL6KduxUsbxtMeRxIPUK0aamBAfLe0dl9JdwSiD3d/ZKcfTUh/6V/t5BGdOrxtkVWdf8WGvgAyGHYlx9+Uxm5+NTZNx98JkDt7QaWFuThSfTMjZyXPrsIMxt2+Wdo4Nyeq9/Yv54f7/0BRfG22XHR/1y+vJdCaItepw9/MYct/0yOusPRJoZNQOuv7zrjfNYfW2mRzR5mfcHzIk/7QQaPaHyP9H1EmogNNnNmOHwXLb+52OZ+f2ZjHnR5u2iUeh48zYoVwNDfkVGvWP8PzL8i/bxGzC/UUN47kcZO7rTzHJWa8g16DarwbcnV/z8aTXe1uxq9Neeo2sMeRh9zzzNn577HY3oeX7m9nUZ+B87CFOnVt4rA18eNWPM9snB/nAmEp1uUPO6rz585o+R8fLQn8nYcb9tduhUhF4aj03VOez5k+WXa7JqxuR4Y2uCdCBNaXkmo2Zw7Vb1M7N3g0GdfYfjLxAOXvWnXrT9pHeHw+TEL8w/ldknzf/NeZF4PI+rjyJ+br8h15SSa4NyxDEFetCcvPY4NNXOQVYD0ZlKaevu43LVmncdXLLrQ+k7eUvm7MGuUYXfb8nJw3vknUbTNyXtj+U1HV5NW8CmWGzsydGeWN87LAPjT2X1bXgytSeCuXuXgtvh3sXyri/M+AudXtRE6I7eCObNrYnsGF0s67RiOkNBcPt3u9gTDzriwreqGti0Idc7zv816Q5eFDpM06zNIX8qM4EhvyQjPWoy/yMDD32TljbndzCYNC2/XNNJ11Zk7g//rrd9loGN9q6vPQ2M6afjK7I87pvij90LCGvInQHndc84MGmraeX1B5w7fZPXx+2U3mOX5L7OrOZ6Au2flh7L2Ln+MPVl23bpGfEHyAYXEdv+I8Mz9ji1FzBhDvn626cy+omfVmNnndJ0HM3P17q+c/iSTOp+BvxBne/0mDna/3ggw8cvydX/3Sc7evb4ufZeGtFTc9G0U847c7lvTC9h1L2qx1lZ6t16Q24jc5fPyKdx84hrlK4nOV+sdyRMNdE8ODvPph9V3ym9ejvOjlbWXDr34Httr2z3yajOF4qJhEFlNbAmk+f2yPv7j8vI7afOxe8zuWmm0Bp9WBtxWn5yV4b7P5RePYkqN51f14ug7zGRNv+YCgy5l/tpphf9xUzNZi4AdvQOhfOZV7YN6IOq3gcHBsve4c2UG+yPh/LYLdlnCWyXY2PPZG4m/M5ue+CnyHGpc5VbE+9cSOv2Js+Zqf2c86zdzlZrmJOOVxPFnZu5IQPmLpuey3t6jsrJ4DkG38jMWhg1Pv3ftdAgm+0H+7PBAvfdu6tmDXH8XYXgIkCj8O/tkU/PXZdJ5464nRby/Fe3audV13nUL5+Rvo/86SPX367J5Nd+Ou0Ok2vv69Xu35/20PckNifeluld+XTMj3Qv/3LXG2R7/+oZM7h1n5yfcB/uo/3vM5l7Yv3Jcbn50E6BeEbuOKk0AZtTN5xI+QMZNmMJ+r5+4Cy/IScNu4BJUtuxvBBeqPWG3OlAgtQU94Br9Nne5nYfKKS/2b1HenZtl77RGzJiOgMvj9w15G/Dg6bvcuSJXAiyEIKs+gm8NfUPTbf3xMyaOWwj03LVfGfmvD3vPGXz5bSM3Y45loLjzkSR3GnIlrh12pp2xNAXnWNgsBqZXef8NDt+Se6bJ1LXT/E7KKPek3AH5VMvCr7dS8PQp0YG85DrOTR44E8kymvOne7dq6CMSTN7eOY9vLOWfF7f40XkNUjmP5n7jNxXs2n7ishg1NjtZDTkoemun6f7dL8/jixx6kDt35ynbM7dvlE/u5tzJzGYBcaN7MeZ6ERvY1OQnAca7jZlrLkQCAfqxrJJ3D4R8qL3E7b8rTfkb//1np6lkbmT9sDYdlRGUiMDl4IH/fji1+ieGZy5y9wy/+S6zP3+WGbu2UicmdbQHuxmIEwQvWuiA7QweMcAlEMDNsJjozkbeLcXxsHx1ew2XCOArsqhK9qx2XYMzG7m81Fo2nZ8NCSTj+z5zj605pIM24fH1Bi06DzkYXDKi1Kr4bd53Zqe4eWW++0ZlLFme87xbvoCm/PsmsW+41dk7PYlbxY1b3pjTTM1Fwr2KdrBOdlsJ9ifwyRYFjHkdgaZsOy++Qy2mVTmhstt/5TlQsNh4W7X1EfHu90ZMXnru8/IVeN1bp43z0tx5l8PH6Ck29wpp+/VBi8CDmZ8jp/SE8777j87wj5UyEbcMeTNHpd5Xb8thtxWNjxo7BViUofuGIjgoFUjvk9GLw/6AzS8g3dN7n9pDLq52l4PDIPZR/A0rKMytpS0P5bbNuK9jFpIiJCf/0IOfhA5ufQe92ZsqIuk/2Ci4sHxFfmde2KK/WxPeGXkS53oN7JpIDBYjvlMZ/dMrpoHd209eN1PubATGKipXluTuZkHcn/MTpLQL8O3NT0iMg+5l57iH7PW1LrRdrtMyxKUMSmH3OR1L8zclcknS7L8OnwQUJAq4ZXRT5PzDXt4/Ac+IDi3m77EYRKUIaMhT4qQDxy1T+20/dWHcvB0fRQ9jJBv3pCv6xPJzSwq7x+95KfPzF+XI950jTsluCDS9nt5S47Z/vKDIZl029ZtC7tOxvegHZw7Lek6y6ZfttFZTrk15OsPB6X3q+kwR1wP3tfTMuLNxepcWQaGwZr+afOEsu3h1IiIlHSVqmvg5WO5Gjxiul+u/hSeMOKmHW3YEQfHXXjibfibqrcB9a9cPxQYzV1n5I7znI3EY2XlbpAXvOOr/yuTl4fk/MBxObjXzsftDwIMzLVjagPj26cX2V9In5m/2zPfr6dlYLc1qTobic6a5EdngzI620osn6fh0MSGRnBNJr8Kpze2TxXV7QRTN7bQkMeVb+HeUFDnj8/dlTvnjDnv+SKcECLzMRjWMUhZSfrt2pLc19msnBmr7F2EjwceyKr93cpjGd5vAorGaPd8eTec8llz3GMzCcKcff8hUG5+uv0cji2IY8OyzhrrjfLukCG3t9uSBnM60xaZg3b99ZIsaAdmT/xOZ7E881hmX67Isk63NvGFmeLIGvI1mZm4LpMmB2+jYPhdMQRMO6W30+rv03K1ZoaBcDCS5noGU5G+t09OX34gs3+Gt1BX9RhLeppf8HhqMzVY0npOriVtld5W8Ckfn8Ak67MxPtorn8ZGa/0I7sDxwxLO4KEBpQXzcB3HSG/rlzEdHGjMts5oYnUT7KtvX/D4du8u8++1kesj/dYU6jSAg3LMTtuXOvDUNXyhWfUMuT7kL7jY3y47+r+Q81/aOu0L5gb350R3IvJx0d9IhNwaW/c9vAj4V9QnzN6unSUqGFCukeugrjvl/f5vZGzGTHmoJrlm3Eu0rwvTRLbWpI9E1/P7y9U/nsrk+FD9HUidavHkDZn55Yp8Ghj2ndLTY3LIVRf7h/zZYeyDinS2qsiffTiSaij6nf//JZm0xp/34Jiwx0ZR3jtkyN0OpcFna8itqGIMucKdtTOt2IN61xCCtMx4L+wB2ZKO4/VjGfnEuci1x8h7h2VkKjyB676Wpy45D+kyx6Y+LGj0J7nsPMzCPSE289m9Nd6SuqHtamu7aO2/Mi0DJqe6meNma8+Q9yTquR+GZHT8gZ8qogEq12Tap1UbJoEhP3dd7owMyfkR88CvJ5ek10ZkdQalmEhtw7LVDD50DfmaTA6HaSL+E7fD/PVwu+FMTUFE3vZL7ntGQ77wwxnpdadS9rahTwO/IXNuGkjkieC2PO/0npE7t0w6rLv/pj+fkf9zzF7gmP5TH3547YqcNk9WrZ2PfKd/53/lqYzai4Vdx+Xm/7NPHLcRb/c9S4Rc13cvmsp3cVuF80eHDHmzgzodMSUYcvuIXu8A2/WhNyVUFRqMOjraKNrJuYPldaPf3pPqaqY+jDCM3nLtGZTJlSW5eSopGpN9+cmJJQxkB9ud/iGi7TywX1uSyWuXRCPg8dFNezwdlmMDQzJybTpMY4iWf21J7gxoaog/o4nb3qEhD6cOtt/Pju6THf3XQ7O6pg/muS4jp4/WlilhqmI3Eq8PArI5036EfEXun9sjPSdDMzx3zdnu4eMy8lPYDwSG3MlZD+ZCjxjyYBDjL1fkoDHLNiofRL/N04Yn/0hu++VfbshA8JCgneINQJ26VFv3SFQ6va1sm12SyRkdeLszZorZf2Xh4bTMrdk7FHvk5DV9FoQpp15cHf1QjowtyXqrymK3zXshzzttNeSr89PiP4Wr8ZVb8CCAaJ6dva1kngJoOxjekzsf2MBG59jVOYu9tK+snbN5hoA7py9aQktoIH8aWPgjNLi2fYLzbeSJlt73ayuyHD23Zu0X6tZbk7kpP4IbPNXXjUrXrd8mft5TTFf8p25m3efKM5lpdSR5ba1xGdaWZC7pgqEb7LLyYr2OGvu2GnLbUfDepg6Jg6WjBws6RsdoAA2gATSABtBAOzSAIcfUYmrRABpAA2gADaABNIAGuqgBDHkX4bfjCottcuWOBtAAGkADaAANoIFiaQBDjiHnihgNoAE0gAbQABpAA2igixrAkHcRPlevxbp6pb1oLzSABtAAGkADaKAdGsCQY8i5IkYDaAANoAE0gAbQABroogYw5F2E344rLLbJlTsaQANoAA2gATSABoqlAQw5hpwrYjSABtAAGkADaAANoIEuagBD3kX4XL0W6+qV9qK90AAaQANoAA2ggXZoAEOOIeeKGA2gATSABtAAGkADaKCLGsCQdxF+O66w2CZX7mgADaABNIAG0AAaKJYGMOQYcq6I0QAaQANoAA2gATSABrqoAQx5F+Fz9Vqsq1fai/ZCA2gADaABNIAG2qEBDDmGnCtiNIAG0AAaQANoAA2ggS5qAEPeRfjtuMJim1y5owE0gAbQABpAA2igWBrIbMhfrqwLfzBAA2gADaABNIAG0AAaQAOt1UBmQy68IAABCEAAAhCAAAQgAIGWE8CQtxwpG4QABCAAAQhAAAIQgEB2Ahjy7KxYEwIQgAAEIAABCEAAAi0ngCFvOVI2CAEIQAACEIAABCAAgewEMOTZWbEmBCAAAQhAAAIQgAAEWk4AQ95ypGwQAhCAAAQgAAEIQAAC2QlgyLOzYk0IQAACEIAABCAAAQi0nACGvOVI2SAEIAABCEAAAhCAAASyE8CQZ2fFmhCAAAQgAAEIQAACEGg5AQx5y5GyQQhAAAIQgAAEIAABCGQngCHPzoo1IQABCEAAAhCAAAQg0HICGPKWI2WDEIAABCAAAQhAAAIQyE4AQ56dFWtCAAIQgAAEIAABCECg5QQw5C1HygYhkA8Cr/55K7+t/CWPXizJVIn/tH5aT60vLwhAAAIQgEARCWDIi9hqlBkCDQgsvHktv756IfN/r8rz9TeyWOI/rZ/WU+ur9eYFAQhAAAIQKBoBDHnRWozyQqABAY0UqzktuxGPXmRofbXeRMobCISvIQABCEAgdwQw5LlrEgoEgc0R0PQNjRhHDWsV/td6a/15QaAsBKaGD8n+ExPyvCwVoh4QgEAsAQx5LBYWQqC4BDSnumrRcXuxofXW+vOCQCkIPLoo+w8ckqFHpagNlYAABFIIdMSQPx8/JfsPXJQpUxDv/5Qrfn/9Q15HpJ1Rpr/h6ZRq8hUEqkNAB3Bag1rFd60/LwjkgsDihHzunsNSznt15Y3+1t2O+7mZbdbthAUQgEBeCLTfkJtOpfYKf1qGmrrqX5TxE8lRAu+WHoY8L5qiHF0mkN2QT8pnw2dlSxN/n800GiA6LxdGz8ruH+cbXBT4+w62N/Ntg3J8K99nHJiKIe+yANm9ITAtQzVm2T/vZUs/Meuq8a7ZhgOX6LkDg48QKD6BNhty30jHdSjRqHk6Sgx5Oh++hUBIILshrzfX33+XZKYjBtoxx/qbLd9NGgOe0ZAvzMvP6/42s5l3DHnYwnwqKoFs5z1z3jRBJv83p2R80dbafH/AXWa/4x0CECgqgbYaci9y7aSqRCFlH6yCIY+y438IJBHoqCFfmJDdw8NyYcGa+yyGXI24+xv726R3XR9DntTeLC8OgUyGXCPf0Tu+Jhpu0zc/D915cSpPSSEAgVQCbTPkvhlvdAVvrvSTbskFRW9syOmgAlh8qDiB9hnyehPtRcczp7xYU11ryBO3EUTdMeQVl3Q5qh+bvtmoajYaHjOWquF5s9G2+R4CEMgTgTYY8rADqc0bT6q2XT8c9Fm/Zpoh97/DkNdTY0k1CXTMkHt539Zk2+h28xHyuDSZn38cdtJgMOTVVHIJal0T2U47x5m61g3kTAlqNbNuCVBSBQiUnUDrDbnXAcV0Il7nEbPcEE6/lZdiyDcUdSh7s1K/KhNoiyGvS01Rk3xWgkGZQU45hrzK2qPuaQSaGdQZt51mJ0OI2wbLIACBvBJovSGPramJgp+4KFPBwJTYFRMWuobcGX1up36K5tslbIXFEKgCgXYYci9i7eRx6//xgzE3ZshjZ3ohZaUKcq1WHTMFkMz50p7fsryTvlItHVHbUhLoiCGvHyWupjrD7bsAuWvIg4V8gAAEYgi0xpD7EXDXKNdHw+vXcdePfg4NvP4uzEcnZSWmEVlUUgJ+QGljKZZEyEsqCqoFAY9A+w15QkQg+wwrWk4MOXqFQFYCrTHkNie82feNRchDs+7vjxzyrK3NeoUikHA+TKxDzYwrriH3P9fNxpK4Ib6AAATyTqDNhtw30vHRgGYiBRjyvAuJ8uWHQBENeTSa7v1Pykp+REVJmiagd4ZrJzYwJjpjeklwZ/nRojz39u4Y8kV/mb9OysODmi41P4AABLpFoI2G3DfRqVfwZgR6bacVhwJDHkeFZRCII1BEQx6NkC8Gg0Q1Yq4pLtHZXJIj91p/XhDIAwF/+t9wysL44FS0pMa416V16vL4iRGau+Mc3R//QwACeSDQJkNuzHiWwSjeOk4+ubmlZx+A0Nx7fGeVB9CUAQKdIlA0Q15rvmOMtjfDC4a8U/phP90l4JlrZ6KCGlOfMbre3RqwdwhAYCME2mTImyuKdjiNo+TNbZO1IVBVAlkNeeIDeRo96Oe7SfFnXTkrsakmab8fnZCfvYh3OKgz1pB7c5w72w/SV2IMe000/Y0QIa+q8qk3BCAAgeISyIUhLy4+Sg6B/BHIashjjXDE3BZxHQx5/jRJiSAAAQhAIJ0AhjydD99CoHAEHr1YkuclMNYbuRjQemv9eUEAAhCAAASKRABDXqTWoqwQyEDgt5W/ZP7vVdmIoS36b7TeWn9eEIAABCAAgSIRwJAXqbUoKwQyEHj1z1v59dWLykXJNTqu9db684IABCAAAQgUiQCGvEitRVkhkJHAwpvXnjnViHHZ01e0flpPNeNab14QgAAEIACBohHAkBetxSgvBDIS0Eixpm9oTrUOdCzrn9ZP60lkPKMwWA0CEIAABHJHAEOeuyahQBCAAAQgAAEIQAACVSKAIa9Sa1NXCIOVG4wAABtLSURBVEAAAhCAAAQgAIHcEcCQ565JKBAEIAABCEAAAhCAQJUIYMir1NrUFQIQgAAEIAABCEAgdwQw5LlrEgoEAQhAAAIQgAAEIFAlAhjyKrU2dYUABCAAAQhAAAIQyB0BDHnumoQCQQACEIAABCAAAQhUiQCGvEqtTV0hAAEIQAACEIAABHJHAEOeuyahQBCAAAQgAAEIQAACVSKAIa9Sa1NXCEAAAhCAAAQgAIHcEcCQ565JKBAEIAABCEAAAhCAQJUIZDbkL1fWhT8YoAE0gAbQABpAA2gADaCB1mogsyGv0lUKdYUABCAAAQhAAAIQgECnCGDIO0Wa/UAAAhCAAAQgAAEIQCCGAIY8BgqLIAABCEAAAhCAAAQg0CkCGPJOkWY/EIAABCAAAQhAAAIQiCGAIY+BwiIIQAACEIAABCAAAQh0igCGvFOk2Q8EIAABCEAAAhCAAARiCGDIY6CwCAIQgAAEIAABCEAAAp0igCHvFGn2AwEIQAACEIAABCAAgRgCGPIYKCyCAAQgAAEIQAACEIBApwhgyDtFmv1AAAIQgAAEIAABCEAghgCGPAYKiyAAAQhAAAIQgAAEINApAhjyTpFmPxCAAAQgAAEIQAACEIghgCGPgcIiCEAAAhCAAAQgAAEIdIoAhrxTpNkPBDpM4NU/b+W3lb/k0Yslmcr5n5ZRy6pl5gUBCEAAAhCoGgEMedVanPpWgsDCm9fy66sXMv/3qjxffyOLOf/TMmpZtcxadl4QgAAEIACBKhHAkFeptalrJQholFmNbRGMePRCQcusZSdSXgmpUkkIQAACEDAEMORIAQIlI6CpHxptjprdovyvZdc68IIABESmhg/J/hMT8hwYEIBAqQl01pA/uij7D1yUqVIjpXIQ6C4BzccuYnTcXjBo2bUOvCBQeQLeOfOQDD2qPAkAQKD0BHJryJ+Pn5L9Bw41+XdKxhdL32ZUEAKpBHQApzW3RX3XOvCCQNEJ1J/HmghILU7I51nOgUTPiy4Tyg8Bj0C+DfnwNM0EAQg0SWDThnxhQnYPD8uFhQaDQb31zsqW4Sb+vpvMdLGAIW+y0Vk9fwQ8Q11rwL30kwNZAkfTMmTNeJLhJnqevzanRBDYBAEM+Sbg8VMI5JFAZw35t/J9G2ZwwZDnUVmUafMEfKP9eeqt3EUZP3FI9puAlB9ld028+T6Tsd98idkCBCDQGQKtN+RZb7PZq3/33YkEeJ0QEfLOqIC9lIoAhrxUzUllSkUggyHXyHf03Gei4TaNM93QlwoYlYFAZQi03pCnoPOv9Gtv4SWtbg25f4svay65G0VI2jLLIVBuAq0x5Bki317KSob1NhBBJ0Jebo1WtnYmYJV9kKaNhsecA50AVmV5UnEIlIhARw159vw5EWvIY1lrtIDOKBYNCyGQ1ZD//ONwc/nfJld894/zfh64MeQXmtkOOeQItLIEbF54SlCq7g5zSpCpmXUry5yKQ6A4BDpoyM2tuhOnJMvtNgx5cURESfNFIKshT5yBZeZb2ZJ5UGd8hNwz+xnNd1w5iJDnS1OUZpMEAvOcYrAb7sI/h2aPrjfcICtAAAI5ItA5Q+7lwF2UKa9jSokQGDgaTU807kTIcyQhipI3Aps15DZyHkTCk1JOUlJWMOR5UwXl6RaBMO2y8XnPL2NKmoo75sr9zB3jbjUv+4VAywh0yJD7HYxvsN3PyfXAkCez4RsIpBHYnCGflM+Gz8pnP07I7tEJ+TnJjOtyNeQJ62DI01qI76pCwJrxxOBSUyCIkDeFi5UhUDACHTHkdYM5G0bJfdOeeGuOCHnBZEZxO0lgM4bcM9LGZH//3VlJjZJraguGvJNNy76KRMC7K7zJp2zqNoIZV1xD7n8OvysSGMoKAQjEEWi/Ifc6pfq8Oc+kJ91m836TcntPv0/6bVwtWQaBChHYsCH3csednHAvJSX5AUFpUfC07+JyxqPLtA68IFBkAl50fBPnKT+QdUrGHy3Kcw+EY8gX/WX+Ooc4HxZZKJQdAoZAWw150KEkPM7ev50XNd6NU1pSzTxNC4GKE9iIIfcMdNxATs+Un5XPZqJP7ZyXC6Nxy/31MOQVFyHVF5uuYucOr32PnvdcYCb6fSC6ji6vD27pLzdr/t298xkCEOgOgTYZ8qQOpb6S9go/yLFLSmfxoubhXKyJ6Sz1u2AJBCpFoClDbgx3UuqJF7m26ww70fNoND2Sa44hr5TkqGwLCXjmOkhTMWbbDuDcRMS9hUVkUxCAQBsItN6QG+McGOxMhc5u4DNtjpUgUGECWQ255ohnmt7QmG0/in5Wtnw3KbH55YFx1+0mR8+j6Slx/5OyUmEBU3UIQAACFSTQekNeQYhUGQJ5IpDVkMcZ4bwsw5DnSVGUBQIQgAAE2k0AQ95uwmwfAh0m8OjFkjyPpJDkxWhnKYeWXevACwIQgAAEIFAVAhjyqrQ09awMgd9W/pL5v1f9x9sX0Jhr2bUOvCAAAQhAAAJVIYAhr0pLU8/KEHj1z1v59dWLQkbJNTquZdc68IIABCAAAQhUhQCGvCotTT0rRWDhzWvP2Gq0uQjpK1pGLauacS07LwhAAAIQgECVCGDIq9Ta1LVSBDTKrKkfmo+tgyTz/Kdl1LISGa+URKksBCAAAQgYAhhypAABCEAAAhCAAAQgAIEuEsCQdxE+u4YABCAAAQhAAAIQgACGHA1AAAIQgAAEIAABCECgiwQw5F2Ez64hAAEIQAACEIAABCCAIUcDEIAABCAAAQhAAAIQ6CIBDHkX4bNrCEAAAhCAAAQgAAEIYMjRAAQgAAEIQAACEIAABLpIAEPeRfjsGgIQgAAEIAABCEAAAhhyNAABCEAAAhCAAAQgAIEuEsCQdxE+u4YABCAAAQhAAAIQgACGHA1AAAIQgAAEIAABCECgiwQyG/KXK+vCHwzQABpAA2gADaABNIAG0EBrNZDZkHfxooFdQwACEIAABCAAAQhAoLQEMOSlbVoqBgEIQAACEIAABCBQBAIY8iK0EmWEAAQgAAEIQAACECgtAQx5aZuWikEAAhCAAAQgAAEIFIEAhrwIrUQZIQABCEAAAhCAAARKSwBDXtqmpWIQgAAEIAABCEAAAkUggCEvQitRRghAAAIQgAAEIACB0hLAkJe2aakYBCAAAQhAAAIQgEARCGDIi9BKlBECEIAABCAAAQhAoLQEMOSlbVoqBgEIQAACEIAABCBQBAIY8iK0EmWEAAQgAAEIQAACECgtAQx5aZuWikEAAhCAAAQgAAEIFIEAhrwIrUQZIQABCEAAAhCAAARKSwBDXtqmpWJVJ/Dqn7fy28pf8ujFkkzl/E/LqGXVMvOCAAQgAAEIVI0AhrxqLU59K0Fg4c1r+fXVC5n/e1Wer7+RxZz/aRm1rFpmLTsvCEAAAhCAQJUIYMir1NrUtRIENMqsxrYIRjx6oaBl1rITKa+EVKkkBCAAAQgYAhhypACBkhHQ1A+NNkfNblH+17JrHXhBAAIiU8OHZP+JCXkODAhAoNQEOmvIH13M1LE8Hz8l+w8cSvwbeiQiixPy+YGLMlXq5qFyEGiegOZjFzE6bi8YtOxaB14QqDwBPWceOCTeOa/yMAAAgXITaIsh1yv6uA4kaXkUsWfIh6eDxfq7z8cXg/+9DxjyWh78BwFDQAdwWnNb1HetAy8IFJ1AfXCpiSCSd45LDkwFQSui50WXCeWHgEegDYZ8UZ6P61X9Kanx0Bk6F2viMeSoEwIbJ5DZkC9MyO7hs7Il4e+zmTeyOPOtbBmdkJ8zDgr9/jvd3rBcWNjcQFIM+cbbn1/mhEBM0MhLP4meG2OLOy1D9i5xkuEmeh5LjoUQKCqBNhhyg8LrLEJTHhvlttQi62LILRjeIdA8geYM+bfyvTHbP/84LLt/nK+NricZ8gZmPt7kZzfqGPLm251fFIGAb7Tr7vjWFH1Rxk8ckv3mLrEfZQ/PpSLm+0zGvmbD/AMBCOSYQPsMuYhoR+J1PJ7hDm/VeVGCSEqK7XyUFYY8x4qhaLkn0DlDHpr5xqkxk/JZE5FzDHnuZUYBN0QggyHX86VzfvR2451Dw/SVdEO/oYLxIwhAoMsE2mrIbd2i0fEaQx6Jjutv/IhA2PkEuXLeLTxj7N0UmGjnZXfMOwQqSKAjhtyJqsdHwyOpMN9N1kbeG6TAYMgrKNwqVNmct2x6ZuMq22h4zPkwKZWl8UZZAwIQyCGB9hryRxdjBneaDialM4lGyENuGl1wDflFmbLGHFMeYuJTpQk0Z8gjxjnIJzfRb01ZMcu8nPIkI21SWGpSXhYm5ILmoSf9JmU5hrzSEi5p5W1eeHi3uK6i9nxm88fT0lKaWbduRyyAAATyRqCNhrw2Dy6ouNeJnJLPT7g5ccG33oemDLn+wnZMmPJakPxXSQLNGfK4tBNNL3EMuQ7q9Ix5Qg64Z8ZjvjNmvsakp5hw17hjyCsp3fJW2p6j0gx2w9r7hj57dL3hBlkBAhDIEYH2GXJNRYmJgluzre9JeXB2nXpOMRFyu1JM6ov9incIVIlAWwz5+hvRQZ91M6hkHdzZxEwtaswx5FVSbLnr6qVouumWDaubkqYSRM4jKSwx59qGu2EFCEAgVwTaZMj9DqX+Sl4NtY2Mu59rmXiGPKnjiaas1P6U/yBQeQLtMuRqlL1pDYN88Hm5MKopL26U3Ymu22i4Me2pKS92XfOOIa+8jEsBwJrxpOBTc5UkQt4cL9aGQLEItMWQx0e4fZPudkzeejFX9tHfh4NCUyLkxeJOaSHQNgLNGfIMOeRNRbdjDHnEbLupKUmfMeRtkwcb7hQBMzNKfWCqiQLoNoJUTNeQ+5/D75rYJqtCAAK5JNAGQ64dhY2C2zon5JOLSM2MK2b1ZENut2fzxlMGxzir8hECVSLQnCEPo9vhPOSOqU6ah1xNtjPg0w78THsnQl4lFVJX79wWE3DKSsY7D+q59NGiPPd+5BjyRX+Zv86h2PTQrPthPQhAIB8EWm/Ia67oRcRECdzIeLTq/m290FxjyKOE+B8C2Qls3pA7M6OkGfLYyLdj5mO/d7ad8j0R8uztzZr5JOCf1yK53kEqZni+qy+9iX7b9Mxghbhgl//lZs1/sAs+QAACXSPQekPuVMW/ek/reMKV3XUx5CEXPkGgWQIY8maJsT4E8kPAM9dBmoq5i2yN/CYi7vmpISWBAATiCLTVkMftMMsy35wnRRYO+bOzeNNIZTP7WfbJOhAoC4FOGHJvcGcwZ3lSHnrM8mBAaHqknAh5WdRIPSAAAQhAIAuBXBryLAVnHQhAIJ5Ac4Y8xjQbo+3NH950ykq60U4axBldjiGPb1uWQgACEIBAOQlgyMvZrtSqwgQevViS5yn52VHzm7f/texaB14QgAAEIACBqhDAkFelpalnZQj8tvKXzP+9uqFH1ufBnGvZtQ68IAABCEAAAlUhgCGvSktTz8oQePXPW/n11YtCRsk1Oq5l1zrwggAEIAABCFSFAIa8Ki1NPStFYOHNa8/YarS5COkrWkYtq5pxLTsvCEAAAhCAQJUIYMir1NrUtVIENMqsqR+aj62DJPP8p2XUshIZr5REqSwEIAABCBgCGHKkAAEIQAACEIAABCAAgS4SwJB3ET67hgAEIAABCEAAAhCAAIYcDUAAAhCAAAQgAAEIQKCLBDDkXYTPriEAAQhAAAIQgAAEIIAhRwMQgAAEIAABCEAAAhDoIgEMeRfhs2sIQAACEIAABCAAAQhgyNEABCAAAQhAAAIQgAAEukgAQ95F+OwaAhCAAAQgAAEIQAACGHI0AAEIQAACEIAABCAAgS4SwJB3ET67hgAEIAABCEAAAhCAAIYcDUAAAhCAAAQgAAEIQKCLBDIb8pcr68IfDNAAGkADaAANoAE0gAbQQGs1kNmQd/GigV1DAAIQgAAEIAABCECgtAQw5KVtWioGAQhAAAIQgAAEIFAEAhjyIrQSZYQABCAAAQhAAAIQKC0BDHlpm5aKQQACEIAABCAAAQgUgQCGvAitRBkhAAEIQAACEIAABEpLAENe2qalYhCAAAQgAAEIQAACRSCAIS9CK1FGCEAAAhCAAAQgAIHSEsCQl7ZpqRgEIAABCEAAAhCAQBEIYMiL0EqUEQIQgAAEIAABCECgtAQw5KVtWioGAQhAAAIQgAAEIFAEAhjyIrQSZYQABCAAAQhAAAIQKC0BDHlpm5aKQQACEIAABCAAAQgUgQCGvAitRBkhAAEIQAACEIAABEpLAENe2qalYlUn8Oqft/Lbyl/y6MWSTOX8T8uoZdUy84IABCAAAQhUjQCGvGotTn0rQWDhzWv59dULmf97VZ6vv5HFnP9pGbWsWmYtOy8IQAACEIBAlQhgyKvU2tS1EgQ0yqzGtghGPHqhoGXWshMpr4RUqSQEIAABCBgCGHKkAIGSEdDUD402R81uUf7XsmsdeEEAAiJTw4dk/4kJeQ4MCECg1AQ6aMgXZfzEIRl61Jjn8/FTsv/AocQ/bxuLE/L5gYsy1XhzrAGBShHQfOwiRsftBYOWXevACwKVJ/DooncezHLerDwrAECg4AQ6aMhFxOtcGptoz5APTwdoNULw+fhi8L/3AUNey4P/IGAI6ABOa26L+q514AWBohOoDy41Pv8FdfbOccmBqSBoRfQ8QMYHCBSZQGcNufi33+rMdYQghjwChH8h0ASBzIZ8YUJ2D5+VLQl/n828kcWZb2XL6IT8nHFQ6Pff6faG5cLC5gaSYsibaHBWzSeBmKCRl35y4JRE40v1FZiWIXuXOMlwEz2vx8YSCBSYQFsMud/pZLiytx2Oebe35TDkBVYURe86geYM+bfyvTHbP/84LLt/nK+NricZ8gZmPt7kZzfqGPKuy4gCtIWAb7TTg1J+eud+c5fYj7K7Jt58n8nYt6USbBQCEGgDgbYY8sRyehEDt2OJXxNDHs+FpRDIQqBzhjw0841TYyblsyYi5xjyLC3NOsUjkMGQa+TbSdn06mii4TZNJd3QF48KJYYABETya8gj0XPbEe23Aznd/Lpo50XLQqDCBDpiyJ2oenw0PJIK891kbeS9QQoMhrzCAi5z1c15y94NblxVGw2PueOclMrSeKOsAQEI5JBAfg15rMnW6IIZFGPz86wxj10/h8QpEgTaTKA5Qx4xzkE+uYl+a8qKWebllCcZaZPCUpPysjAhFzQPPek3Kcsx5G0WCZvvAgGbF54ysNOez4KAVMod5WbW7UJt2SUEINAcgeIbcq2v7Zgw5c21PmuXkkBzhjwu7UTTSxxDroM6PWOekAPumfGY74yZrzHpKSbcNe4Y8lJKs7qVsueoTeV9+4Y+e3S9uripOQSKSKBNhtxGAmJuswVX/pHvHDMdzSEPwcZEyO2XXo5dSjTBrsc7BEpOoC2GfP2N6KDPuhlUsg7ubGKmFjXmGPKSi7RC1QsnOUiJjNfwSElTSTp/kr5SQ5B/IFBEAm0y5AkovChBY9PsjyqPGPagI4qkrCTsisUQqCqBdhlyNcretIZBPvi8XBjVlBc3yu5E12003Jj21JQXu655x5BXVb3lqrc1460ZhEmEvFzqoDYQqCWQX0PuRMy1U/M7tJQIeW29+A8ClSXQnCHPkEPeVHQ7xpBHzLabmpL0GUNeWfmWp+KtmCe8ZsYV15D7n+tmYykPPWoCgcoRKJghd9rHi7ZnvQXo/I6PECg5geYMeRjdDuchd0x10jzkarKdAZ924GfaOxHykguP6tUQ8KLjm0glCeYff7Qoz70tO4Z80V8W3E3exH5qCs0/EIBA1whgyLuGnh1DoD0ENm/InZlR0gx5bOTbMfOx3zvbTvmeCHl7tMFWO0fApquEU/a6aZhpwSQT/bYzigVF1uXxKZ+bNf/BLvgAAQh0jUDrDXnkAQbxnZHbMbmf/U4qOqgzTFlxOBEhd2DwEQIhAQx5yIJPECgaAc9cR1I2g/MokfCiNSflhUBmAq035Jl3nbxicBsuGMjpmnaTT44hTwbIN5Um0AlD7g3uDOYsT8pDj1keDAhNj5QTIa+0hKk8BCAAgcoRyKUhr1wrUGEItJBAc4Y8xjQbo+3NH950ykq60U4axBldjiFvoSDYFAQgAAEI5J4Ahjz3TUQBIdAcgUcvluR5Sn521Pzm7X8tu9aBFwQgAAEIQKAqBDDkVWlp6lkZAr+t/CXzf69u6JH1eTDnWnatAy8IQAACEIBAVQhgyKvS0tSzMgRe/fNWfn31opBRco2Oa9m1DrwgAAEIQAACVSGAIa9KS1PPShFYePPaM7YabS5C+oqWUcuqZlzLzgsCEIAABCBQJQIY8iq1NnWtFAGNMmvqh+Zj6yDJPP9pGbWsRMYrJVEqCwEIQAAChgCGHClAAAIQgAAEIAABCECgiwQw5F2Ez64hAAEIQAACEIAABCCAIUcDEIAABCAAAQhAAAIQ6CIBDHkX4bNrCEAAAhCAAAQgAAEIYMjRAAQgAAEIQAACEIAABLpIAEPeRfjsGgIQgAAEIAABCEAAAhhyNAABCEAAAhCAAAQgAIEuEsCQdxE+u4YABCAAAQhAAAIQgACGHA1AAAIQgAAEIAABCECgiwQw5F2Ez64hAAEIQAACEIAABCCAIUcDEIAABCAAAQhAAAIQ6CKBzIb85cq68AcDNIAG0AAaQANoAA2gATTQWg1kNuRdvGhg1xCAAAQgAAEIQAACECgtAQx5aZuWikEAAhCAAAQgAAEIFIEAhrwIrUQZIQABCEAAAhCAAARKSwBDXtqmpWIQgAAEIAABCEAAAkUggCEvQitRRghAAAIQgAAEIACB0hLAkJe2aakYBCAAAQhAAAIQgEARCGDIi9BKlBECEIAABCAAAQhAoLQEMOSlbVoqBgEIQAACEIAABCBQBAIY8iK0EmWEAAQgAAEIQAACECgtAQx5aZuWikEAAhCAAAQgAAEIFIEAhrwIrUQZIQABCEAAAhCAAARKSwBDXtqmpWIQgAAEIAABCEAAAkUggCEvQitRRghAAAIQgAAEIACB0hLAkJe2aakYBCAAAQhAAAIQgEARCGDIi9BKlBECEIAABCAAAQhAoLQEMOSlbVoqBgEIQAACEIAABCBQBAIY8iK0EmWEAAQgAAEIQAACECgtAQx5aZuWikEAAhCAAAQgAAEIFIEAhrwIrUQZIQABCEAAAhCAAARKSwBDXtqmpWIQgAAEIAABCEAAAkUggCEvQitRRghAAAIQgAAEIACB0hLAkJe2aakYBCAAAQhAAAIQgEARCGDIi9BKlBECEIAABCAAAQhAoLQEMOSlbVoqBgEIQAACEIAABCBQBAIY8iK0EmWEAAQgAAEIQAACECgtgf8P48bGY1lrzLAAAAAASUVORK5CYII=;movable=0;resizable=0;rotatable=0;deletable=0;editable=0;locked=1;connectable=0;" vertex="1" parent="1">
          <mxGeometry x="-90" y="710" width="648.18" height="240" as="geometry" />
        </mxCell>
        <mxCell id="4TmH9_435ArQg_TDs74U-10" value="" style="shape=flexArrow;endArrow=classic;html=1;rounded=0;width=8.23529411764706;endSize=10.364705882352942;endWidth=20.899653979238757;fillColor=#ffe6cc;strokeColor=#d79b00;" edge="1" parent="1">
          <mxGeometry width="50" height="50" relative="1" as="geometry">
            <mxPoint x="-70" y="590" as="sourcePoint" />
            <mxPoint x="340" y="750" as="targetPoint" />
          </mxGeometry>
        </mxCell>
      </root>
    </mxGraphModel>
  </diagram>
</mxfile>
